SplineFontDB: 3.0
FontName: AnaBoldnana
FullName: Ana Boldnana
FamilyName: Ana Boldnana
Weight: Bold
Copyright: Copyright (c) 2019, Felix Guo (felixguo.me)
UComments: "2019-4-11: Created with FontForge (http://fontforge.org)"
Version: 001.000
ItalicAngle: 0
UnderlinePosition: -100
UnderlineWidth: 50
Ascent: 800
Descent: 200
InvalidEm: 0
LayerCount: 2
Layer: 0 0 "Back" 1
Layer: 1 0 "Fore" 0
XUID: [1021 113 1909671480 27569]
StyleMap: 0x0000
FSType: 0
OS2Version: 0
OS2_WeightWidthSlopeOnly: 0
OS2_UseTypoMetrics: 1
CreationTime: 1555030753
ModificationTime: 1555042638
OS2TypoAscent: 0
OS2TypoAOffset: 1
OS2TypoDescent: 0
OS2TypoDOffset: 1
OS2TypoLinegap: 90
OS2WinAscent: 0
OS2WinAOffset: 1
OS2WinDescent: 0
OS2WinDOffset: 1
HheadAscent: 0
HheadAOffset: 1
HheadDescent: 0
HheadDOffset: 1
MarkAttachClasses: 1
DEI: 91125
Encoding: ISO8859-1
UnicodeInterp: none
NameList: AGL For New Fonts
DisplaySize: -48
AntiAlias: 1
FitToEm: 0
WinInfo: 0 31 11
BeginPrivate: 0
EndPrivate
BeginChars: 256 94

StartChar: G
Encoding: 71 71 0
Width: 540
VWidth: 0
Flags: HW
LayerCount: 2
Fore
SplineSet
475.89453125 290.129882812 m 1
 470.07421875 226.118164062 l 1
 467.890625 149.7109375 l 1
 465.703125 73.1484375 l 1
 465.6796875 72.326171875 l 1
 465.39453125 71.5546875 l 1
 458.0859375 51.8212890625 l 1
 450.046875 31.359375 l 1
 448.80078125 28.1875 l 1
 445.393554688 28.1875 l 1
 442.477539062 28.1875 l 1
 439.560546875 28.1875 l 1
 438.653320312 28.1875 l 1
 437.8046875 28.505859375 l 1
 426.137695312 32.880859375 l 1
 414.471679688 37.255859375 l 1
 411.227539062 38.47265625 l 1
 411.227539062 41.9375 l 1
 411.227539062 128.708007812 l 1
 411.227539062 129.494140625 l 1
 409.258789062 124.08203125 l 1
 408.508789062 122.01953125 l 1
 406.483398438 121.17578125 l 1
 362.713867188 102.939453125 l 1
 317.685326024 85.525390625 l 1
 304.818184241 79.0537109375 l 1
 290.94995642 72.4658203125 l 1
 289.838894813 71.9375 l 1
 288.597301453 71.9375 l 1
 257.900755682 71.9375 l 1
 226.435408724 71.9375 l 1
 225.59774433 71.9375 l 1
 224.801192299 72.1845703125 l 1
 187.197769558 83.8505859375 l 1
 150.1953125 95.517578125 l 1
 149.05859375 95.888671875 l 1
 148.211914062 96.7353515625 l 1
 128.524414062 116.422851562 l 1
 109.56640625 135.380859375 l 1
 108.993164062 135.954101562 l 1
 108.629882812 136.6796875 l 1
 101.291992188 151.35546875 l 1
 94.7646484375 165.861328125 l 1
 80.9990234375 191.217773438 l 1
 67.1455078125 216.739257812 l 1
 66.5791015625 217.782226562 l 1
 66.5419921875 218.96875 l 1
 65.810546875 242.379882812 l 1
 65.810546875 265.579101562 l 1
 54.5126953125 294.529296875 l 1
 42.1455078125 323.626953125 l 1
 41.6669921875 324.75390625 l 1
 41.7626953125 325.974609375 l 1
 46.8671875 390.870117188 l 1
 51.970703125 455.766601562 l 1
 52.0263671875 456.469726562 l 1
 52.2744140625 457.130859375 l 1
 65.4150390625 492.172851562 l 1
 79.29296875 527.232421875 l 1
 83.66796875 538.169921875 l 1
 88.04296875 549.107421875 l 1
 88.19140625 549.478515625 l 1
 88.3974609375 549.822265625 l 1
 97.1474609375 564.405273438 l 1
 97.224609375 564.533203125 l 1
 97.30859375 564.65625 l 1
 106.788085938 578.510742188 l 1
 106.998046875 578.817382812 l 1
 107.250976562 579.08984375 l 1
 116.71875 589.287109375 l 1
 124.143554688 597.330078125 l 1
 124.143554688 604.125 l 1
 124.143554688 612.875 l 1
 124.143554688 614.709960938 l 1
 125.331054688 616.110351562 l 1
 145.772460938 640.201171875 l 1
 166.452471231 663.563476562 l 1
 168.025019112 665.270507812 l 1
 170.413647398 665.270507812 l 1
 178.855043313 665.270507812 l 1
 183.733025173 665.270507812 l 1
 186.957262235 672.928710938 l 1
 190.745766478 683.7265625 l 1
 191.945219666 687.145507812 l 1
 195.738862954 687.145507812 l 1
 207.25032457 687.145507812 l 1
 217.472913609 687.145507812 l 1
 253.205723837 704.829101562 l 1
 290.081457754 722.346679688 l 1
 290.887260067 722.73046875 l 1
 291.782481769 722.836914062 l 1
 297.921585362 723.565429688 l 1
 298.246373029 723.603515625 l 1
 298.574244123 723.603515625 l 1
 304.713347715 723.603515625 l 1
 308.505963194 723.603515625 l 1
 309.705416382 720.184570312 l 1
 313.493920625 709.38671875 l 1
 316.718157687 701.728515625 l 1
 323.899459679 701.728515625 l 1
 334.643147918 701.728515625 l 1
 339.905530371 701.728515625 l 1
 339.905530371 696.728515625 l 1
 339.905530371 689.4375 l 1
 339.905530371 682.145507812 l 1
 339.905530371 677.83984375 l 1
 335.423255004 677.201171875 l 1
 304.790433396 672.834960938 l 1
 278.51141102 668.46484375 l 1
 278.51141102 662.458007812 l 1
 278.51141102 658.38671875 l 1
 274.314866576 657.561523438 l 1
 252.059716721 653.186523438 l 1
 231.435699864 649.1328125 l 1
 221.065106319 638.62109375 l 1
 220.948963893 638.50390625 l 1
 220.824598996 638.393554688 l 1
 208.546391811 627.456054688 l 1
 207.02831781 626.103515625 l 1
 204.948032247 626.103515625 l 1
 196.505608522 626.103515625 l 1
 191.117833362 626.103515625 l 1
 177.256800205 603.055664062 l 1
 161.139648438 577.490234375 l 1
 159.682617188 575.0625 l 1
 156.852539062 575.0625 l 1
 150.290039062 575.0625 l 1
 148.727539062 575.0625 l 1
 148.727539062 565.478515625 l 1
 148.727539062 550.895507812 l 1
 148.727539062 545.895507812 l 1
 143.727539062 545.895507812 l 1
 136.435546875 545.895507812 l 1
 134.143554688 545.895507812 l 1
 134.143554688 534.125 l 1
 134.143554688 517.353515625 l 1
 134.143554688 515.282226562 l 1
 132.678710938 513.818359375 l 1
 125.387695312 506.52734375 l 1
 119.948242188 501.086914062 l 1
 108.551757812 434.848632812 l 1
 97.0419921875 367.228515625 l 1
 104.138671875 332.453125 l 1
 112.151367188 296.032226562 l 1
 112.268554688 295.501953125 l 1
 112.268554688 294.958007812 l 1
 112.268554688 270.895507812 l 1
 112.268554688 248.506835938 l 1
 121.329101562 241.2578125 l 1
 132.266601562 232.5078125 l 1
 134.143554688 231.006835938 l 1
 134.143554688 228.603515625 l 1
 134.143554688 208.1875 l 1
 134.143554688 190.506835938 l 1
 150.067382812 180.315429688 l 1
 168.644787983 168.649414062 l 1
 171.071445204 167.173828125 l 1
 171.071445204 164.4375 l 1
 171.071445204 154.958007812 l 1
 171.071445204 149.028320312 l 1
 215.916810673 134.149414062 l 1
 262.643066744 118.395507812 l 1
 275.55132089 118.395507812 l 1
 283.334918999 118.395507812 l 1
 283.334918999 125.791015625 l 1
 283.334918999 129.373046875 l 1
 286.90449991 130.525390625 l 1
 327.606767005 143.659179688 l 1
 368.708007812 156.784179688 l 1
 370.112304688 157.251953125 l 1
 371.543945312 156.880859375 l 1
 391.232421875 151.77734375 l 1
 410.919921875 146.672851562 l 1
 411.227539062 146.592773438 l 1
 411.227539062 214.75 l 1
 411.227539062 215.396484375 l 1
 411.391601562 216.022460938 l 1
 422.321289062 257.5546875 l 1
 432.05859375 296.505859375 l 1
 425.65625 308.670898438 l 1
 419.770507812 319.853515625 l 1
 395.877929688 319.853515625 l 1
 369.369140625 319.137695312 l 1
 337.930081333 313.37890625 l 1
 305.697988807 307.545898438 l 1
 303.692733306 307.18359375 l 1
 301.954708164 308.200195312 l 1
 291.978793302 314.033203125 l 1
 282.001850632 319.8671875 l 1
 277.608994654 322.435546875 l 1
 280.224768745 326.66015625 l 1
 287.955948591 339.147460938 l 1
 296.457985242 351.631835938 l 1
 297.432348243 353.063476562 l 1
 299.125149786 353.630859375 l 1
 325.23972271 362.388671875 l 1
 352.122069011 371.145507812 l 1
 352.897037052 371.3984375 l 1
 353.717228692 371.415039062 l 1
 388.4140625 372.14453125 l 1
 423.4140625 372.874023438 l 1
 426.576171875 372.939453125 l 1
 427.990234375 370.111328125 l 1
 431.497070312 363.09765625 l 1
 434.215820312 359.020507812 l 1
 454.143554688 359.020507812 l 1
 476.748046875 359.020507812 l 1
 482.228515625 359.020507812 l 1
 481.7265625 353.5625 l 1
 475.89453125 290.129882812 l 1
337.055415812 657.978515625 m 1
 337.055415812 665.270507812 l 1
 337.055415812 672.5625 l 1
 337.055415812 677.5625 l 1
 342.317798265 677.5625 l 1
 352.294740936 677.5625 l 1
 362.268554688 677.5625 l 1
 364.271484375 677.5625 l 1
 365.720703125 676.1796875 l 1
 381.71875 660.909179688 l 1
 397.715820312 646.365234375 l 1
 400.624023438 643.721679688 l 1
 398.741210938 640.271484375 l 1
 394.366210938 632.250976562 l 1
 394.286132812 632.103515625 l 1
 394.1953125 631.9609375 l 1
 389.090820312 623.940429688 l 1
 385.467773438 618.248046875 l 1
 381.076171875 623.37109375 l 1
 367.951171875 638.68359375 l 1
 367.869140625 638.780273438 l 1
 367.791015625 638.879882812 l 1
 356.616678087 652.978515625 l 1
 350.759194181 652.978515625 l 1
 342.317798265 652.978515625 l 1
 337.055415812 652.978515625 l 1
 337.055415812 657.978515625 l 1
EndSplineSet
Validated: 524293
EndChar

StartChar: zero
Encoding: 48 48 1
Width: 552
VWidth: 0
Flags: HW
LayerCount: 2
Fore
SplineSet
504.72265625 343.487304688 m 1
 478.920898438 307.57421875 l 1
 455.424804688 271.37890625 l 1
 455.424804688 241.314453125 l 1
 455.424804688 211.30859375 l 1
 455.424804688 209.84765625 l 1
 454.616210938 208.622070312 l 1
 415.02734375 148.575195312 l 1
 373.376722744 88.5263671875 l 1
 371.822543303 86.35546875 l 1
 369.044013567 86.35546875 l 1
 357.905387196 86.35546875 l 1
 348.730418554 86.35546875 l 1
 312.008078842 56.05859375 l 1
 275.410318559 26.052734375 l 1
 273.581451688 24.5322265625 l 1
 271.184829384 24.884765625 l 1
 209.050328333 33.896484375 l 1
 148.8671875 44.4111328125 l 1
 147.458984375 44.6669921875 l 1
 146.401367188 45.619140625 l 1
 111.358398438 77.162109375 l 1
 76.3173828125 110.20703125 l 1
 75.2470703125 111.215820312 l 1
 74.9072265625 112.635742188 l 1
 55.1142578125 195.189453125 l 1
 36.84375 277.743164062 l 1
 36.6953125 278.415039062 l 1
 36.7392578125 279.1015625 l 1
 44.34765625 399.120117188 l 1
 51.95703125 519.138671875 l 1
 51.9794921875 519.5 l 1
 52.0556640625 519.853515625 l 1
 62.70703125 569.360351562 l 1
 73.359375 618.868164062 l 1
 74.521484375 624.267578125 l 1
 79.83203125 622.522460938 l 1
 102.658203125 615.021484375 l 1
 102.796875 614.975585938 l 1
 102.93359375 614.921875 l 1
 122.315429688 607.278320312 l 1
 150.39453125 641.880859375 l 1
 180.300050968 679.336914062 l 1
 181.869547551 681.284179688 l 1
 184.463250429 681.284179688 l 1
 211.514346066 681.284179688 l 1
 237.200173693 681.284179688 l 1
 275.790183705 701.659179688 l 1
 314.938758864 722.329101562 l 2
 315.678066298 723.036132812 315.278799438 722.654296875 316.018106873 723.361328125 c 2
 316.618538877 723.935546875 l 1
 317.377248026 724.298828125 l 1
 320.560150336 725.8203125 l 1
 322.759692067 726.87109375 l 1
 325.008248656 725.921875 l 1
 379.025685073 703.452148438 l 1
 432.499023438 682.479492188 l 1
 434.321289062 681.76171875 l 1
 435.161132812 680.013671875 l 1
 462.552734375 623.001953125 l 1
 489.943359375 565.991210938 l 1
 490.346679688 565.150390625 l 1
 490.412109375 564.22265625 l 1
 498.022460938 456.1953125 l 1
 505.630859375 346.673828125 l 1
 505.751953125 344.920898438 l 1
 504.72265625 343.487304688 l 1
408.669921875 401.95703125 m 1
 398.598632812 429.294921875 l 1
 386.46875 458.103515625 l 1
 386.077148438 459.034179688 l 1
 386.077148438 460.043945312 l 1
 386.077148438 522.375 l 1
 384.558237116 583.959960938 l 1
 367.36627584 597.662109375 l 1
 347.799136261 612.056640625 l 1
 301.26871933 619.471679688 l 1
 255.043624116 628.314453125 l 1
 223.061429584 615.206054688 l 1
 192.686513921 603.586914062 l 1
 164.968611992 563.826171875 l 1
 138.090820312 522.577148438 l 1
 144.118164062 367.38671875 l 1
 148.637695312 212.209960938 l 1
 180.690127542 170.869140625 l 1
 212.884719791 129.81640625 l 1
 236.345477115 125.609375 l 1
 259.00463729 121.545898438 l 1
 285.688121496 148.482421875 l 1
 314.189240001 177.25390625 l 1
 341.151496209 209.10546875 l 1
 367.426523269 238.668945312 l 1
 387.745117188 321.24609375 l 1
 408.669921875 401.95703125 l 1
EndSplineSet
Validated: 524289
EndChar

StartChar: one
Encoding: 49 49 2
Width: 603
VWidth: 0
Flags: HW
LayerCount: 2
Fore
SplineSet
160.723676956 536.819335938 m 1
 182.507781814 536.819335938 l 1
 195.139071979 537.834960938 l 1
 297.817011348 661.348632812 l 1
 305.20014657 682.359375 l 1
 314.095221248 706.262695312 l 1
 378.471370885 706.262695312 l 1
 370.147586082 637.84375 l 1
 362.512799192 573.87890625 l 1
 347.145811864 197.373046875 l 1
 319.436730843 161.079101562 l 1
 297.043791304 131.344726562 l 1
 307.892210581 124.485351562 l 1
 322.075014457 116.647460938 l 1
 424.384765625 102.268554688 l 1
 525.251953125 88.767578125 l 1
 533.8984375 81.6669921875 l 1
 543.635742188 72.0712890625 l 1
 519.32421875 46.701171875 l 1
 495.669921875 24.68359375 l 1
 63.306640625 24.68359375 l 1
 37.736328125 66.68359375 l 1
 63.8955078125 92.46484375 l 1
 152.875 99.8759765625 l 1
 240.855453392 108.120117188 l 1
 250.843386321 121.8046875 l 1
 260.337148434 137.5625 l 1
 267.924243274 258.676757812 l 1
 276.863965829 381.028320312 l 1
 283.259774144 439.264648438 l 1
 290.177150836 490.653320312 l 1
 270.923768799 490.653320312 l 1
 190.584988571 437.076171875 l 1
 108.225585938 381.725585938 l 1
 50.0849609375 381.725585938 l 1
 50.0849609375 399.919921875 l 1
 61.7421875 422.896484375 l 1
 73.69921875 442.9296875 l 1
 80.8837890625 475.971679688 l 1
 87.7685546875 512.612304688 l 1
 160.723676956 512.612304688 l 1
 160.723676956 536.819335938 l 1
EndSplineSet
Validated: 524289
EndChar

StartChar: two
Encoding: 50 50 3
Width: 714
VWidth: 0
Flags: HW
LayerCount: 2
Fore
SplineSet
80.400390625 518.953125 m 1
 70.2890625 535.149414062 l 1
 58.912109375 551.348632812 l 1
 57.7275390625 553.034179688 l 1
 58.1064453125 555.05078125 l 1
 64.47265625 588.94140625 l 1
 70.8388671875 621.576171875 l 1
 71.150390625 623.171875 l 1
 72.3642578125 624.272460938 l 1
 104.182617188 653.126953125 l 1
 136.000976562 681.98046875 l 1
 137.435546875 683.282226562 l 1
 139.385742188 683.282226562 l 1
 161.022460938 683.282226562 l 1
 181.663493719 683.282226562 l 1
 197.925068835 702.4453125 l 1
 214.18664395 721.608398438 l 1
 215.942994598 723.708984375 l 1
 218.714751172 723.427734375 l 1
 281.665897227 717.1484375 l 1
 343.306063747 709.614257812 l 1
 344.906584773 709.418945312 l 1
 346.103959484 708.3828125 l 1
 386.69204669 673.279296875 l 1
 428.590108077 638.17578125 l 1
 429.322004627 637.5625 l 1
 429.770391798 636.735351562 l 1
 448.113046387 602.861328125 l 1
 466.456706329 568.98828125 l 1
 467.033778608 567.920898438 l 1
 467.033778608 566.71875 l 1
 467.033778608 502.734375 l 1
 467.033778608 440.00390625 l 1
 467.033778608 435.075195312 l 1
 461.886374306 435.075195312 l 1
 448.784621792 435.075195312 l 1
 440.829268229 435.075195312 l 1
 440.829268229 417.420898438 l 1
 440.829268229 394.837890625 l 1
 440.829268229 392.888671875 l 1
 439.437860504 391.466796875 l 1
 400.156731421 351.346679688 l 1
 362.213726387 311.3828125 l 1
 362.213726387 294.469726562 l 1
 362.213726387 276.905273438 l 1
 362.213726387 274.7109375 l 1
 360.509654064 273.2421875 l 1
 308.100633306 228.076171875 l 1
 257.394679518 184.37890625 l 1
 257.394679518 163.991210938 l 1
 257.394679518 146.194335938 l 1
 430.573668368 141.317382812 l 1
 606.405273438 137.553710938 l 1
 608.862304688 137.5 l 1
 610.3203125 135.549804688 l 1
 628.174804688 111.6640625 l 1
 646.02734375 86.5234375 l 1
 646.930664062 85.25 l 1
 646.930664062 83.697265625 l 1
 646.930664062 68.640625 l 1
 646.930664062 53.5859375 l 1
 646.930664062 48.451171875 l 1
 641.7265625 48.6611328125 l 1
 485.240710623 54.9345703125 l 1
 324.534123682 62.44140625 l 1
 218.865554033 48.701171875 l 1
 113.5546875 34.9306640625 l 1
 97.19921875 31.2099609375 l 1
 79.3427734375 27.3837890625 l 1
 73.984375 26.2353515625 l 1
 73.3310546875 31.6767578125 l 1
 69.5009765625 63.1376953125 l 1
 66.947265625 94.5986328125 l 1
 66.67578125 97.94140625 l 1
 69.73046875 99.4169921875 l 1
 134.65625 130.788085938 l 1
 201.538305371 162.161132812 l 1
 203.213222474 162.932617188 l 1
 205.016824684 162.5 l 1
 215.498628836 159.991210938 l 1
 215.783143566 159.922851562 l 1
 216.057604772 159.82421875 l 1
 216.057604772 159.82421875 213.698042682 166.375 213.334105113 167.3515625 c 2
 206.782223504 184.915039062 l 1
 205.950797066 187.142578125 l 1
 207.245690961 189.15625 l 1
 238.707189055 238.108398438 l 1
 270.168687148 285.8046875 l 1
 270.611042205 286.474609375 l 1
 271.249440981 286.977539062 l 1
 293.537098399 304.551757812 l 1
 312.611649537 319.391601562 l 1
 312.611649537 340.881835938 l 1
 312.611649537 363.463867188 l 1
 312.611649537 366.217773438 l 1
 315.061693343 367.661132812 l 1
 332.015956264 377.651367188 l 1
 346.633780201 386.982421875 l 1
 369.60005049 426.07421875 l 1
 391.227191379 463.8359375 l 1
 391.227191379 507.736328125 l 1
 391.227191379 552.22265625 l 1
 359.841094716 584.678710938 l 1
 328.61283838 616.971679688 l 1
 244.385419426 616.971679688 l 1
 160.895507812 616.971679688 l 1
 138.176757812 588.68359375 l 1
 112.973632812 558.872070312 l 1
 101.744140625 539.192382812 l 1
 101.6875 539.09375 l 1
 101.625976562 538.997070312 l 1
 88.8984375 518.924804688 l 1
 84.6259765625 512.185546875 l 1
 80.400390625 518.953125 l 1
EndSplineSet
Validated: 524289
EndChar

StartChar: three
Encoding: 51 51 4
Width: 585
VWidth: 0
Flags: HW
LayerCount: 2
Fore
SplineSet
97.408203125 633.234375 m 1
 115.131835938 639.141601562 l 1
 131.296875 645.607421875 l 1
 131.296875 665.555664062 l 1
 131.296875 688.889648438 l 1
 131.296875 693.034179688 l 1
 135.370117188 693.802734375 l 1
 205.42987535 706.763671875 l 1
 275.842184922 719.724609375 l 1
 276.257413199 719.80078125 l 1
 276.679782994 719.8125 l 1
 324.082120673 721.109375 l 1
 372.835225524 722.405273438 l 1
 374.613463575 722.452148438 l 1
 376.0519694 721.451171875 l 1
 405.781089775 701.052734375 l 1
 434.298828125 681.9296875 l 1
 436.801757812 680.248046875 l 1
 436.448242188 677.282226562 l 1
 428.6640625 612.073242188 l 1
 419.583007812 546.866210938 l 1
 419.354492188 545.223632812 l 1
 418.165039062 544.051757812 l 1
 394.278144263 521.052734375 l 1
 370.077579252 498.219726562 l 1
 370.077579252 488.762695312 l 1
 370.077579252 477.263671875 l 1
 370.077579252 474.473632812 l 1
 367.541320046 473.038085938 l 1
 320.096133257 446.178710938 l 1
 275.281065628 422.018554688 l 1
 275.281065628 406.991210938 l 1
 275.281065628 391.299804688 l 1
 309.761336092 379.681640625 l 1
 345.943328339 367.038085938 l 1
 395.552395167 358.184570312 l 1
 443.950195312 350.528320312 l 1
 445.256835938 350.319335938 l 1
 446.288085938 349.499023438 l 1
 486.541992188 317.501953125 l 1
 525.497070312 284.225585938 l 1
 527.22265625 282.751953125 l 1
 527.22265625 280.501953125 l 1
 527.22265625 249.838867188 l 1
 527.22265625 219.172851562 l 1
 527.22265625 214.245117188 l 1
 522.22265625 214.245117188 l 1
 509.259765625 214.245117188 l 1
 501.296875 214.245117188 l 1
 501.296875 194.8984375 l 1
 501.296875 170.622070312 l 1
 501.296875 168.810546875 l 1
 500.106445312 167.430664062 l 1
 478.055664062 141.861328125 l 1
 454.72265625 115.030273438 l 1
 453.666015625 113.813476562 l 1
 452.084960938 113.443359375 l 1
 368.801287914 94.28515625 l 1
 282.15834773 73.8486328125 l 1
 281.533974989 73.7021484375 l 1
 280.891238344 73.7021484375 l 1
 251.097844305 73.7021484375 l 1
 223.468330304 73.7021484375 l 1
 212.809104165 63.6455078125 l 1
 212.605060786 63.453125 l 1
 212.378572635 63.2822265625 l 1
 198.836213546 53.0615234375 l 1
 197.766006021 52.2529296875 l 1
 196.413198416 52.044921875 l 1
 139.64453125 43.09375 l 1
 85.15234375 35.4208984375 l 1
 81.232421875 34.861328125 l 1
 79.7890625 38.548828125 l 1
 68.1220703125 67.8720703125 l 1
 56.4560546875 97.1953125 l 1
 55.9365234375 98.501953125 l 1
 56.1962890625 99.8828125 l 1
 62.673828125 134.2890625 l 1
 69.1533203125 169.970703125 l 1
 69.5830078125 172.337890625 l 1
 71.74609375 173.458007812 l 1
 96.375 186.20703125 l 1
 121.004882812 198.956054688 l 1
 128.333984375 202.75 l 1
 128.333984375 194.604492188 l 1
 128.333984375 155.08203125 l 1
 128.333984375 121.752929688 l 1
 153.149414062 121.752929688 l 1
 181.398666345 121.752929688 l 1
 192.103802243 130.709960938 l 1
 192.204803716 130.793945312 l 1
 192.309886057 130.874023438 l 1
 205.852245146 141.07421875 l 1
 206.616387601 141.649414062 l 1
 207.549886062 141.92578125 l 1
 254.948142874 155.94921875 l 1
 302.347419902 169.97265625 l 1
 302.695313864 170.075195312 l 1
 303.054430212 170.131835938 l 1
 351.806514846 177.78125 l 1
 399.09560845 185.202148438 l 1
 429.486328125 211.0546875 l 1
 456.05078125 233.915039062 l 1
 430.951171875 253.235351562 l 1
 403.249931654 275.387695312 l 1
 347.745031379 284.096679688 l 1
 290.865898945 293.021484375 l 1
 289.826297927 293.184570312 l 1
 288.935648576 293.71484375 l 1
 237.474888081 324.3125 l 1
 187.292459358 354.149414062 l 1
 176.614869315 354.149414062 l 1
 164.815429688 354.149414062 l 1
 162.412109375 354.149414062 l 1
 160.911132812 355.995117188 l 1
 145.35546875 375.120117188 l 1
 129.799804688 394.243164062 l 1
 127.349609375 397.255859375 l 1
 129.741210938 400.313476562 l 1
 142.704101562 416.88671875 l 1
 142.8359375 417.055664062 l 1
 142.981445312 417.211914062 l 1
 157.241210938 432.510742188 l 1
 157.865234375 433.1796875 l 1
 158.690429688 433.5859375 l 1
 209.441368189 457.787109375 l 1
 260.264493123 482.96875 l 1
 304.43274324 520.76953125 l 1
 346.088199139 557.534179688 l 1
 346.088199139 597.474609375 l 1
 346.088199139 634.629882812 l 1
 290.37109375 634.629882812 l 1
 231.845331244 634.629882812 l 1
 210.387109252 610.465820312 l 1
 187.364894757 584.5390625 l 1
 185.800902255 582.77734375 l 1
 183.385028643 582.77734375 l 1
 146.666992188 582.77734375 l 1
 111.666992188 582.77734375 l 1
 108.8359375 582.77734375 l 1
 107.37890625 585.205078125 l 1
 99.6630859375 598.06640625 l 1
 94.2587890625 606.172851562 l 1
 79.9326171875 600.034179688 l 1
 79.7412109375 599.952148438 l 1
 79.5439453125 599.88671875 l 1
 60.1005859375 593.405273438 l 1
 53.51953125 591.2109375 l 1
 53.51953125 598.1484375 l 1
 53.51953125 620.185546875 l 1
 53.51953125 642.22265625 l 1
 53.51953125 649.608398438 l 1
 60.376953125 646.865234375 l 1
 79.68359375 639.141601562 l 1
 97.408203125 633.234375 l 1
EndSplineSet
Validated: 524289
EndChar

StartChar: P
Encoding: 80 80 5
Width: 599
VWidth: 0
Flags: HW
LayerCount: 2
Fore
SplineSet
219.36019436 663.174804688 m 1
 294.837681434 678.63671875 l 1
 295.310201572 678.625976562 l 1
 295.792861627 678.63671875 l 1
 335.44196555 679.544921875 l 1
 376.030025798 680.454101562 l 1
 376.909156612 680.473632812 l 1
 377.746713766 680.454101562 l 1
 439.014648438 661.356445312 l 1
 499.03515625 641.36328125 l 1
 500.35546875 640.922851562 l 1
 501.2578125 641.36328125 l 1
 527.595703125 610.422851562 l 1
 554.840820312 579.545898438 l 1
 556.091796875 578.127929688 l 1
 556.091796875 579.545898438 l 1
 556.091796875 547.7265625 l 1
 556.091796875 515 l 1
 556.091796875 511.435546875 l 1
 555.516601562 510.342773438 l 1
 528.234375 460.836914062 l 1
 500.952148438 409.911132812 l 1
 500.170898438 408.453125 l 1
 498.673828125 407.748046875 l 1
 436.8828125 378.669921875 l 1
 373.669453092 349.579101562 l 1
 373.252702499 349.387695312 l 1
 372.808574129 349.26953125 l 1
 334.992767221 339.25390625 l 1
 297.175946322 330.149414062 l 1
 296.555383395 330 l 1
 295.916568616 330 l 1
 265.710769507 330 l 1
 238.559113435 330 l 1
 235.323465882 324.389648438 l 1
 235.151087291 324.091796875 l 1
 234.938149031 323.818359375 l 1
 229.27500532 316.544921875 l 1
 228.09674695 315.032226562 l 1
 226.173204673 314.6484375 l 1
 198.799484416 309.194335938 l 1
 175.748410827 304.600585938 l 1
 180.278925796 201.849609375 l 1
 185.809236593 101.016601562 l 1
 192.131474917 96.95703125 l 1
 200.627711472 91.501953125 l 1
 203.163704744 89.8740234375 l 1
 202.923388708 83.181640625 l 1
 200.092323848 48.646484375 l 1
 197.261258988 13.181640625 l 1
 196.979369292 14.1005859375 l 1
 193.434454267 13.181640625 l 1
 168.801553608 6.8388671875 l 1
 144.942382812 1.36328125 l 1
 141.401367188 0.5458984375 l 1
 139.53125 1.36328125 l 1
 128.66796875 19.62109375 l 1
 116.899414062 37.7265625 l 1
 115.279296875 40.21875 l 1
 116.6953125 42.4892578125 l 1
 128.512695312 64.3076171875 l 1
 139.3984375 84.404296875 l 1
 128.9609375 124.139648438 l 1
 118.950195312 166.818359375 l 1
 118.8125 167.405273438 l 1
 118.818359375 166.91796875 l 1
 120.637695312 348.711914062 l 1
 123.365234375 530.454101562 l 1
 123.3828125 529.40234375 l 1
 123.931640625 530.454101562 l 1
 134.83984375 551.36328125 l 1
 134.900390625 551.249023438 l 1
 134.967773438 551.36328125 l 1
 142.328125 561.36328125 l 1
 129.272460938 561.36328125 l 1
 108.94921875 561.36328125 l 1
 99.529296875 551.436523438 l 1
 87.69921875 536.875976562 l 1
 84.3017578125 532.212890625 l 1
 80.384765625 535.911132812 l 1
 64.0703125 551.229492188 l 1
 46.8486328125 566.638671875 l 1
 45.1826171875 568.12890625 l 1
 45.1826171875 574.090820312 l 1
 45.1826171875 591.36328125 l 1
 45.1826171875 607.727539062 l 1
 45.1826171875 607.727539062 l 1
 60.1826171875 607.727539062 l 1
 59.2724609375 607.727539062 l 1
 86.7109375 607.727539062 l 1
 113.608398438 628.606445312 l 1
 141.833984375 648.63671875 l 1
 142.708007812 648.428710938 l 1
 143.758789062 648.63671875 l 1
 219.36019436 663.174804688 l 1
178.676818891 372.036132812 m 1
 187.196377255 367.560546875 l 1
 227.79457742 376.249023438 l 1
 271.238038329 385.344726562 l 1
 315.539336227 394.422851562 l 1
 358.099610355 404.224609375 l 1
 413.072157029 436.528320312 l 1
 467.586914062 469.623046875 l 1
 479.721679688 484.090820312 l 1
 491.544921875 500.981445312 l 1
 491.544921875 536.818359375 l 1
 491.544921875 563.096679688 l 1
 474.19140625 572.518554688 l 1
 453.32421875 583.40625 l 1
 452.345703125 583.916992188 l 1
 451.673828125 586.17578125 l 1
 442.642578125 597.763671875 l 1
 434.922664431 605.19140625 l 1
 375.791737746 609.56640625 l 1
 314.931955191 613.173828125 l 1
 282.346317534 609.609375 l 1
 250.002009905 606.049804688 l 1
 227.017859769 597.497070312 l 1
 204.153360655 589.02734375 l 1
 194.640090413 575.196289062 l 1
 183.95971571 558.912109375 l 1
 177.440762994 468.30078125 l 1
 171.041461299 376.715820312 l 1
 178.676818891 372.036132812 l 1
EndSplineSet
Validated: 524293
EndChar

StartChar: four
Encoding: 52 52 6
Width: 711
VWidth: 0
Flags: HW
LayerCount: 2
Fore
SplineSet
659.624023438 295.685546875 m 1
 631.504882812 289.6640625 l 1
 604.61328125 282.436523438 l 1
 603.803710938 282.21875 l 1
 602.96484375 282.274414062 l 1
 547.702148438 285.904296875 l 1
 496.630246169 289.181640625 l 1
 497.839649894 165.022460938 l 1
 499.099153193 34.3408203125 l 1
 499.147248784 29.369140625 l 1
 493.968956779 29.369140625 l 1
 458.68783453 29.369140625 l 1
 422.14620699 29.369140625 l 1
 418.051067783 29.369140625 l 1
 417.143263496 33.2607421875 l 1
 410.83873306 59.90234375 l 1
 404.533200632 87.751953125 l 1
 404.400937755 88.333984375 l 1
 404.417971611 88.9296875 l 1
 406.938982192 179.70703125 l 1
 410.492044005 265.006835938 l 1
 359.542780873 261.745117188 l 1
 303.927243387 256.998046875 l 1
 283.466577222 246.59765625 l 1
 260.832591522 234.521484375 l 1
 259.89472749 234.021484375 l 1
 258.826604565 233.923828125 l 1
 179.435813075 226.6640625 l 1
 100.081054688 219.405273438 l 1
 98.2666015625 219.237304688 l 1
 96.7685546875 220.259765625 l 1
 64.9267578125 241.9765625 l 1
 31.8623046875 262.48828125 l 1
 29.5263671875 263.9375 l 1
 29.5263671875 266.65625 l 1
 29.5263671875 293.274414062 l 1
 29.5263671875 318.682617188 l 1
 29.5263671875 319.8671875 l 1
 30.072265625 320.921875 l 1
 60.7734375 380.208007812 l 1
 90.9296875 438.438476562 l 1
 90.9296875 450.564453125 l 1
 90.9296875 450.788085938 l 1
 90.9501953125 451.010742188 l 1
 92.1787109375 464.318359375 l 1
 92.2626953125 465.225585938 l 1
 92.669921875 466.04296875 l 1
 125.827148438 532.588867188 l 1
 159.231656731 599.134765625 l 1
 160.640456761 601.889648438 l 1
 163.836809605 601.889648438 l 1
 182.737375024 601.889648438 l 1
 197.333385016 601.889648438 l 1
 200.362405281 618.366210938 l 1
 202.676003625 631.702148438 l 1
 190.915629541 627.466796875 l 1
 169.570204894 619.02734375 l 1
 160.598373119 615.479492188 l 1
 162.597346136 624.596679688 l 1
 167.637363315 647.584960938 l 1
 172.677380495 670.57421875 l 1
 173.636286348 674.94921875 l 1
 178.263483035 674.455078125 l 1
 212.284099993 670.825195312 l 1
 240.60939734 667.803710938 l 1
 240.60939734 681.659179688 l 1
 240.60939734 699.806640625 l 1
 240.60939734 704.806640625 l 1
 245.739593753 704.806640625 l 1
 264.641161164 704.806640625 l 1
 283.540724592 704.806640625 l 1
 288.670921006 704.806640625 l 1
 288.670921006 699.806640625 l 1
 288.670921006 688.916992188 l 1
 288.670921006 678.02734375 l 1
 288.670921006 675.7421875 l 1
 286.85431044 674.266601562 l 1
 270.403614206 660.8984375 l 1
 253.947908015 648.481445312 l 1
 238.029269261 599.094726562 l 1
 220.377185234 547.029296875 l 1
 220.082599737 546.159179688 l 1
 219.481404845 545.448242188 l 1
 203.047742466 526.026367188 l 1
 187.55194412 508.85546875 l 1
 180.219370418 467.780273438 l 1
 171.381805502 426.559570312 l 1
 171.099243903 425.244140625 l 1
 170.161379871 424.248046875 l 1
 146.296875 398.828125 l 1
 123.317382812 373.921875 l 1
 127.911132812 342.243164062 l 1
 131.174804688 311.154296875 l 1
 176.756487839 307.836914062 l 1
 226.163686072 305.46484375 l 1
 319.779750703 334.232421875 l 1
 410.8928406 362.232421875 l 1
 417.022022526 484.662109375 l 1
 423.322544996 609.294921875 l 1
 423.560016979 613.982421875 l 1
 428.446729461 613.982421875 l 1
 453.647817351 613.982421875 l 1
 478.84890524 613.982421875 l 1
 483.716579884 613.982421875 l 1
 483.972087713 609.314453125 l 1
 490.272610184 494.362304688 l 1
 496.32764474 383.876953125 l 1
 576.504882812 380.442382812 l 1
 658.78515625 376.8125 l 1
 663.561523438 376.6015625 l 1
 663.561523438 371.890625 l 1
 663.561523438 336.80078125 l 1
 663.561523438 300.5 l 1
 663.561523438 296.529296875 l 1
 659.624023438 295.685546875 l 1
447.34729488 302.930664062 m 1
 451.281113458 306.763671875 l 1
 456.59868228 311.947265625 l 1
 452.54262074 323.806640625 l 1
 450.8171914 329.271484375 l 1
 446.627864993 322.634765625 l 1
 438.828363258 311.233398438 l 1
 443.414478294 306.763671875 l 1
 447.34729488 302.930664062 l 1
EndSplineSet
Validated: 524289
EndChar

StartChar: five
Encoding: 53 53 7
Width: 579
VWidth: 0
Flags: HW
LayerCount: 2
Fore
SplineSet
61.072265625 447.459960938 m 1
 72.14453125 453.522460938 l 1
 81.158203125 459.444335938 l 1
 84.7587890625 518.595703125 l 1
 88.2431640625 575.807617188 l 1
 71.380859375 578.740234375 l 1
 56 581.415039062 l 1
 56 568.809570312 l 1
 56 549.098632812 l 1
 56 544.170898438 l 1
 51 544.170898438 l 1
 38.5 544.170898438 l 1
 26.0009765625 544.170898438 l 1
 21.0009765625 544.170898438 l 1
 21.0009765625 549.098632812 l 1
 21.0009765625 572.504882812 l 1
 21.0009765625 595.912109375 l 1
 21.0009765625 596.805664062 l 1
 21.3193359375 597.641601562 l 1
 28.818359375 617.353515625 l 1
 36.3193359375 637.064453125 l 1
 37.5361328125 640.26171875 l 1
 41.0009765625 640.26171875 l 1
 61.0009765625 640.26171875 l 1
 77.83984375 640.26171875 l 1
 100.177734375 659.959960938 l 1
 121 678.200195312 l 1
 121 693.234375 l 1
 121 709.25 l 1
 121 714.25 l 1
 126 714.25 l 1
 136 714.25 l 1
 146.205059009 714.25 l 1
 148.360890819 714.25 l 1
 149.885524348 712.78515625 l 1
 165.495738842 698.001953125 l 1
 180.904701709 683.411132812 l 1
 320.588576382 682.197265625 l 1
 459.795898438 680.965820312 l 1
 462.109375 680.944335938 l 1
 463.590820312 679.192382812 l 1
 488.590820312 649.625 l 1
 513.590820312 620.057617188 l 1
 514.499023438 618.984375 l 1
 514.700195312 617.600585938 l 1
 515.950195312 608.9765625 l 1
 516 608.629882812 l 1
 516 608.279296875 l 1
 516 598.423828125 l 1
 516 593.49609375 l 1
 511 593.49609375 l 1
 356.969381654 593.49609375 l 1
 198.472545654 593.49609375 l 1
 181.475931072 583.149414062 l 1
 164.22927659 573.350585938 l 1
 159.203068056 500.775390625 l 1
 154.363881234 430.875976562 l 1
 161.816289925 430.875976562 l 1
 173.749088346 430.875976562 l 1
 220.921249737 450.192382812 l 1
 270.38341069 469.913085938 l 1
 271.841976766 470.494140625 l 1
 273.396086543 470.208007812 l 1
 320.165744683 461.59765625 l 1
 366.932353556 454.216796875 l 1
 368.034155386 454.04296875 l 1
 368.963165417 453.456054688 l 1
 396.2734375 436.208007812 l 1
 422.5234375 418.9609375 l 1
 423.5859375 418.262695312 l 1
 424.178710938 417.147460938 l 1
 451.6796875 365.404296875 l 1
 479.178710938 313.661132812 l 1
 479.932617188 312.244140625 l 1
 479.697265625 310.661132812 l 1
 472.188476562 260.092773438 l 1
 463.428710938 209.524414062 l 1
 463.287109375 208.706054688 l 1
 462.880859375 207.978515625 l 1
 435.404296875 158.7421875 l 1
 409.176757812 109.505859375 l 1
 408.71484375 108.637695312 l 1
 407.951171875 108.010742188 l 1
 377.174841605 83.33984375 l 1
 344.607653 58.6689453125 l 1
 344.005930967 58.212890625 l 1
 343.290369631 57.9423828125 l 1
 304.164207584 43.1220703125 l 1
 263.73499208 29.5380859375 l 1
 262.967593204 29.2763671875 l 1
 262.152422477 29.251953125 l 1
 219.219758719 28.001953125 l 1
 176.286078538 26.751953125 l 1
 174.937286076 26.712890625 l 1
 173.7379077 27.30859375 l 1
 136.170898438 45.8046875 l 1
 101.138671875 64.2998046875 l 1
 100.24609375 64.771484375 l 1
 99.6103515625 65.5478515625 l 1
 73.3310546875 97.61328125 l 1
 47.0537109375 130.911132812 l 1
 46 132.24609375 l 1
 46 133.936523438 l 1
 46 172.206054688 l 1
 47.25390625 210.475585938 l 1
 47.681640625 223.536132812 l 1
 56.1103515625 213.44921875 l 1
 91.1015625 171.57421875 l 1
 125.97265625 130.095703125 l 1
 205.074208836 125.303710938 l 1
 286.200975343 120.501953125 l 1
 315.803259945 145.02734375 l 1
 348.327758811 172.129882812 l 1
 350.85458478 174.235351562 l 1
 353.919098173 172.916992188 l 1
 368.045336032 166.8359375 l 1
 374.201806223 164.716796875 l 1
 370.017195396 197.404296875 l 1
 364.81311295 238.057617188 l 1
 364.618976281 239.579101562 l 1
 365.3701124 240.9375 l 1
 379.725045288 266.887695312 l 1
 393.942761158 290.448242188 l 1
 379.721996021 315.134765625 l 1
 364.567138741 341.444335938 l 1
 337.970415036 363.030273438 l 1
 312.385031573 383.795898438 l 1
 249.656526072 376.668945312 l 1
 186.332397073 368.274414062 l 1
 148.520469128 333.663085938 l 1
 110.725585938 297.936523438 l 1
 108.950195312 296.245117188 l 1
 106.5078125 296.606445312 l 1
 81.5078125 300.301757812 l 1
 56.5078125 303.998046875 l 1
 52.087890625 304.651367188 l 1
 52.25390625 309.053710938 l 1
 54.7548828125 375.62109375 l 1
 58.5078125 443.420898438 l 1
 58.658203125 446.137695312 l 1
 61.072265625 447.459960938 l 1
EndSplineSet
Validated: 524289
EndChar

StartChar: six
Encoding: 54 54 8
Width: 465
VWidth: 0
Flags: HW
LayerCount: 2
Fore
SplineSet
214.416179071 687.548828125 m 1
 202.396238155 683.3359375 l 1
 199.365470352 667.6015625 l 1
 195.886401479 643.95703125 l 1
 195.25078212 635.307617188 l 1
 179.771766979 635.307617188 l 1
 189.718578531 635.307617188 l 1
 173.885973813 635.307617188 l 1
 173.885973813 618.384765625 l 1
 173.885973813 590.384765625 l 1
 173.885973813 586.96875 l 1
 173.3166525 585.913085938 l 1
 156.331054688 553.333984375 l 1
 139.463867188 525.1796875 l 1
 125.598632812 441.987304688 l 1
 110.983398438 361.606445312 l 1
 113.439453125 359.150390625 l 2
 116.857421875 355.733398438 162.694232292 381.280273438 168.520041513 383.830078125 c 2
 230.026737954 410.752929688 l 1
 231.46319561 411.381835938 l 1
 233.036458758 411.186523438 l 1
 285.3182557 404.71875 l 1
 334.979492188 397.170898438 l 1
 335.9921875 397.013671875 l 1
 336.861328125 396.470703125 l 1
 354.153320312 385.662109375 l 1
 370.369140625 374.852539062 l 1
 371.270507812 374.251953125 l 1
 371.841796875 373.33203125 l 1
 396.637695312 333.443359375 l 1
 420.35546875 293.555664062 l 1
 421.239257812 292.068359375 l 1
 421.015625 290.353515625 l 1
 414.545898438 240.752929688 l 1
 406.998046875 193 l 1
 406.33984375 193 l 1
 412.057617188 193 l 1
 382.365234375 193 l 1
 387.672851562 193 l 1
 387.672851562 174.692382812 l 1
 387.672851562 155.307617188 l 1
 387.672851562 156.805664062 l 1
 385.90625 155.307617188 l 1
 336.388671875 113.325195312 l 1
 286.915722896 71.3076171875 l 1
 286.465317125 71.5693359375 l 1
 285.94124686 71.3076171875 l 1
 255.734594428 56.2470703125 l 1
 226.687631621 42.23046875 l 1
 225.518470848 42.23046875 l 1
 234.978044381 42.23046875 l 1
 207.126551096 42.23046875 l 1
 158.057617188 42.23046875 l 1
 163.109910515 42.23046875 l 1
 163.109910515 42.23046875 l 1
 163.109910515 53 l 1
 163.109910515 63.76953125 l 1
 164.187516845 63.76953125 l 1
 130.057617188 63.76953125 l 1
 137.94140625 63.76953125 l 1
 136.467773438 63.76953125 l 1
 102.0078125 99.3076171875 l 1
 66.4697265625 135.922851562 l 1
 65.220703125 137.209960938 l 1
 65.07421875 135.922851562 l 1
 54.306640625 266.87890625 l 1
 42.4619140625 398.243164062 l 1
 42.3837890625 399.104492188 l 1
 42.599609375 399.94140625 l 1
 59.826171875 466.69140625 l 1
 76.904296875 533.932617188 l 1
 76.904296875 552.692382812 l 1
 76.904296875 571 l 1
 76.904296875 569.944335938 l 1
 77.431640625 571 l 1
 100.046875 616.23046875 l 1
 122.662109375 661.4609375 l 1
 122.981445312 660.9375 l 1
 123.465820312 661.4609375 l 1
 150.420898438 690.50390625 l 1
 178.53946521 718.538085938 l 1
 180.129565956 718.538085938 l 1
 193.199752104 718.538085938 l 1
 234.978044381 718.538085938 l 1
 256.363899687 718.538085938 l 1
 268.972104216 718.538085938 l 1
 270.424347121 718.538085938 l 1
 285.595023732 707.709960938 l 1
 299.602853669 697 l 1
 301.51953125 695.500976562 l 1
 301.51953125 697 l 1
 301.51953125 688.384765625 l 1
 301.51953125 679.76953125 l 1
 301.51953125 670.435546875 l 1
 296.865691498 669.857421875 l 1
 262.136039061 665.559570312 l 1
 227.409543674 660.211914062 l 1
 221.135433383 659.2421875 l 1
 221.135433383 670.076171875 l 1
 221.135433383 686.23046875 l 1
 221.135433383 689.626953125 l 1
 214.416179071 687.548828125 l 1
328.961914062 302.243164062 m 1
 311.33984375 330.229492188 l 1
 294.903058875 338.220703125 l 1
 278.063355273 346.034179688 l 1
 239.328458998 337.818359375 l 1
 198.721432194 329.204101562 l 1
 168.643166455 322.763671875 l 1
 143.586914062 316.138671875 l 1
 137.4921875 259.24609375 l 1
 131.223632812 202.529296875 l 1
 153.870117188 169.587890625 l 1
 177.620763719 138.626953125 l 1
 201.137627637 132.727539062 l 1
 224.820762843 127.732421875 l 1
 252.122929464 138.581054688 l 1
 279.772371562 150.828125 l 1
 307.48828125 186.857421875 l 1
 333.8515625 221.966796875 l 1
 340.123046875 250.192382812 l 1
 347.087890625 276.060546875 l 1
 328.961914062 302.243164062 l 1
EndSplineSet
Validated: 524325
EndChar

StartChar: seven
Encoding: 55 55 9
Width: 564
VWidth: 0
Flags: HW
LayerCount: 2
Fore
SplineSet
346.92056315 383.314453125 m 1
 364.336363429 465.59375 l 1
 374.123839492 527.25 l 1
 383.930666444 589.025390625 l 1
 383.990756048 589.409179688 l 1
 384.115009126 589.778320312 l 1
 390.584960938 609.340820312 l 1
 394.407226562 621.270507812 l 1
 356.127512537 615.345703125 l 1
 308.185175313 608.139648438 l 1
 307.908152057 608.09765625 l 1
 307.62705493 608.083984375 l 1
 198.666271722 602.935546875 l 1
 92.0205078125 597.788085938 l 1
 90.666015625 597.721679688 l 1
 89.4638671875 598.337890625 l 1
 63.2763671875 611.7578125 l 1
 37.0888671875 626.208984375 l 1
 35.0205078125 627.350585938 l 1
 34.6083984375 629.651367188 l 1
 31.4931640625 647.048828125 l 1
 27.3369140625 665.474609375 l 1
 25.9697265625 671.537109375 l 1
 32.271484375 671.470703125 l 1
 130.48046875 670.44140625 l 1
 230.778563114 669.415039062 l 1
 288.146820314 676.575195312 l 1
 342.641979701 683.506835938 l 1
 347.654878471 689.822265625 l 1
 352.92952348 698.794921875 l 1
 354.367600088 701.240234375 l 1
 357.325230732 701.327148438 l 1
 392.139648438 702.358398438 l 1
 424.578125 702.358398438 l 1
 444.495117188 711.321289062 l 1
 465.390625 720.724609375 l 1
 466.369140625 721.165039062 l 1
 467.442382812 721.165039062 l 1
 486.1015625 721.165039062 l 1
 503.715820312 722.201171875 l 1
 509.009765625 722.512695312 l 1
 509.009765625 717.209960938 l 1
 509.009765625 710 l 1
 509.009765625 701.76171875 l 1
 509.009765625 701.044921875 l 1
 508.802734375 700.357421875 l 1
 497.33203125 662.326171875 l 1
 486.905273438 623.267578125 l 1
 485.923828125 619.592773438 l 1
 482.069335938 619.592773438 l 1
 472.666015625 619.592773438 l 1
 467.217773438 619.592773438 l 1
 467.217773438 599.8046875 l 1
 467.217773438 575.087890625 l 1
 467.217773438 571.884765625 l 1
 464.248046875 570.583984375 l 1
 454.845703125 566.46484375 l 1
 454.625976562 566.368164062 l 1
 454.396484375 566.29296875 l 1
 447.828125 564.134765625 l 1
 421.174804688 412.556640625 l 1
 394.040039062 258.244140625 l 1
 384.470454406 168.844726562 l 1
 375.756443459 78.2470703125 l 1
 375.636264253 77 l 1
 374.901948931 75.958984375 l 1
 357.468834699 51.2412109375 l 1
 340.034701998 26.525390625 l 1
 338.042578879 23.66015625 l 1
 334.540067934 24.4228515625 l 1
 310.569408556 29.572265625 l 1
 310.42987846 29.6015625 l 1
 310.293403768 29.638671875 l 1
 287.410468056 35.81640625 l 1
 283.054481051 36.9921875 l 1
 283.677783376 41.232421875 l 1
 289.116401709 78.23046875 l 1
 293.466277907 115.228515625 l 1
 293.4886842 115.415039062 l 1
 293.525349043 115.598632812 l 1
 312.049242345 208.26171875 l 1
 330.571098712 300.91796875 l 1
 346.92056315 383.314453125 l 1
EndSplineSet
Validated: 524289
EndChar

StartChar: eight
Encoding: 56 56 10
Width: 504
VWidth: 0
Flags: HW
LayerCount: 2
Fore
SplineSet
164.811416654 666.071289062 m 1
 198.143165944 674.693359375 l 1
 231.478040183 683.314453125 l 1
 232.136362804 683.487304688 l 1
 232.820726668 683.499023438 l 1
 307.486178374 684.749023438 l 1
 378.411132812 685.999023438 l 1
 380.663085938 686.0390625 l 1
 382.185546875 684.37890625 l 1
 409.678710938 654.803710938 l 1
 438.428710938 623.989257812 l 1
 439.709960938 622.616210938 l 1
 439.748046875 620.75 l 1
 440.999023438 559.120117188 l 1
 442.248046875 496.259765625 l 1
 442.2890625 494.211914062 l 1
 440.845703125 492.73828125 l 1
 405.84375 456.9921875 l 1
 369.594726562 420.015625 l 1
 368.403320312 418.80078125 l 1
 366.70703125 418.561523438 l 1
 340.45703125 414.86328125 l 1
 317.451641215 411.666015625 l 1
 314.16002811 395.442382812 l 1
 311.037162258 379.083984375 l 1
 338.395507812 372.776367188 l 1
 370.874023438 365.385742188 l 1
 374.75 364.50390625 l 1
 374.75 360.581054688 l 1
 374.75 348.255859375 l 1
 374.75 335.930664062 l 1
 374.75 331 l 1
 369.75 331 l 1
 351 331 l 1
 337.249023438 331 l 1
 337.249023438 328.538085938 l 1
 337.249023438 322.880859375 l 1
 361.154296875 293.4609375 l 1
 386.153320312 262.69140625 l 1
 386.803710938 261.890625 l 1
 387.076171875 260.901367188 l 1
 399.572265625 215.379882812 l 1
 412.067382812 171.088867188 l 1
 412.5703125 169.305664062 l 1
 411.755859375 167.638671875 l 1
 380.48046875 103.587890625 l 1
 347.954101562 40.7685546875 l 1
 347.049804688 39.0205078125 l 1
 345.171875 38.3642578125 l 1
 305.3643379 24.826171875 l 1
 264.030635485 11.2880859375 l 1
 263.16502457 11 l 1
 262.24733117 11 l 1
 226.248958605 11 l 1
 190.24850274 11 l 1
 189.354767283 11 l 1
 188.509989362 11.2734375 l 1
 150.547851562 23.6142578125 l 1
 114.225585938 37.189453125 l 1
 112.869140625 37.6962890625 l 1
 111.999023438 38.83984375 l 1
 78.2763671875 83.1455078125 l 1
 43.3037109375 127.451171875 l 1
 42.25 128.786132812 l 1
 42.25 130.4765625 l 1
 42.25 156.341796875 l 1
 42.25 182.206054688 l 1
 42.25 182.87109375 l 1
 42.4287109375 183.512695312 l 1
 56.1787109375 232.779296875 l 1
 69.927734375 282.046875 l 1
 70.2783203125 283.302734375 l 1
 71.2138671875 284.223632812 l 1
 127.46484375 339.649414062 l 1
 182.096552056 392.2578125 l 1
 169.734253216 409.90625 l 1
 155.482421875 432.130859375 l 1
 154.749023438 433.313476562 l 1
 154.749023438 434.69921875 l 1
 154.749023438 449.479492188 l 1
 154.749023438 461.176757812 l 1
 138.42578125 479.55859375 l 1
 122.119140625 499.334960938 l 1
 121.319335938 500.3046875 l 1
 121.0859375 501.533203125 l 1
 113.58984375 540.918945312 l 1
 106.090820312 579.100585938 l 1
 105.701171875 581.086914062 l 1
 106.83984375 582.76953125 l 1
 134.338867188 623.415039062 l 1
 161.83984375 664.060546875 l 1
 162.908322621 665.579101562 l 1
 164.811416654 666.071289062 l 1
365.876953125 526.052734375 m 1
 362.265625 570.595703125 l 1
 358.875976562 612.415039062 l 1
 292.719751987 614.752929688 l 1
 220.555301252 617.213867188 l 1
 205.726375883 611.420898438 l 1
 191.582856027 605.30078125 l 1
 191.582856027 563.567382812 l 1
 192.866168478 519.001953125 l 1
 209.152361802 499.037109375 l 1
 225.219808684 479.338867188 l 1
 276.44710011 470.93359375 l 1
 324.857421875 463.926757812 l 1
 345.576171875 495.004882812 l 1
 365.876953125 526.052734375 l 1
327.249023438 198.569335938 m 1
 313.542329827 224.889648438 l 1
 297.82279395 250.680664062 l 1
 287.434421324 262.85546875 l 1
 275.3825341 276.666015625 l 1
 247.305907631 311.76171875 l 1
 222.228190697 343.5 l 1
 211.581488941 343.5 l 1
 204.914930753 343.5 l 1
 204.914930753 338.5 l 1
 204.914930753 329.75 l 1
 204.914930753 327.836914062 l 1
 203.552452924 326.412109375 l 1
 168.821768064 290.094726562 l 1
 135.771484375 256.245117188 l 1
 129.72265625 204.229492188 l 1
 124.930664062 152.705078125 l 1
 154.696289062 119.366210938 l 1
 187.185010922 86.0576171875 l 1
 235.438392407 87.248046875 l 1
 282.331379361 88.4365234375 l 1
 304.785180658 114.166015625 l 1
 327.249023438 140.28515625 l 1
 327.249023438 169.75 l 1
 327.249023438 198.569335938 l 1
EndSplineSet
Validated: 524289
EndChar

StartChar: nine
Encoding: 57 57 11
Width: 474
VWidth: 0
Flags: HW
LayerCount: 2
Fore
SplineSet
145.346679688 700.694335938 m 1
 145.346679688 710.416015625 l 1
 145.346679688 710.416015625 l 1
 160.346679688 710.416015625 l 1
 200.971743793 710.416015625 l 1
 220.49864446 710.416015625 l 1
 232.793556789 710.416015625 l 1
 234.017513608 710.416015625 l 1
 266.923858777 693.859375 l 1
 298.969726562 676.388671875 l 1
 301.458984375 674.943359375 l 1
 301.458984375 676.388671875 l 1
 301.458984375 660.833007812 l 1
 301.458984375 642.807617188 l 1
 312.256835938 633.553710938 l 1
 324.870117188 622.678710938 l 1
 361.629882812 615.138671875 l 1
 399.546875 607.360351562 l 1
 403.413085938 606.567382812 l 1
 403.5390625 607.360351562 l 1
 406.456054688 516.129882812 l 1
 409.372070312 423.768554688 l 1
 409.416992188 422.369140625 l 1
 408.727539062 421.150390625 l 1
 396.130859375 398.862304688 l 1
 386.533203125 380.467773438 l 1
 392.569335938 376.2421875 l 1
 403.170898438 369.49609375 l 1
 406.061523438 367.65625 l 1
 405.389648438 364.296875 l 1
 391.778320312 296.241210938 l 1
 378.2265625 228.483398438 l 1
 370.469726562 127.106445312 l 1
 361.717773438 24.9990234375 l 1
 361.63671875 25.85546875 l 1
 361.208007812 24.9990234375 l 1
 360.39453125 23.375 l 1
 359.536132812 20.138671875 l 1
 358.396484375 20.138671875 l 1
 364.791992188 20.138671875 l 1
 335.625 20.138671875 l 1
 286.193196356 20.138671875 l 1
 291.458984375 20.138671875 l 1
 291.458984375 20.138671875 l 1
 291.458984375 55.138671875 l 1
 291.458984375 89.166015625 l 1
 291.458984375 92.8349609375 l 1
 292.069335938 93.9541015625 l 1
 303.735351562 115.344726562 l 1
 314.91796875 135.84375 l 1
 322.591796875 210.188476562 l 1
 329.392578125 287.918945312 l 1
 336.19921875 368.619140625 l 1
 342.541015625 442.916015625 l 1
 338.263671875 442.916015625 l 1
 330.0703125 442.916015625 l 1
 305.293945312 409.880859375 l 1
 277.020970382 374.846679688 l 1
 276.151428885 373.8203125 l 1
 274.848713105 373.313476562 l 1
 239.882927549 359.703125 l 1
 204.917141993 346.091796875 l 1
 203.896468436 345.694335938 l 1
 202.788521437 345.694335938 l 1
 157.153320312 345.694335938 l 1
 115.346679688 345.694335938 l 1
 113.322265625 345.694335938 l 1
 111.8671875 347.103515625 l 1
 80.7578125 377.2421875 l 1
 49.646484375 407.380859375 l 1
 48.125 408.853515625 l 1
 48.125 410.971679688 l 1
 48.125 463.471679688 l 1
 48.125 514.999023438 l 1
 48.125 517.830078125 l 1
 50.5517578125 519.286132812 l 1
 60.2744140625 525.12109375 l 1
 67.5703125 529.497070312 l 1
 67.5703125 549.999023438 l 1
 67.5703125 573.333007812 l 1
 67.5703125 572.258789062 l 1
 68.12109375 573.333007812 l 1
 87.5771484375 611.225585938 l 1
 107.034179688 648.194335938 l 1
 107.331054688 647.723632812 l 1
 107.759765625 648.194335938 l 1
 127.2421875 669.541015625 l 1
 145.346679688 688.55078125 l 1
 145.346679688 700.694335938 l 1
332.805664062 570.487304688 m 1
 326.337890625 573.874023438 l 1
 304.346679688 564.198242188 l 1
 278.183197205 552.586914062 l 1
 275.007295337 551.2421875 l 1
 272.352905504 554.073242188 l 1
 264.936791488 559.90625 l 1
 264.777144946 560.03125 l 1
 264.629205818 560.428710938 l 1
 257.212027492 567.235351562 l 1
 252.770660703 570.846679688 l 1
 257.796333834 574.305664062 l 1
 278.932471641 588.8515625 l 1
 292.442382812 598.506835938 l 1
 279.469948331 605.541015625 l 1
 260.342164019 616.327148438 l 1
 259.788722674 616.637695312 l 1
 259.331069255 617.7890625 l 1
 239.199640351 636.26171875 l 1
 221.714086797 651.098632812 l 1
 219.248079883 650.287109375 l 1
 193.617359774 643.377929688 l 1
 170.432424682 638.05859375 l 1
 163.571289062 628.049804688 l 1
 156.853515625 613.891601562 l 1
 141.315429688 578.044921875 l 1
 126.180664062 543.991210938 l 1
 126.180664062 532.499023438 l 1
 126.180664062 516.944335938 l 1
 126.180664062 514.11328125 l 1
 123.75390625 512.657226562 l 1
 114.03125 506.823242188 l 1
 106.736328125 502.446289062 l 1
 106.736328125 468.333007812 l 1
 106.736328125 432.819335938 l 1
 119.509765625 422.600585938 l 1
 132.037109375 411.86328125 l 1
 170.666572943 407.177734375 l 1
 211.434978134 401.704101562 l 1
 266.696096377 453.346679688 l 1
 319.189453125 505.877929688 l 1
 328.581054688 539.2890625 l 1
 337.307617188 567.8046875 l 1
 332.805664062 570.487304688 l 1
EndSplineSet
Validated: 524293
EndChar

StartChar: A
Encoding: 65 65 12
Width: 528
VWidth: 0
Flags: HW
LayerCount: 2
Fore
SplineSet
281.886879744 681.0234375 m 1
 292.523332893 711.53515625 l 1
 295.161479746 722.168945312 l 1
 297.852430952 732.318359375 l 1
 298.856749024 736.10546875 l 1
 302.995160709 736.10546875 l 1
 319.958817712 736.10546875 l 1
 337.813936426 736.10546875 l 1
 340.296776361 736.10546875 l 1
 341.886083826 734.306640625 l 1
 350.428710938 724.125976562 l 1
 358.91015625 713.247070312 l 1
 359.640625 712.309570312 l 1
 359.861328125 711.147460938 l 1
 385.124023438 578.19140625 l 1
 410.387695312 445.235351562 l 1
 410.416992188 445.080078125 l 1
 410.436523438 444.923828125 l 1
 419.69921875 370.13671875 l 1
 428.958984375 295.37890625 l 1
 436.538085938 237.209960938 l 1
 444.114257812 179.067382812 l 1
 453.373046875 113.4453125 l 1
 462.635742188 47.7978515625 l 1
 462.928710938 45.7197265625 l 1
 461.615234375 44.0693359375 l 1
 452.296875 32.365234375 l 1
 442.975585938 21.494140625 l 1
 441.477539062 19.7470703125 l 1
 439.158203125 19.7470703125 l 1
 424 19.7470703125 l 1
 408.841796875 19.7470703125 l 1
 404.9375 19.7470703125 l 1
 403.991210938 23.484375 l 1
 398.1015625 46.732421875 l 1
 392.212890625 69.1474609375 l 1
 392.086914062 69.6259765625 l 1
 392.059570312 70.119140625 l 1
 388.690429688 131.614257812 l 1
 385.424804688 192.049804688 l 1
 378.359375 199.021484375 l 1
 370.505859375 206.771484375 l 1
 272.476315871 209.211914062 l 1
 173.805689117 212.407226562 l 1
 169.648640602 200.157226562 l 1
 164.426757812 185.162109375 l 1
 164.380859375 185.024414062 l 1
 164.326171875 184.889648438 l 1
 157.58984375 168.270507812 l 1
 150.975585938 151.953125 l 1
 136.745117188 96.6103515625 l 1
 122.4296875 40.103515625 l 1
 121.483398438 36.3662109375 l 1
 117.579101562 36.3662109375 l 1
 110 36.3662109375 l 1
 107.420898438 36.3662109375 l 1
 107.420898438 25.51171875 l 1
 107.420898438 8.892578125 l 1
 107.420898438 7.525390625 l 1
 106.708007812 6.353515625 l 1
 89.0400390625 -22.7041015625 l 1
 71.3720703125 -52.9931640625 l 1
 69.9248046875 -55.4736328125 l 1
 67.052734375 -55.4736328125 l 1
 59.4736328125 -55.4736328125 l 1
 51.89453125 -55.4736328125 l 1
 46.89453125 -55.4736328125 l 1
 46.89453125 -50.4736328125 l 1
 46.89453125 -5 l 1
 46.89453125 40.6875 l 1
 46.89453125 43.4794921875 l 1
 49.322265625 44.916015625 l 1
 57.7431640625 49.900390625 l 1
 63.736328125 53.4482421875 l 1
 63.736328125 64.7763671875 l 1
 63.736328125 79.73046875 l 1
 63.736328125 80.9208984375 l 1
 64.287109375 81.9814453125 l 1
 81.1298828125 114.375976562 l 1
 97.4208984375 145.713867188 l 1
 97.4208984375 157.813476562 l 1
 97.4208984375 170.274414062 l 1
 97.4208984375 171.333007812 l 1
 97.861328125 172.297851562 l 1
 128.176757812 238.752929688 l 1
 158.344726562 304.880859375 l 1
 166.666015625 333.612304688 l 1
 175.580329504 362.686523438 l 1
 175.916827827 363.783203125 l 1
 176.736848356 364.630859375 l 1
 184.772428312 372.9375 l 1
 184.772428312 372.9375 190.136729273 379.844726562 190.782806053 380.671875 c 2
 195.966950988 416.037109375 l 1
 202.224784419 453.463867188 l 1
 202.31693319 454.017578125 l 1
 202.540575153 454.537109375 l 1
 209.682622638 471.150390625 l 1
 216.81328095 487.736328125 l 1
 226.634890467 510.99609375 l 1
 236.088940278 533.384765625 l 1
 236.088940278 549.065429688 l 1
 236.088940278 565.678710938 l 1
 236.088940278 566.891601562 l 1
 236.69360188 567.966796875 l 1
 256.335785535 602.856445312 l 1
 275.040950783 636.081054688 l 1
 273.794353918 640.721679688 l 1
 271.181056172 648.018554688 l 1
 270.621951266 649.577148438 l 1
 271.181056172 651.13671875 l 1
 281.886879744 681.0234375 l 1
334.298823174 570.665039062 m 1
 325.137785749 579.306640625 l 1
 315.976748325 587.947265625 l 1
 312.814699467 587.947265625 l 1
 309.00346769 587.947265625 l 1
 305.234686471 583.798828125 l 1
 304.968593951 583.506835938 l 1
 304.659015494 583.255859375 l 1
 300.259688187 579.700195312 l 1
 300.259688187 566.841796875 l 1
 300.259688187 552.526367188 l 1
 300.259688187 551.271484375 l 1
 299.631212857 550.165039062 l 1
 286.258251806 526.618164062 l 1
 273.475457046 503.309570312 l 1
 273.475457046 482.631835938 l 1
 273.475457046 461.579101562 l 1
 273.475457046 459.912109375 l 1
 272.415228483 458.579101562 l 1
 259.036055156 441.752929688 l 1
 247.511246434 427.000976562 l 1
 246.691225905 408.421875 l 1
 246.691225905 387.474609375 l 1
 246.691225905 386.625 l 1
 246.394072001 385.823242188 l 1
 227.630925504 335.260742188 l 1
 209.303673758 288.116210938 l 1
 226.845072497 275.16796875 l 1
 245.067750918 261.10546875 l 1
 310.137208194 261.10546875 l 1
 369.745117188 261.10546875 l 1
 364.279296875 329.809570312 l 1
 358.408203125 402.78125 l 1
 346.67578125 461.440429688 l 1
 334.40132574 520.388671875 l 1
 334.298823174 520.874023438 l 1
 334.298823174 521.369140625 l 1
 334.298823174 547.474609375 l 1
 334.298823174 570.665039062 l 1
EndSplineSet
Validated: 524289
EndChar

StartChar: B
Encoding: 66 66 13
Width: 543
VWidth: 0
Flags: HW
LayerCount: 2
Fore
SplineSet
162.114234656 685 m 1
 165.778303945 698.991210938 l 1
 170.433574559 716.768554688 l 1
 171.425798794 720.555664062 l 1
 175.515399302 720.555664062 l 1
 190.412060681 720.555664062 l 1
 204.378895432 720.555664062 l 1
 207.344316111 720.555664062 l 1
 208.86947728 718.127929688 l 1
 217.248146055 704.794921875 l 1
 217.351460125 704.630859375 l 1
 217.441476344 704.458984375 l 1
 223.463356832 692.961914062 l 1
 294.758248326 692.111328125 l 1
 368.313774419 691.221679688 l 1
 369.337708913 691.208984375 l 1
 370.279810481 690.830078125 l 1
 404.361328125 676.59765625 l 1
 437.272460938 662.368164062 l 1
 440.288085938 661.063476562 l 1
 440.288085938 657.778320312 l 1
 440.288085938 637.333984375 l 1
 440.288085938 620.4921875 l 1
 450.202148438 617.1875 l 1
 450.341796875 617.141601562 l 1
 450.477539062 617.086914062 l 1
 463.810546875 611.752929688 l 1
 466.954101562 610.495117188 l 1
 466.954101562 607.110351562 l 1
 466.954101562 556.444335938 l 1
 466.954101562 506.666992188 l 1
 466.954101562 505.8046875 l 1
 466.665039062 504.9921875 l 1
 452.44921875 465.0078125 l 1
 438.231445312 424.135742188 l 1
 437.727539062 422.6875 l 1
 436.498046875 421.770507812 l 1
 384.076171875 382.674804688 l 1
 332.407532041 344.7890625 l 1
 334.135229704 339.287109375 l 1
 336.217877687 333.323242188 l 1
 389.5078125 307.590820312 l 1
 441.9375 281.821289062 l 1
 442.720703125 281.436523438 l 1
 443.327148438 280.80859375 l 1
 469.104492188 254.141601562 l 1
 494.881835938 227.474609375 l 1
 496.475585938 225.826171875 l 1
 496.265625 223.541015625 l 1
 490.046875 156.018554688 l 1
 484.716796875 88.49609375 l 1
 484.606445312 87.1025390625 l 1
 483.790039062 85.9677734375 l 1
 467.750976562 63.693359375 l 1
 450.823242188 41.4189453125 l 1
 449.728515625 39.9794921875 l 1
 447.966796875 39.572265625 l 1
 413.30078125 31.572265625 l 1
 380.703125 24.0498046875 l 1
 376.462288087 16.982421875 l 1
 376.299645145 16.7236328125 l 1
 376.105291945 16.4853515625 l 1
 369.588322251 8.486328125 l 1
 368.067252727 6.6181640625 l 1
 365.589760874 6.5576171875 l 1
 257.585641409 3.890625 l 1
 149.861328125 1.2236328125 l 1
 148.03515625 1.17578125 l 1
 146.608398438 2.3173828125 l 1
 128.807617188 16.55859375 l 1
 110.140625 31.669921875 l 1
 107.92578125 33.4619140625 l 1
 108.33984375 36.28125 l 1
 118.11328125 102.915039062 l 1
 126.963867188 169.293945312 l 1
 131.400390625 320.1171875 l 1
 134.954101562 471.169921875 l 1
 134.954101562 542.190429688 l 1
 134.099609375 610.481445312 l 1
 127.603515625 614.379882812 l 1
 127.453125 614.469726562 l 1
 127.30859375 614.571289062 l 1
 120.318359375 619.46484375 l 1
 105.671875 615.609375 l 1
 88.7822265625 611.165039062 l 1
 87.5654296875 610.844726562 l 1
 86.3427734375 611.137695312 l 1
 64.12109375 616.470703125 l 1
 41.8984375 621.803710938 l 1
 35.7783203125 623.272460938 l 1
 38.5927734375 628.90234375 l 1
 51.955078125 655.627929688 l 1
 66.208984375 682.352539062 l 1
 67.62109375 685 l 1
 70.62109375 685 l 1
 117.732421875 685 l 1
 162.114234656 685 l 1
276.324358693 643.560546875 m 1
 247.746254895 641.80078125 l 1
 221.877843878 638.272460938 l 1
 200.605374603 635.37109375 l 1
 204.017807643 584.877929688 l 1
 207.742228716 529.766601562 l 1
 207.771893152 529.33203125 l 1
 207.721770485 528.8984375 l 1
 199.34310171 456.015625 l 1
 191.134236259 383.75 l 1
 200.593099664 366.512695312 l 1
 209.900572156 350.961914062 l 1
 244.485212769 356.59765625 l 1
 281.203646943 362.44140625 l 1
 285.545906612 369.349609375 l 1
 291.132026765 378.239257812 l 1
 291.916599949 379.48828125 l 1
 293.281164001 380.138671875 l 1
 315.667583989 390.826171875 l 1
 335.981585111 400.099609375 l 1
 370.594867248 443.581054688 l 1
 403.62109375 486.684570312 l 1
 403.62109375 539.221679688 l 1
 403.62109375 591.45703125 l 1
 393.4140625 613.571289062 l 1
 383.899414062 634.184570312 l 1
 345.201087206 639.155273438 l 1
 304.663101182 644.43359375 l 1
 276.324358693 643.560546875 l 1
411.151367188 94.126953125 m 1
 423.654296875 101.62890625 l 1
 433.884765625 108.9375 l 1
 434.732421875 159.708984375 l 1
 434.732421875 210.772460938 l 1
 418.55859375 225.328125 l 1
 401.137695312 241.877929688 l 1
 368.291270364 261.1875 l 1
 335.80666723 281.000976562 l 1
 277.480248782 285.3515625 l 1
 220.848794826 290.500976562 l 1
 205.657534911 279.221679688 l 1
 190.845775192 269.008789062 l 1
 186.328597643 191.362304688 l 1
 180.752706605 111.500976562 l 1
 180.752706605 94.0146484375 l 1
 181.55057764 78.7587890625 l 1
 196.346993684 68.556640625 l 1
 211.587353356 57.240234375 l 1
 271.91458686 61.5380859375 l 1
 332.283759739 66.77734375 l 1
 348.99711209 75.1767578125 l 1
 365.704326971 84.0380859375 l 1
 366.419342167 84.4169921875 l 1
 367.220281937 84.5703125 l 1
 389.768554688 88.9951171875 l 1
 411.151367188 94.126953125 l 1
EndSplineSet
Validated: 524289
EndChar

StartChar: C
Encoding: 67 67 14
Width: 489
VWidth: 0
Flags: HW
LayerCount: 2
Fore
SplineSet
141.21875 509.602539062 m 1
 128.844726562 474.798828125 l 1
 117.998046875 433.736328125 l 1
 106.5078125 393.139648438 l 1
 106.5078125 324.610351562 l 1
 106.5078125 257.310546875 l 1
 116.884765625 235.815429688 l 1
 127.7578125 214.0703125 l 1
 127.940429688 213.704101562 l 1
 128.061523438 213.3125 l 1
 138.184570312 180.608398438 l 1
 147.169921875 149.909179688 l 1
 178.46781454 118.946289062 l 1
 211.568874146 88.931640625 l 1
 261.808345436 80.6474609375 l 1
 312.71502851 72.38671875 l 1
 324.6640625 78.61328125 l 1
 338.716796875 85.638671875 l 1
 339.53125 86.046875 l 1
 340.4375 86.140625 l 1
 385.540039062 90.806640625 l 1
 429.873046875 95.47265625 l 1
 435.396484375 96.0537109375 l 1
 435.396484375 90.5 l 1
 435.396484375 72.6103515625 l 1
 435.396484375 54.7216796875 l 1
 435.396484375 51.0615234375 l 1
 431.908203125 49.955078125 l 1
 400.08984375 39.8662109375 l 1
 369.048828125 29.001953125 l 1
 368.24609375 28.7216796875 l 1
 367.396484375 28.7216796875 l 1
 290.200045643 28.7216796875 l 1
 209.053433182 27.9443359375 l 1
 207.81462579 27.9326171875 l 1
 206.694550573 28.42578125 l 1
 174.868023084 42.4375 l 1
 144.4296875 57.2265625 l 1
 143.676757812 57.59375 l 1
 143.083984375 58.1865234375 l 1
 112.75 88.5205078125 l 1
 82.4169921875 118.853515625 l 1
 80.9521484375 120.317382812 l 1
 80.9521484375 122.388671875 l 1
 80.9521484375 144.166992188 l 1
 80.9521484375 163.782226562 l 1
 67.6328125 185.98046875 l 1
 54.380859375 209.369140625 l 1
 53.7216796875 210.532226562 l 1
 53.73046875 211.868164062 l 1
 54.5078125 325.422851562 l 1
 55.28515625 438.978515625 l 1
 55.29296875 440.108398438 l 1
 55.7861328125 441.125976562 l 1
 68.2578125 466.846679688 l 1
 80.9521484375 491.489257812 l 1
 80.9521484375 503.5 l 1
 80.9521484375 515.944335938 l 1
 80.9521484375 517.845703125 l 1
 82.2158203125 519.266601562 l 1
 88.458984375 526.2890625 l 1
 94.7939453125 533.328125 l 1
 107.705078125 569.784179688 l 1
 121.727539062 606.3984375 l 1
 122.95703125 609.610351562 l 1
 126.396484375 609.610351562 l 1
 131.841796875 609.610351562 l 1
 134.40234375 609.610351562 l 1
 150.044921875 636.62890625 l 1
 166.354492188 666.140625 l 1
 166.7578125 666.870117188 l 1
 167.375976562 667.4296875 l 1
 184.477974237 682.216796875 l 1
 201.215008122 696.216796875 l 1
 210.193472215 703.7265625 l 1
 210.193472215 694.459960938 l 1
 217.747150199 701.479492188 l 1
 234.484184084 717.03515625 l 1
 236.059224186 718.5 l 1
 238.28781662 718.5 l 1
 270.087025201 718.5 l 1
 301.050905642 718.5 l 1
 301.829494512 718.5 l 1
 302.575510838 718.294921875 l 1
 337.751953125 708.168945312 l 1
 372.024414062 697.264648438 l 1
 373.595703125 696.764648438 l 1
 374.561523438 695.427734375 l 1
 384.659179688 681.446289062 l 1
 395.533203125 666.6875 l 1
 396.5078125 665.365234375 l 1
 396.5078125 663.721679688 l 1
 396.5078125 645.833984375 l 1
 396.5078125 627.944335938 l 1
 396.5078125 622.944335938 l 1
 391.5078125 622.944335938 l 1
 376.73046875 622.944335938 l 1
 361.174804688 622.944335938 l 1
 357.571289062 622.944335938 l 1
 356.431640625 626.36328125 l 1
 351.764648438 640.36328125 l 1
 351.713867188 640.515625 l 1
 351.672851562 640.671875 l 1
 348.385742188 653.162109375 l 1
 331.869140625 660.732421875 l 1
 313.662784462 669.021484375 l 1
 285.889962587 673.576171875 l 1
 260.029464253 677.818359375 l 1
 226.833839196 649.90234375 l 1
 193.456438331 621.836914062 l 1
 193.456438331 613.944335938 l 1
 193.456438331 603.833984375 l 1
 193.456438331 600.23046875 l 1
 189.778893061 599.090820312 l 1
 177.375058231 595.247070312 l 1
 168.73046875 591.892578125 l 1
 168.73046875 578.166992188 l 1
 168.73046875 561.055664062 l 1
 168.73046875 558.984375 l 1
 167.266601562 557.520507812 l 1
 160.266601562 550.520507812 l 1
 153.28515625 543.5390625 l 1
 141.21875 509.602539062 l 1
EndSplineSet
Validated: 524289
EndChar

StartChar: D
Encoding: 68 68 15
Width: 577
VWidth: 0
Flags: HW
LayerCount: 2
Fore
SplineSet
179.094597808 332.442382812 m 1
 174.607567133 524.93359375 l 1
 169.237142774 570.553710938 l 1
 165.192824335 611.01171875 l 1
 143.962890625 611.01171875 l 1
 118.900390625 611.01171875 l 1
 118.3671875 611.01171875 l 1
 117.846679688 611.124023438 l 1
 73.7529296875 620.634765625 l 1
 30.54296875 630.141601562 l 1
 26.6171875 631.004882812 l 1
 26.6171875 635.024414062 l 1
 26.6171875 647.123046875 l 1
 26.6171875 659.221679688 l 1
 26.6171875 664.221679688 l 1
 31.6171875 664.221679688 l 1
 44.580078125 664.221679688 l 1
 52.54296875 664.221679688 l 1
 52.54296875 673.048828125 l 1
 52.54296875 686.875976562 l 1
 52.54296875 692.778320312 l 1
 58.365234375 691.807617188 l 1
 99.9052734375 684.884765625 l 1
 140.116210938 677.184570312 l 1
 191.480386489 677.184570312 l 1
 242.698943024 677.184570312 l 1
 247.897765621 677.184570312 l 1
 247.897765621 672.184570312 l 1
 247.897765621 667 l 2
 247.897765621 663.734375 307.784749601 656.451171875 313.614132517 655.516601562 c 2
 382.775734778 645.150390625 l 1
 383.302724803 645.071289062 l 1
 383.801283767 644.891601562 l 1
 426.254882812 629.3203125 l 1
 467.77734375 612.883789062 l 1
 468.788085938 612.483398438 l 1
 469.541992188 611.700195312 l 1
 491.182617188 589.193359375 l 1
 511.958007812 566.6875 l 1
 513.284179688 565.250976562 l 1
 513.284179688 563.295898438 l 1
 513.284179688 541.69140625 l 1
 513.284179688 521.327148438 l 1
 520.479492188 507.733398438 l 1
 520.534179688 507.629882812 l 1
 520.584960938 507.5234375 l 1
 527.499023438 492.833007812 l 1
 528.09765625 491.559570312 l 1
 527.9453125 490.161132812 l 1
 516.7109375 387.326171875 l 1
 505.4765625 283.622070312 l 1
 505.37109375 282.647460938 l 1
 504.905273438 281.784179688 l 1
 481.572265625 238.57421875 l 1
 458.23828125 195.365234375 l 1
 457.81640625 194.583984375 l 1
 457.151367188 193.99609375 l 1
 434.641601562 174.083007812 l 1
 412.129882812 155.034179688 l 1
 410.966796875 154.049804688 l 1
 409.452148438 153.881835938 l 1
 401.419403081 153.018554688 l 1
 401.133061681 152.98828125 l 1
 400.845704885 152.98828125 l 1
 395.176754384 152.98828125 l 1
 382.312714641 138.296875 l 1
 367.891058908 122.690429688 l 1
 367.269637145 122.017578125 l 1
 366.444120978 121.595703125 l 1
 337.633302154 106.876953125 l 1
 308.821467935 93.0224609375 l 1
 307.723825898 92.494140625 l 1
 306.496213297 92.494140625 l 1
 287.627127295 92.494140625 l 1
 270.806093086 92.494140625 l 1
 258.957448381 81.857421875 l 1
 247.897765621 70.4609375 l 1
 247.897765621 33.54296875 l 1
 247.897765621 -6.2099609375 l 1
 247.897765621 -11.2099609375 l 1
 242.698943024 -11.2099609375 l 1
 224.727466236 -11.2099609375 l 1
 206.757004844 -11.2099609375 l 1
 203.48540203 -11.2099609375 l 1
 202.069941346 -8.3740234375 l 1
 191.249891815 13.3056640625 l 1
 182.697219405 32 l 1
 156.436057523 32 l 1
 128.407226562 32 l 1
 127.500976562 32 l 1
 126.651367188 32.318359375 l 1
 112.82421875 37.5029296875 l 1
 98.9970703125 42.6884765625 l 1
 95.7529296875 43.9052734375 l 1
 95.7529296875 47.3701171875 l 1
 95.7529296875 68.111328125 l 1
 95.7529296875 87.98828125 l 1
 95.7529296875 91.7734375 l 1
 99.3955078125 92.80078125 l 1
 133.157226562 102.322265625 l 1
 167.725219562 110.979492188 l 1
 169.398590585 111.391601562 l 1
 170.996822376 110.758789062 l 1
 186.10590055 104.775390625 l 1
 193.22585056 102.493164062 l 1
 190.036494744 115.272460938 l 1
 183.765414986 137.674804688 l 1
 183.601936385 138.258789062 l 1
 183.587720854 138.86328125 l 1
 179.094597808 332.442382812 l 1
412.790039062 577.760742188 m 1
 347.959869696 587.0546875 l 1
 282.359257835 596.561523438 l 1
 282.222179505 596.58203125 l 1
 282.08611657 596.608398438 l 1
 251.535926044 602.657226562 l 1
 227.46294047 607.423828125 l 1
 234.415350299 420.203125 l 1
 241.600285592 226.733398438 l 1
 243.388396255 205.237304688 l 1
 245.185645473 183.6328125 l 1
 245.195799424 183.509765625 l 1
 245.199861004 183.385742188 l 1
 246.095439428 154.942382812 l 1
 247.685548058 129.709960938 l 1
 256.187450716 126.564453125 l 1
 266.266261869 123.102539062 l 1
 300.917632955 145.048828125 l 1
 336.341719665 167.76171875 l 1
 336.341719665 172 l 1
 336.341719665 178.913085938 l 1
 336.341719665 183.913085938 l 1
 341.540542262 183.913085938 l 1
 353.221646786 183.913085938 l 1
 362.037306511 183.913085938 l 1
 399.205841897 215.504882812 l 1
 434.147460938 245.987304688 l 1
 434.147460938 257.5546875 l 1
 434.147460938 270.517578125 l 1
 434.147460938 272.588867188 l 1
 435.612304688 274.052734375 l 1
 445.118164062 283.559570312 l 1
 452.490234375 290.932617188 l 1
 460.9609375 379.021484375 l 1
 469.545898438 468.303710938 l 1
 464.444335938 504.008789062 l 1
 459.533203125 538.391601562 l 1
 435.926757812 557.928710938 l 1
 412.790039062 577.760742188 l 1
201.558182246 581.532226562 m 1
 201.558182246 585.0859375 l 1
 201.558182246 588.728515625 l 1
 197.069120781 588.728515625 l 2
 197.604233966 587.87109375 197.202137531 588.515625 197.736235321 587.658203125 c 2
 201.558182246 581.532226562 l 1
EndSplineSet
Validated: 524289
EndChar

StartChar: E
Encoding: 69 69 16
Width: 612
VWidth: 0
Flags: HW
LayerCount: 2
Fore
SplineSet
268.334351853 26.384765625 m 1
 203.322376139 26.384765625 l 1
 145.515625 21.0234375 l 1
 84.392578125 15.1083984375 l 1
 84.392578125 42.29296875 l 1
 102.340820312 53.0615234375 l 1
 102.340820312 90.23046875 l 1
 211.240171177 90.23046875 l 1
 214.091547041 102.633789062 l 1
 218.523653767 117.204101562 l 1
 203.715286239 340.926757812 l 1
 208.364554074 471.317382812 l 1
 214.0067027 603.131835938 l 1
 226.294991313 617.651367188 l 1
 200.58210596 622.354492188 l 1
 165.788856097 627.666015625 l 1
 60.7236328125 627.666015625 l 1
 45.8056640625 649.548828125 l 1
 30.5380859375 670.922851562 l 1
 36.623046875 681.874023438 l 1
 42.6474609375 691.512695312 l 1
 65.533203125 691.512695312 l 1
 69.9765625 672.623046875 l 1
 71.1572265625 676.33203125 l 1
 78.6533203125 700.961914062 l 1
 133.987304688 694.166015625 l 1
 184.951556373 687.938476562 l 1
 202.936536401 688.807617188 l 1
 221.538658001 690.606445312 l 1
 543.594726562 701.607421875 l 1
 537.71875 674.581054688 l 1
 532.051757812 652.858398438 l 1
 522.3984375 640.309570312 l 1
 510.13671875 625.594726562 l 1
 494.694335938 638.663085938 l 1
 483.77734375 647.240234375 l 1
 429.36789959 642.047851562 l 1
 370.931360245 636.66796875 l 1
 329.145522673 632.177734375 l 1
 289.789869419 628.794921875 l 1
 279.932775175 614.501953125 l 1
 268.827257068 600.4609375 l 1
 268.827257068 367.465820312 l 1
 286.235497594 363.806640625 l 1
 305.997158509 358.595703125 l 1
 461.521484375 365.771484375 l 1
 477.495117188 362.012695312 l 1
 493.857421875 357.921875 l 1
 520.4140625 315.0234375 l 1
 503.127929688 298.817382812 l 1
 486.57421875 282.263671875 l 1
 424.252997935 304.58984375 l 1
 286.10621098 304.58984375 l 1
 278.324772917 291.797851562 l 1
 270.80695834 277.237304688 l 1
 289.038390977 100.966796875 l 2
 289.769668386 100.259765625 289.787849316 100.2421875 290.519126724 99.53515625 c 2
 291.999862472 98.103515625 l 1
 391.320263247 88.412109375 l 1
 491.647460938 79.310546875 l 1
 496.651367188 75.556640625 l 1
 497.907226562 74.2998046875 l 1
 520.658203125 86.068359375 l 1
 550.822265625 102.155273438 l 1
 572.143554688 80.833984375 l 1
 566.126953125 12.654296875 l 1
 498.442382812 16.5224609375 l 1
 333.137246872 27.279296875 l 1
 268.334351853 26.384765625 l 1
255.451142807 72.28125 m 2
 254.918845578 73.138671875 255.112775498 72.8271484375 254.580478268 73.6845703125 c 2
 250.741271872 79.87109375 l 1
 238.965079456 72.28125 l 1
 243.234567864 72.28125 l 1
 255.451142807 72.28125 l 2
388.433535576 54.3330078125 m 1
 388.433535576 58.3076171875 l 1
 388.433535576 62.28125 l 1
 368.543598098 62.28125 l 1
 359.634942372 62.28125 l 1
 371.966663206 54.3330078125 l 1
 382.466150312 54.3330078125 l 1
 388.433535576 54.3330078125 l 1
EndSplineSet
Validated: 524289
EndChar

StartChar: F
Encoding: 70 70 17
Width: 636
VWidth: 0
Flags: HW
LayerCount: 2
Fore
SplineSet
195.402714837 146.435546875 m 1
 194.523429533 227.369140625 l 1
 184.853305587 350.969726562 l 1
 174.282745144 474.807617188 l 1
 169.875239428 555.151367188 l 1
 166.590761333 629.987304688 l 1
 124.490234375 624.693359375 l 1
 77.494140625 619.565429688 l 1
 76.6064453125 619.46875 l 1
 75.7392578125 619.685546875 l 1
 55.2744140625 624.802734375 l 1
 33.9560546875 629.918945312 l 1
 30.123046875 630.838867188 l 1
 30.123046875 634.78125 l 1
 30.123046875 647.584960938 l 1
 30.123046875 659.536132812 l 1
 30.123046875 666.256835938 l 1
 36.5595703125 664.325195312 l 1
 53.6318359375 659.203125 l 1
 64.2685546875 656.012695312 l 1
 64.2685546875 661.244140625 l 1
 64.2685546875 674.048828125 l 1
 64.2685546875 677.381835938 l 1
 67.345703125 678.6640625 l 1
 77.58984375 682.932617188 l 1
 77.8125 683.025390625 l 1
 78.04296875 683.096679688 l 1
 89.140625 686.510742188 l 1
 89.96875 686.765625 l 1
 90.833984375 686.7265625 l 1
 148.026367188 684.166015625 l 1
 204.48664858 681.748046875 l 1
 211.79488932 695.918945312 l 1
 211.865393296 696.055664062 l 1
 211.94395487 696.1875 l 1
 221.62918681 712.407226562 l 1
 223.118835109 714.90234375 l 1
 226.092088508 714.90234375 l 1
 234.015728242 714.90234375 l 1
 242.819660479 714.90234375 l 1
 247.976522743 714.90234375 l 1
 247.976522743 709.90234375 l 1
 247.976522743 692.830078125 l 1
 247.976522743 680.385742188 l 1
 254.677422088 679.88671875 l 1
 264.902513047 679.060546875 l 1
 280.234106288 679.885742188 l 1
 295.043970103 681.576171875 l 1
 300.803137765 682.233398438 l 1
 300.803137765 676.610351562 l 1
 300.803137765 663.8046875 l 1
 300.803137765 653.745117188 l 1
 307.953248159 649.333007812 l 1
 314.098173291 646.083007812 l 1
 321.05490135 652.829101562 l 1
 330.74013329 662.21875 l 1
 332.249925582 663.682617188 l 1
 334.386196063 663.682617188 l 1
 373.125109426 663.682617188 l 1
 409.702572316 663.682617188 l 1
 423.53847406 670.784179688 l 1
 438.506468223 678.467773438 l 1
 439.43712071 678.9453125 l 1
 440.486622756 679.03125 l 1
 512.474609375 685.00390625 l 1
 582.442382812 691.830078125 l 1
 586.33984375 692.209960938 l 1
 587.642578125 688.517578125 l 1
 592.763671875 674.005859375 l 1
 597.885742188 659.494140625 l 1
 598.874023438 656.693359375 l 1
 596.887695312 654.485351562 l 1
 581.522460938 637.411132812 l 1
 566.15625 620.337890625 l 1
 564.330078125 618.30859375 l 1
 561.635742188 618.748046875 l 1
 524.985351562 624.71484375 l 1
 494.025390625 629.03515625 l 1
 494.025390625 625.390625 l 1
 494.025390625 616 l 1
 494.025390625 611 l 1
 489.025390625 611 l 1
 384.570926374 611 l 1
 278.917696331 611 l 1
 277.993087042 611 l 1
 277.126895333 611.311523438 l 1
 253.27741456 619.875 l 1
 232.599605518 628.043945312 l 1
 227.096266571 622.708984375 l 1
 221.032924611 616.830078125 l 1
 230.304197491 560.446289062 l 1
 240.004537426 501.444335938 l 1
 246.179678548 450.989257812 l 1
 251.793809459 405.877929688 l 1
 366.081762196 405.877929688 l 1
 484.756835938 405.877929688 l 1
 487.501953125 405.877929688 l 1
 488.974609375 403.5625 l 1
 492.561523438 397.926757812 l 1
 492.561523438 402.584960938 l 1
 492.561523438 407.584960938 l 1
 497.561523438 407.584960938 l 1
 514.634765625 407.584960938 l 1
 531.708007812 407.584960938 l 1
 536.708007812 407.584960938 l 1
 536.708007812 402.584960938 l 1
 536.708007812 377.830078125 l 1
 536.708007812 353.073242188 l 1
 536.708007812 347.974609375 l 1
 531.610351562 348.07421875 l 1
 397.660493169 350.634765625 l 1
 263.672722261 353.98828125 l 1
 256.530669465 345.678710938 l 1
 248.975664807 336.154296875 l 1
 258.530967992 196.329101562 l 1
 268.216199932 53.7685546875 l 1
 268.298790304 52.5517578125 l 1
 267.795190474 51.435546875 l 1
 261.687531729 37.900390625 l 1
 256.453115091 24.3662109375 l 1
 255.069222757 20.787109375 l 1
 251.143158478 21.1435546875 l 1
 222.982863155 23.703125 l 1
 193.928174533 26.2646484375 l 1
 188.213323656 26.7685546875 l 1
 189.338365678 32.224609375 l 1
 192.860542892 49.2978515625 l 1
 196.276964142 65.859375 l 1
 195.402714837 146.435546875 l 1
EndSplineSet
Validated: 524289
EndChar

StartChar: H
Encoding: 72 72 18
Width: 552
VWidth: 0
Flags: HW
LayerCount: 2
Fore
SplineSet
116.545898438 309 m 1
 116.545898438 295.07421875 l 1
 121.518554688 243.69140625 l 1
 126.837890625 197.333007812 l 1
 133.211914062 197.333007812 l 1
 144.87890625 197.333007812 l 1
 149.87890625 197.333007812 l 1
 149.87890625 192.333007812 l 1
 149.87890625 172.333007812 l 1
 149.87890625 152.333007812 l 1
 149.87890625 151.078125 l 1
 149.287109375 149.971679688 l 1
 136.803710938 126.669921875 l 1
 124.87890625 103.616210938 l 1
 124.87890625 85.666015625 l 1
 124.87890625 66.5 l 1
 124.87890625 63.03515625 l 1
 121.634765625 61.818359375 l 1
 108.255859375 56.80078125 l 1
 94.04296875 51.78515625 l 1
 91.771484375 50.9833984375 l 1
 89.7294921875 52.259765625 l 1
 76.396484375 60.5927734375 l 1
 63.0625 68.92578125 l 1
 60.7392578125 70.3779296875 l 1
 60.712890625 73.1181640625 l 1
 59.8798828125 159.760742188 l 1
 58.212890625 246.419921875 l 1
 55.7138671875 441.436523438 l 1
 53.2138671875 637.26953125 l 1
 53.1669921875 640.920898438 l 1
 56.6318359375 642.076171875 l 1
 66.6318359375 645.41015625 l 1
 73.212890625 647.604492188 l 1
 73.212890625 670.666015625 l 1
 73.212890625 698.166015625 l 1
 73.212890625 700.465820312 l 1
 74.958984375 701.961914062 l 1
 80.5 706.711914062 l 1
 85.25 712.25390625 l 1
 86.74609375 714 l 1
 89.0458984375 714 l 1
 102.37890625 714 l 1
 115.711914062 714 l 1
 120.711914062 714 l 1
 120.711914062 709 l 1
 120.711914062 544.833007812 l 1
 120.711914062 384.865234375 l 1
 248.340084999 385.666015625 l 1
 383.781543428 387.33203125 l 1
 416.41796875 388.1640625 l 1
 443.759765625 388.866210938 l 1
 439.0546875 471.21484375 l 1
 434.0546875 558.71484375 l 1
 433.881835938 561.732421875 l 1
 436.473632812 563.287109375 l 1
 444.806640625 568.287109375 l 1
 450.100585938 571.463867188 l 1
 444.96484375 596.40625 l 1
 439.951171875 625.655273438 l 1
 439.513671875 628.206054688 l 1
 441.34375 630.03515625 l 1
 458.84375 647.53515625 l 1
 458.927734375 647.620117188 l 1
 459.015625 647.700195312 l 1
 477.348632812 664.366210938 l 1
 480.875976562 667.572265625 l 1
 484.247070312 664.202148438 l 1
 486.747070312 661.703125 l 1
 486.999023438 661.452148438 l 1
 487.211914062 661.166992188 l 1
 489.712890625 657.833007812 l 1
 490.666992188 656.561523438 l 1
 490.7109375 654.97265625 l 1
 499.043945312 355.805664062 l 1
 507.376953125 56.6396484375 l 1
 507.39453125 56.01953125 l 1
 507.259765625 55.4150390625 l 1
 503.92578125 40.4140625 l 1
 503.897460938 40.287109375 l 1
 503.86328125 40.1611328125 l 1
 499.697265625 25.162109375 l 1
 498.596679688 21.19921875 l 1
 494.49609375 21.5146484375 l 1
 472.84375 23.1806640625 l 1
 450.34375 24.8466796875 l 1
 445.76171875 25.185546875 l 1
 445.713867188 29.7802734375 l 1
 444.046875 187.280273438 l 1
 442.401367188 341.907226562 l 1
 440.510742188 343.797851562 l 1
 440.259765625 344.048828125 l 1
 440.045898438 344.333007812 l 2
 438.650390625 346.194335938 420.700195312 339.193359375 417.9296875 338.362304688 c 2
 393.708984375 331.6796875 l 1
 393.081054688 331.506835938 l 1
 392.4296875 331.5 l 1
 305.288435439 330.666992188 l 1
 218.102439823 329.004882812 l 1
 164.520507812 324.022460938 l 1
 116.545898438 319.453125 l 1
 116.545898438 309 l 1
89.87890625 405.666015625 m 1
 89.87890625 408.999023438 l 1
 89.87890625 412.333007812 l 1
 86.544921875 412.333007812 l 1
 83.212890625 412.333007812 l 1
 83.212890625 408.999023438 l 1
 83.212890625 405.666015625 l 1
 86.544921875 405.666015625 l 1
 89.87890625 405.666015625 l 1
EndSplineSet
Validated: 524289
EndChar

StartChar: I
Encoding: 73 73 19
Width: 522
VWidth: 0
Flags: HW
LayerCount: 2
Fore
SplineSet
204.166992188 130.409179688 m 1
 205.068359375 150.275390625 l 1
 203.251953125 371.049804688 l 1
 201.43359375 591.05078125 l 1
 201.392578125 596.091796875 l 1
 206.43359375 596.091796875 l 1
 220.979492188 596.091796875 l 1
 230.524414062 596.091796875 l 1
 230.524414062 623.818359375 l 1
 230.524414062 651.212890625 l 1
 179.44140625 647.916992188 l 1
 122.125976562 645.1875 l 1
 116.3359375 644.911132812 l 1
 116.913085938 650.678710938 l 1
 119.640625 677.953125 l 1
 122.368164062 705.225585938 l 1
 122.545898438 707.000976562 l 1
 123.807617188 708.262695312 l 1
 130.170898438 714.626953125 l 1
 137.443359375 721.899414062 l 1
 139.328125 723.78515625 l 1
 141.944335938 723.270507812 l 1
 197.360351562 712.369140625 l 1
 252.181640625 702.638671875 l 1
 287.301757812 716.618164062 l 1
 324.829101562 731.171875 l 1
 326.135742188 731.678710938 l 1
 327.536132812 731.501953125 l 1
 341.961914062 729.68359375 l 1
 356.38671875 727.865234375 l 1
 360.181640625 727.38671875 l 1
 360.88671875 723.830078125 l 1
 363.771484375 709.286132812 l 1
 366.65625 694.740234375 l 1
 367.26171875 691.68359375 l 1
 364.630859375 689.818359375 l 1
 310.794921875 651.649414062 l 1
 260 614.982421875 l 1
 260 442 l 1
 260 267.375976562 l 1
 273.162109375 230.939453125 l 1
 287.567382812 193.71875 l 1
 288.173828125 192.150390625 l 1
 287.661132812 190.55078125 l 1
 278.067382812 160.6171875 l 1
 270.715820312 135.137695312 l 1
 394.193359375 134.2734375 l 1
 441.154296875 133.455078125 l 1
 442.568359375 133.444335938 l 1
 443.767578125 132.6953125 l 1
 450.930664062 128.21875 l 1
 460.270507812 119.305664062 l 1
 463.336914062 117.6015625 l 1
 462.778320312 114.138671875 l 1
 458.243164062 86.0234375 l 1
 454.615234375 58.818359375 l 1
 454.037109375 54.4794921875 l 1
 449.659179688 54.4794921875 l 1
 414.205078125 54.4794921875 l 1
 378.75 54.4794921875 l 1
 373.75 54.4794921875 l 1
 373.75 59.4794921875 l 1
 373.75 69.48046875 l 1
 373.75 75.126953125 l 1
 286.823242188 70.8505859375 l 1
 193.858398438 66.3662109375 l 1
 165.153320312 50.6103515625 l 1
 136.71484375 34.24609375 l 1
 134.92578125 33.20703125 l 1
 132.924804688 33.7373046875 l 1
 101.930664062 41.9423828125 l 1
 71.845703125 51.05859375 l 1
 68.2958984375 52.134765625 l 1
 68.2958984375 55.84375 l 1
 68.2958984375 77.662109375 l 1
 68.2958984375 100.388671875 l 1
 68.2958984375 104.94140625 l 1
 72.8291015625 105.3671875 l 1
 101.934570312 108.095703125 l 1
 127.58984375 110.427734375 l 1
 204.166992188 130.409179688 l 1
163.706054688 682.909179688 m 2
 164.21875 682.909179688 163.314453125 683.998046875 163.055664062 684.428710938 c 2
 158.70703125 691.673828125 l 1
 158.70703125 687.000976562 l 1
 158.70703125 682.909179688 l 1
 163.706054688 682.909179688 l 2
EndSplineSet
Validated: 524289
EndChar

StartChar: J
Encoding: 74 74 20
Width: 522
VWidth: 0
Flags: HW
LayerCount: 2
Fore
SplineSet
120.888671875 654.348632812 m 1
 111.552734375 663.682617188 l 1
 104.633789062 669.90234375 l 1
 70.8203125 669.90234375 l 1
 70.8203125 708.622070312 l 1
 94.13671875 702.793945312 l 1
 107.35546875 699.315429688 l 1
 115.491210938 708.806640625 l 1
 126.344726562 722.62109375 l 1
 372.528320312 719.096679688 l 1
 372.528320312 696.975585938 l 1
 378.053710938 696.975585938 l 1
 377.159179688 700.258789062 l 1
 374.446289062 715.178710938 l 1
 413.043945312 719.137695312 l 1
 452.697265625 724.354492188 l 1
 438.627929688 668.077148438 l 1
 435.330078125 664.780273438 l 1
 433.259765625 664.780273438 l 2
 423.374023438 664.780273438 408.666992188 655.858398438 399.161132812 652.293945312 c 2
 367.962890625 640.594726562 l 1
 365.672851562 614.642578125 l 1
 362.107421875 583.439453125 l 1
 350.450195312 566.787109375 l 1
 362.260742188 406.494140625 l 1
 369.078125 351.951171875 l 1
 375.13671875 297.422851562 l 1
 359.650390625 209.663085938 l 1
 345.0390625 122.854492188 l 1
 319.62711015 66.4482421875 l 1
 293.271584479 47.7919921875 l 1
 267.253366495 27.7822265625 l 1
 129.233398438 40.07421875 l 1
 102.112304688 63.8046875 l 1
 86.712890625 63.8046875 l 1
 60.4638671875 87.337890625 l 1
 34.6826171875 112.197265625 l 1
 45.5029296875 195.151367188 l 1
 58.078125 205.791992188 l 1
 68.0166015625 215.754882812 l 1
 68.900390625 216.637695312 l 1
 89.7578125 222.987304688 l 1
 121.8828125 232.356445312 l 1
 106.689453125 204.731445312 l 1
 96.6201171875 185.5078125 l 1
 86.142578125 179.791992188 l 1
 82.3525390625 177.139648438 l 1
 99.6318359375 156.98046875 l 1
 114.396484375 128.317382812 l 1
 127.6796875 103.315429688 l 1
 223.083649341 91.662109375 l 1
 231.182137855 89.9638671875 l 1
 238.569796982 89.189453125 l 1
 262.061311383 90.6669921875 l 1
 277.014595655 122.028320312 l 1
 291.946151518 155.189453125 l 1
 291.946151518 207.3671875 l 1
 310.035569518 217.611328125 l 1
 310.035569518 371.153320312 l 1
 301.175551996 400.421875 l 1
 292.864952822 430.922851562 l 1
 287.47113391 663.396484375 l 1
 281.705862669 668.836914062 l 1
 202.771725486 661.387695312 l 1
 120.888671875 654.348632812 l 1
EndSplineSet
Validated: 524289
EndChar

StartChar: K
Encoding: 75 75 21
Width: 546
VWidth: 0
Flags: HW
LayerCount: 2
Fore
SplineSet
323.794788715 627.215820312 m 1
 343.677819971 642.69140625 l 1
 362.656517178 659.028320312 l 1
 364.158266002 660.3203125 l 1
 366.182496133 660.3203125 l 1
 383.217773438 660.3203125 l 1
 398.7734375 660.3203125 l 1
 403.7734375 660.3203125 l 1
 403.7734375 655.3203125 l 1
 403.7734375 621.6171875 l 1
 403.7734375 587.049804688 l 1
 403.7734375 585.094726562 l 1
 402.447265625 583.658203125 l 1
 392.009765625 572.349609375 l 1
 381.2265625 561.567382812 l 1
 368.142057654 538.114257812 l 1
 355.473169076 513.146484375 l 1
 355.109793079 512.431640625 l 1
 354.532908021 511.858398438 l 1
 290.050092303 447.920898438 l 1
 226.477769549 383.984375 l 1
 224.922643459 382.419921875 l 1
 222.659242121 382.419921875 l 1
 210.8505487 382.419921875 l 1
 205.205902914 382.419921875 l 1
 205.205902914 378.77734375 l 1
 205.205902914 370.135742188 l 1
 205.205902914 367.969726562 l 1
 203.54504878 366.48828125 l 1
 174.414406342 340.506835938 l 1
 145.778320312 315.391601562 l 1
 144.659179688 314.408203125 l 1
 143.18359375 314.197265625 l 1
 137.133789062 313.333984375 l 1
 136.782226562 313.284179688 l 1
 136.427734375 313.284179688 l 1
 134.514648438 313.284179688 l 1
 134.514648438 305.3203125 l 1
 134.514648438 292.357421875 l 1
 134.514648438 289.896484375 l 1
 138.565429688 289.563476562 l 1
 203.110845258 284.376953125 l 1
 268.5144188 279.192382812 l 1
 269.390011245 279.123046875 l 1
 270.194776165 278.786132812 l 1
 292.821604145 269.314453125 l 1
 315.449458611 260.704101562 l 1
 315.615749322 260.640625 l 1
 315.776907603 260.56640625 l 1
 364.864488279 238.08203125 l 1
 412.244140625 214.73046875 l 1
 413.463867188 214.12109375 l 1
 414.206054688 212.975585938 l 1
 423.747070312 198.229492188 l 1
 431.82421875 185.012695312 l 1
 437.662109375 185.012695312 l 1
 437.912109375 185.012695312 l 1
 438.16015625 184.98828125 l 1
 446.802734375 184.123046875 l 1
 449.084960938 183.89453125 l 1
 450.401367188 182.014648438 l 1
 474.612304688 147.42578125 l 1
 497.946289062 113.72265625 l 1
 498.834960938 112.438476562 l 1
 498.834960938 110.876953125 l 1
 498.834960938 97.0498046875 l 1
 498.834960938 84.0869140625 l 1
 498.834960938 78.5009765625 l 1
 493.283203125 79.1171875 l 1
 469.96875 81.70703125 l 1
 445.772460938 84.2998046875 l 1
 442.985351562 84.5986328125 l 1
 441.786132812 87.130859375 l 1
 426.263671875 119.897460938 l 1
 411.275390625 149.086914062 l 1
 398.7734375 149.086914062 l 1
 383.217773438 149.086914062 l 1
 380.717773438 149.086914062 l 1
 379.217773438 151.086914062 l 1
 368.447950443 164.772460938 l 1
 357.570279704 176.713867188 l 1
 325.984283071 189.234375 l 1
 294.167327118 202.20703125 l 1
 292.731273389 202.791992188 l 1
 291.864919317 204.029296875 l 1
 286.41427936 211.806640625 l 1
 286.344478321 211.905273438 l 1
 286.280836197 212.0078125 l 1
 282.17899867 218.51171875 l 1
 207.599667957 226.025390625 l 1
 135.505859375 232.732421875 l 1
 130.213867188 228.1015625 l 1
 124.865234375 223.420898438 l 1
 119.813476562 144.288085938 l 1
 115.494140625 63.080078125 l 1
 115.370117188 60.7470703125 l 1
 113.500976562 59.345703125 l 1
 99.7529296875 49.0341796875 l 1
 86.0009765625 37.859375 l 1
 84.623046875 36.740234375 l 1
 82.84765625 36.740234375 l 1
 70.748046875 36.740234375 l 1
 58.650390625 36.740234375 l 1
 53.22265625 36.740234375 l 1
 53.6669921875 42.1494140625 l 1
 58.8544921875 105.2734375 l 1
 64.884765625 167.291992188 l 1
 64.884765625 201.6171875 l 1
 64.884765625 236.163085938 l 1
 63.15625 433.422851562 l 1
 61.427734375 630.6171875 l 1
 61.416015625 631.951171875 l 1
 62.0869140625 633.110351562 l 1
 72.3876953125 650.91796875 l 1
 81.3046875 668.532226562 l 1
 81.3046875 688.708007812 l 1
 81.3046875 709.196289062 l 1
 81.3046875 712.588867188 l 1
 84.509765625 713.806640625 l 1
 95.7431640625 718.07421875 l 1
 95.849609375 718.114257812 l 1
 95.95703125 718.150390625 l 1
 106.328125 721.607421875 l 1
 112.821289062 723.772460938 l 1
 112.909179688 716.928710938 l 1
 115.500976562 517.221679688 l 1
 117.1875 323.284179688 l 1
 120.872070312 323.284179688 l 1
 124.514648438 323.284179688 l 1
 124.514648438 332.110351562 l 1
 124.514648438 345.938476562 l 1
 124.514648438 347.732421875 l 1
 125.655273438 349.1171875 l 1
 149.80078125 378.4375 l 1
 173.0859375 408.62109375 l 1
 173.178710938 408.741210938 l 1
 173.281165944 408.85546875 l 1
 223.242286094 463.30078125 l 1
 273.206485701 517.75 l 1
 298.584295806 545.340820312 l 1
 321.867048256 572.415039062 l 1
 321.867048256 596.555664062 l 1
 321.867048256 623.345703125 l 1
 321.867048256 625.71484375 l 1
 323.794788715 627.215820312 l 1
133.15625 284.580078125 m 1
 133.15625 287.357421875 l 1
 129.514648438 287.357421875 l 1
 120.872070312 287.357421875 l 1
 117.23046875 287.357421875 l 1
 117.23046875 279.39453125 l 1
 117.23046875 271.431640625 l 1
 125.193359375 271.431640625 l 1
 133.15625 271.431640625 l 1
 133.15625 275.938476562 l 1
 133.15625 284.580078125 l 1
EndSplineSet
Validated: 524289
EndChar

StartChar: L
Encoding: 76 76 22
Width: 530
VWidth: 0
Flags: HW
LayerCount: 2
Fore
SplineSet
119.053710938 29.4375 m 1
 109.713867188 21.494140625 l 1
 107.57421875 20.61328125 l 1
 104.931640625 21.494140625 l 1
 88.486328125 27.021484375 l 1
 72.8291015625 31.7197265625 l 1
 69.265625 32.7890625 l 1
 69.265625 31.7197265625 l 1
 69.265625 58.4609375 l 1
 69.265625 85.203125 l 1
 69.265625 92.166015625 l 1
 71.5810546875 93.6396484375 l 1
 80.314453125 99.296875 l 1
 87.193359375 103.310546875 l 1
 81.8583984375 195.334960938 l 1
 75.5615234375 294.194335938 l 1
 70.8408203125 481.313476562 l 1
 65.4169921875 661.55859375 l 1
 58.32421875 665.6953125 l 1
 48.0498046875 672.079101562 l 1
 43.44921875 674.91015625 l 1
 46.6259765625 680.595703125 l 1
 59.1669921875 697.837890625 l 1
 70.9208984375 715.203125 l 1
 72.4091796875 715.203125 l 1
 85.0517578125 715.203125 l 1
 92.130859375 715.203125 l 1
 79.2099609375 715.203125 l 1
 92.0634765625 715.203125 l 1
 93.5146484375 715.203125 l 1
 103.739257812 697.899414062 l 1
 103.806640625 697.786132812 l 1
 103.8671875 697.899414062 l 1
 113.305664062 679.809570312 l 1
 113.837890625 678.7890625 l 1
 113.87109375 679.809570312 l 1
 119.375 487.112304688 l 1
 125.653320312 294.9921875 l 1
 133.438476562 256.0703125 l 1
 141.303710938 217.725585938 l 1
 141.435546875 217.063476562 l 1
 141.387695312 215.764648438 l 1
 136.668945312 149.697265625 l 1
 132.375 94.2099609375 l 1
 194.023983593 100.651367188 l 1
 263.561890064 107.73046875 l 1
 263.881554956 107.791015625 l 1
 264.20327557 107.786132812 l 1
 318.011819224 106.999023438 l 1
 371.421875 106.212890625 l 1
 371.727539062 106.208007812 l 1
 372.030273438 106.119140625 l 1
 423.153320312 99.041015625 l 1
 474.27734375 91.9619140625 l 1
 478.008789062 91.4453125 l 1
 478.541992188 83.470703125 l 1
 480.901367188 66.9541015625 l 1
 483.260742188 50.4365234375 l 1
 483.81640625 50.4814453125 l 1
 480.166992188 49.0224609375 l 1
 468.369140625 44.3037109375 l 1
 456.571289062 39.5849609375 l 1
 455.25390625 39.3408203125 l 1
 453.854492188 39.5849609375 l 1
 404.303710938 48.236328125 l 1
 354.970631146 56.8271484375 l 1
 239.773066104 46.6630859375 l 1
 127.2578125 36.5693359375 l 1
 119.053710938 29.4375 l 1
EndSplineSet
Validated: 524293
EndChar

StartChar: M
Encoding: 77 77 23
Width: 705
VWidth: 0
Flags: HW
LayerCount: 2
Fore
SplineSet
77.2099609375 46.388671875 m 1
 66.42578125 33.642578125 l 1
 53.34375 16.626953125 l 1
 42.2119140625 33.326171875 l 1
 35.1025390625 45.5126953125 l 1
 39.66796875 133.18359375 l 1
 45.1416015625 220.767578125 l 1
 52.322265625 231.024414062 l 1
 58.7294921875 239.033203125 l 1
 73.8017578125 354.296875 l 1
 88.2294921875 471.514648438 l 1
 98.2734375 498.908203125 l 1
 107.009765625 525.118164062 l 1
 111.4609375 609.672851562 l 1
 115.076171875 695.546875 l 1
 118.872070312 707.884765625 l 1
 123.620117188 722.127929688 l 1
 169.563615372 722.127929688 l 1
 183.129023687 704.854492188 l 1
 196.053522877 687.430664062 l 1
 197.047483664 665.184570312 l 1
 197.047483664 644.616210938 l 1
 209.508602548 617.749023438 l 1
 222.714941275 588.359375 l 1
 252.3121046 372.229492188 l 1
 255.995075346 340.842773438 l 1
 260.561678234 309.71875 l 1
 273.12108991 257.311523438 l 1
 286.139869942 242.947265625 l 1
 298.471603416 228.5390625 l 1
 314.188420295 228.5390625 l 1
 333.926214767 264.466796875 l 1
 354.262792882 302.268554688 l 1
 392.986141069 365.104492188 l 1
 422.581298418 419.134765625 l 1
 443.961986703 448.098632812 l 1
 463.293571167 474.619140625 l 1
 463.293571167 497.76953125 l 1
 480.754583614 497.76953125 l 1
 504.272638636 549.504882812 l 1
 527.093617224 601.634765625 l 1
 523.927185131 605.952148438 l 1
 518.590287708 616.342773438 l 1
 531.654202186 632.2421875 l 1
 543.6015625 648.067382812 l 1
 567.817382812 652.909179688 l 1
 592.349609375 658.797851562 l 1
 614.276367188 643.44921875 l 1
 614.276367188 191.088867188 l 1
 633.948242188 164.572265625 l 1
 654.66015625 136.329101562 l 1
 654.66015625 86.9892578125 l 1
 632.353515625 73.60546875 l 1
 593.729492188 85.8017578125 l 1
 572.865234375 144.600585938 l 1
 572.865234375 182.4609375 l 1
 567.033203125 184.793945312 l 1
 559.233398438 187.384765625 l 1
 555.982421875 188.467773438 l 1
 546.840820312 380.470703125 l 1
 546.840820312 441.578125 l 1
 546.015625 496.743164062 l 1
 525.897052927 496.743164062 l 1
 516.679596186 460.845703125 l 1
 501.214529213 460.845703125 l 1
 501.214529213 420.958984375 l 1
 455.129251486 367.112304688 l 1
 455.129251486 347.884765625 l 1
 444.675110941 342.794921875 l 1
 438.954069238 340.706054688 l 1
 380.796831845 225.686523438 l 1
 365.023847655 198.583007812 l 1
 348.271947494 171.401367188 l 1
 332.530055923 150.665039062 l 1
 315.744054181 126.147460938 l 1
 293.557966792 132.627929688 l 1
 273.067931563 139.610351562 l 1
 218.453246641 244.130859375 l 1
 206.320104727 285.020507812 l 1
 195.131777203 325.868164062 l 1
 178.529322206 505.485351562 l 1
 172.128254859 534.866210938 l 1
 167.3720873 559.564453125 l 1
 153.405273438 559.564453125 l 1
 142.9609375 419.451171875 l 1
 123.142578125 307.750976562 l 1
 105.21484375 236.037109375 l 1
 91.787109375 142.0390625 l 1
 77.2099609375 46.388671875 l 1
EndSplineSet
Validated: 524289
EndChar

StartChar: N
Encoding: 78 78 24
Width: 522
VWidth: 0
Flags: HW
LayerCount: 2
Fore
SplineSet
167.501953125 449.91015625 m 1
 220.631556088 396.37109375 l 1
 235.340845676 384.109375 l 1
 251.367695252 370.817382812 l 1
 251.367695252 354.536132812 l 1
 295.462313292 300.815429688 l 1
 341.012689646 244.529296875 l 1
 351.512695312 221.948242188 l 1
 359.118164062 204.202148438 l 1
 368.79296875 207.720703125 l 1
 371.05078125 282.22265625 l 1
 374.173828125 359.530273438 l 1
 364.051757812 411.696289062 l 1
 354.484375 465.907226562 l 1
 363.99609375 558.642578125 l 1
 374.381835938 652.912109375 l 1
 384.788085938 665.918945312 l 1
 394.560546875 677.196289062 l 1
 405.274414062 702.450195312 l 1
 417.608398438 730.640625 l 1
 445.541992188 730.640625 l 1
 445.541992188 697.796875 l 1
 461.272460938 688.359375 l 1
 461.272460938 652.524414062 l 1
 422.836914062 642.915039062 l 1
 417.916992188 616.908203125 l 1
 411.721679688 587.479492188 l 1
 411.721679688 422.96875 l 1
 424.345703125 191.771484375 l 1
 413.092773438 154.794921875 l 1
 401.852539062 115.022460938 l 1
 368.079101562 115.022460938 l 1
 350.864257812 137.40234375 l 1
 332.784174229 159.9921875 l 1
 332.784174229 174.330078125 l 1
 300.236909622 219.447265625 l 1
 267.550407604 263.990234375 l 1
 262.079624213 266.5625 l 1
 262.079624213 266.5625 257.013044951 268.318359375 255.896028399 268.711914062 c 2
 254.315579864 269.268554688 l 1
 198.88454268 345.78515625 l 1
 198.88454268 357.081054688 l 1
 158 397.290039062 l 1
 117.795898438 437.494140625 l 1
 105.431640625 437.494140625 l 1
 113.064453125 265.765625 l 1
 122.5390625 80.232421875 l 1
 112.01171875 36.37109375 l 1
 74.5234375 36.37109375 l 1
 67.5712890625 48.2890625 l 1
 60.6865234375 58.6005859375 l 1
 58.244140625 100.11328125 l 1
 56.666015625 139.5859375 l 1
 56.666015625 198.708007812 l 1
 57.4521484375 257.696289062 l 1
 57.4521484375 332.408203125 l 1
 58.2373046875 407.037109375 l 1
 55.0791015625 493.890625 l 1
 60.64453125 532.048828125 l 1
 65.6708984375 571.423828125 l 1
 82.841796875 581.3671875 l 1
 105.204101562 593.13671875 l 1
 105.204101562 510.706054688 l 1
 135.943359375 481.467773438 l 1
 167.501953125 449.91015625 l 1
EndSplineSet
Validated: 524289
EndChar

StartChar: O
Encoding: 79 79 25
Width: 540
VWidth: 0
Flags: HW
LayerCount: 2
Fore
SplineSet
476.748046875 244.315429688 m 1
 463.638671875 203.348632812 l 1
 454.627929688 166.484375 l 1
 445.568359375 128.6015625 l 1
 445.271484375 127.361328125 l 1
 444.416992188 126.415039062 l 1
 413.946289062 92.650390625 l 1
 383.4765625 58.8857421875 l 1
 382.912109375 58.259765625 l 1
 382.173828125 57.8544921875 l 1
 348.078090326 39.736328125 l 1
 313.454046687 21.619140625 l 1
 311.985203854 20.849609375 l 1
 310.319283575 21.033203125 l 1
 265.319933607 25.97265625 l 1
 219.442973141 30.9140625 l 1
 218.792206994 30.984375 l 1
 218.178392868 31.205078125 l 1
 172.302458847 47.6748046875 l 1
 128.3515625 64.1455078125 l 1
 126.826171875 64.720703125 l 1
 125.93359375 66.0849609375 l 1
 96.2861328125 111.37890625 l 1
 66.6396484375 156.673828125 l 1
 66.048828125 157.576171875 l 1
 65.8828125 158.642578125 l 1
 55.9990234375 222.063476562 l 1
 46.1171875 286.298828125 l 1
 46.05859375 286.67578125 l 1
 46.05859375 287.05859375 l 1
 46.05859375 307.747070312 l 1
 46.884765625 328.400390625 l 1
 49.3544921875 423.09375 l 1
 52.6494140625 517.821289062 l 1
 52.685546875 518.854492188 l 1
 53.1279296875 519.788085938 l 1
 75.36328125 566.728515625 l 1
 97.1171875 612.653320312 l 1
 97.1171875 616.470703125 l 1
 97.1171875 622.235351562 l 1
 97.1171875 623.83203125 l 1
 98.0419921875 625.1328125 l 1
 124.416015625 662.221679688 l 1
 151.614257812 699.309570312 l 1
 152.256835938 700.184570312 l 1
 153.203125 700.71484375 l 1
 174.257836623 712.282226562 l 1
 195.970228272 723.024414062 l 1
 197.035678209 723.55078125 l 1
 198.235592445 723.5859375 l 1
 226.879567359 724.412109375 l 1
 254.658249115 724.412109375 l 1
 259.913647652 724.412109375 l 1
 259.913647652 719.412109375 l 1
 259.913647652 710.352539062 l 1
 259.913647652 707.704101562 l 1
 269.491406195 708.716796875 l 1
 284.040238003 711.159179688 l 1
 284.89116093 711.301757812 l 1
 285.744136747 711.178710938 l 1
 325.617420253 705.40625 l 1
 365.488650868 698.807617188 l 1
 367.319828795 698.504882812 l 1
 368.543351267 697.174804688 l 1
 385.98828125 677.420898438 l 1
 402.61328125 658.529296875 l 1
 408.587890625 658.529296875 l 1
 416.823242188 658.529296875 l 1
 421.823242188 658.529296875 l 1
 421.823242188 653.529296875 l 1
 421.823242188 641.176757812 l 1
 421.823242188 630.256835938 l 1
 441.651367188 598.532226562 l 1
 462.240234375 565.591796875 l 1
 462.444335938 565.264648438 l 1
 462.595703125 564.911132812 l 1
 477.447265625 530.256835938 l 1
 491.47265625 494.779296875 l 1
 491.831054688 493.875 l 1
 491.823242188 492.901367188 l 1
 491 389.98046875 l 1
 491 287.05859375 l 1
 491 286.231445312 l 1
 490.733398438 285.44921875 l 1
 476.748046875 244.315429688 l 1
145.72265625 580.864257812 m 1
 138.422851562 576.80859375 l 1
 133.446289062 573.69921875 l 1
 115.916015625 522.702148438 l 1
 98.8994140625 470.840820312 l 1
 101.3515625 357.224609375 l 1
 103.797851562 243.87890625 l 1
 135.401367188 180.670898438 l 1
 166.134550682 120 l 1
 172.426658695 120 l 1
 181.082669605 120 l 1
 182.381122564 120 l 1
 183.530740994 119.424804688 l 1
 216.448832998 102.94140625 l 1
 247.331484515 87.05859375 l 1
 282.295281458 87.05859375 l 1
 317.557773903 87.83984375 l 1
 342.927389182 108.861328125 l 1
 368.277502005 130.567382812 l 1
 385.359375 158.749023438 l 1
 402.17578125 186.776367188 l 1
 407.780273438 218.803710938 l 1
 413.544921875 251.744140625 l 1
 413.603515625 252.078125 l 1
 413.706054688 252.40234375 l 1
 426.05078125 291.079101562 l 1
 438.1484375 329.79296875 l 1
 434.885742188 421.15234375 l 1
 430.819335938 513.05859375 l 1
 411.587890625 549.1171875 l 1
 391.967773438 585.904296875 l 1
 376.462890625 607.938476562 l 1
 361.082122368 630.2265625 l 1
 359.183199069 632.936523438 l 1
 361.020535667 635.684570312 l 1
 367.042688638 644.6875 l 2
 367.550778926 645.493164062 361.482435929 645.293945312 360.260966347 645.293945312 c 2
 342.948944528 645.293945312 l 1
 340.422863317 645.293945312 l 1
 338.845217311 647.170898438 l 1
 328.522259678 659.447265625 l 1
 319.300677559 669.5703125 l 1
 293.671371688 665.13671875 l 1
 264.227796099 660.193359375 l 1
 262.099975559 659.8359375 l 1
 260.323199217 661.005859375 l 1
 248.988166788 668.47265625 l 1
 240.275701402 674.689453125 l 1
 218.968755539 671.686523438 l 1
 196.782146288 669.424804688 l 1
 172.181338334 640.556640625 l 1
 148.293945312 611.462890625 l 1
 148.293945312 599.235351562 l 1
 148.293945312 585.235351562 l 1
 148.293945312 582.29296875 l 1
 145.72265625 580.864257812 l 1
EndSplineSet
Validated: 524289
EndChar

StartChar: Q
Encoding: 81 81 26
Width: 663
VWidth: 0
Flags: HW
LayerCount: 2
Fore
SplineSet
67.654296875 341.431640625 m 1
 69.091796875 354.3671875 l 1
 69.921875 368.59765625 l 1
 79.69140625 393.018554688 l 1
 88.45703125 441.631835938 l 1
 98.2490234375 492.220703125 l 1
 117.85546875 531.435546875 l 1
 137.5234375 571.58984375 l 1
 168.736671829 602.73046875 l 1
 200.840307327 634.655273438 l 1
 234.739012987 651.8984375 l 1
 268.671987252 669.981445312 l 1
 327.268278127 679.71484375 l 1
 332.263431258 681.326171875 l 1
 340.043412496 682.583007812 l 1
 378.621798541 650.080078125 l 1
 405.795794417 650.080078125 l 1
 426.319665121 635.380859375 l 1
 445.624984545 620.743164062 l 1
 473.19911678 596.455078125 l 1
 500.478515625 571.3125 l 1
 507.303710938 545.71875 l 1
 513.012695312 521.248046875 l 1
 520.790039062 459.03515625 l 1
 537.482421875 449.020507812 l 1
 528.353515625 346.952148438 l 1
 520.180664062 247.232421875 l 1
 504.008789062 227.829101562 l 1
 498.56640625 185.063476562 l 1
 494 143.962890625 l 1
 537.444335938 98.193359375 l 1
 580.151367188 53.958984375 l 1
 589.237304688 57.59375 l 1
 608.02734375 63.85546875 l 1
 608.02734375 0.607421875 l 1
 594.147460938 -10.49609375 l 1
 581.01953125 -21.7470703125 l 1
 565.0078125 -17.98046875 l 1
 549.110351562 -15.1748046875 l 1
 539.131835938 2.966796875 l 1
 530.540039062 17.80859375 l 1
 521.185546875 28.72265625 l 1
 510.986328125 38.9013671875 l 1
 509.521484375 40.365234375 l 1
 509.521484375 52.7236328125 l 1
 495.653320312 52.7236328125 l 1
 481.825734143 65.4501953125 l 1
 468.68977152 79.0859375 l 1
 468.68977152 101 l 1
 433.533206476 101 l 1
 422.69424829 91.197265625 l 1
 412.57795451 80.6962890625 l 1
 412.57795451 68.3291015625 l 1
 384.212620659 44.2802734375 l 1
 355.432031948 20.62109375 l 1
 278.70260952 17.3173828125 l 1
 202.682748796 20.5908203125 l 1
 180.896987109 30.72265625 l 1
 159.717773438 41.5009765625 l 1
 145.697265625 53.8720703125 l 1
 129.40625 66.54296875 l 1
 129.40625 78.47265625 l 1
 112.841796875 98.802734375 l 1
 94.4912109375 121.143554688 l 1
 57.9453125 157.688476562 l 1
 46.4013671875 316.004882812 l 1
 58.162109375 330.478515625 l 1
 67.654296875 341.431640625 l 1
352.431513209 602.263671875 m 1
 352.431513209 609.505859375 l 1
 352.431513209 610.805664062 l 1
 327.003200388 610.139648438 l 1
 296.254182688 609.35546875 l 1
 263.853216647 598.3671875 l 1
 232.070093397 586.819335938 l 1
 199.732625065 546.087890625 l 1
 166.13671875 504.793945312 l 1
 151.921875 469.256835938 l 1
 137.439453125 433.051757812 l 1
 131.002929688 416.958984375 l 1
 124.807617188 401.470703125 l 1
 120.05859375 362.69140625 l 1
 115.231445312 323.265625 l 1
 115.0625 321.880859375 l 1
 114.200195312 320.784179688 l 1
 105.349609375 309.520507812 l 1
 105.2265625 309.364257812 l 1
 105.091796875 309.217773438 l 1
 96.9521484375 300.399414062 l 1
 101.56640625 251.940429688 l 1
 106.305664062 202.979492188 l 1
 121.982421875 171.626953125 l 1
 137.731445312 140.125976562 l 1
 158.956054688 118.1171875 l 1
 180.311397123 95.6435546875 l 1
 202.352157548 88.0166015625 l 1
 226.407710368 79.978515625 l 1
 229.885973777 78.81640625 l 1
 229.885973777 75.251953125 l 1
 229.885973777 68.0107421875 l 1
 229.885973777 65.76953125 l 1
 275.380570634 65.76953125 l 1
 323.838393925 65.76953125 l 1
 363.005393656 105.268554688 l 1
 402.257057 144.8515625 l 1
 402.257057 150.884765625 l 1
 402.257057 156.895507812 l 1
 370.529368257 188.405273438 l 1
 336.504675078 221.373046875 l 1
 334.519111788 223.295898438 l 1
 335.107725474 225.956054688 l 1
 337.591191437 237.185546875 l 1
 340.074657401 249.221679688 l 1
 340.512086065 251.337890625 l 1
 342.400890941 252.481445312 l 1
 355.746496794 260.5625 l 1
 369.923620268 268.642578125 l 1
 373.638740212 270.759765625 l 1
 376.450781623 267.595703125 l 1
 402.167353886 238.66015625 l 1
 426.267254313 212.388671875 l 1
 432.835739574 215.040039062 l 1
 433.009098399 215.110351562 l 1
 433.188504626 215.16796875 l 1
 440.87172745 217.649414062 l 1
 454.092353684 250.05078125 l 1
 467.213197804 283.423828125 l 1
 473.773619864 315.198242188 l 1
 480.290702218 346.772460938 l 1
 477.831425858 394.427734375 l 1
 475.395331202 441.62109375 l 1
 463.470864557 463.958007812 l 1
 451.032368837 486.454101562 l 1
 450.091997999 488.155273438 l 1
 450.57478217 490.028320312 l 1
 454.727330777 506.12109375 l 1
 454.756559882 506.233398438 l 1
 454.790828487 506.344726562 l 1
 459.272960442 520.822265625 l 1
 452.443429043 538.469726562 l 1
 445.497989127 554.620117188 l 1
 436.481314407 554.620117188 l 1
 424.025684385 554.620117188 l 1
 418.86523563 554.620117188 l 1
 418.86523563 559.620117188 l 1
 418.86523563 570.080078125 l 1
 418.86523563 577.711914062 l 1
 389.214829091 587.049804688 l 1
 355.99746393 597.508789062 l 1
 352.431513209 598.630859375 l 1
 352.431513209 602.263671875 l 1
EndSplineSet
Validated: 524289
EndChar

StartChar: R
Encoding: 82 82 27
Width: 744
VWidth: 0
Flags: HW
LayerCount: 2
Fore
SplineSet
176.116957989 23.76171875 m 1
 169.806537869 32.9697265625 l 1
 180.034702164 58.333984375 l 1
 188.969960847 80.5302734375 l 1
 188.130372759 283.646484375 l 1
 188.130372759 488.733398438 l 1
 175.085235321 603.65234375 l 1
 159.649423341 605.6171875 l 1
 143.208007812 607.859375 l 1
 115.120117188 592.109375 l 1
 89.63671875 576.176757812 l 1
 100.411132812 541.293945312 l 1
 70.744140625 541.293945312 l 1
 62.5078125 574.235351562 l 1
 38.353515625 574.235351562 l 1
 38.353515625 598.418945312 l 1
 51.3603515625 606.421875 l 1
 60.1494140625 612.379882812 l 1
 78.6123046875 645.375 l 1
 156.7578125 671.977539062 l 1
 167.752098842 683.82421875 l 1
 181.899008013 695.364257812 l 1
 390.857372441 700.37890625 l 1
 413.927531883 691.248046875 l 1
 435.171412112 681.393554688 l 1
 458.805966884 669.868164062 l 1
 482.190346422 658.352539062 l 1
 499.562514719 658.352539062 l 1
 538.009444786 631.978515625 l 1
 577.176757812 604.975585938 l 1
 577.176757812 549.724609375 l 1
 549.527512592 470.053710938 l 1
 536.522403191 460.08203125 l 1
 524.020646363 450.3203125 l 1
 438.471723809 373.448242188 l 1
 392.398451886 348.469726562 l 1
 351.472785593 325.541992188 l 1
 352.873766908 323.35546875 l 1
 355.781803836 319.397460938 l 1
 379.958738517 314.0703125 l 1
 407.138776715 308.9375 l 1
 453.968578546 276.293945312 l 1
 476.016021629 276.293945312 l 1
 476.016021629 259.823242188 l 1
 509.770664995 259.823242188 l 1
 509.770664995 243.352539062 l 1
 531.022550832 243.352539062 l 1
 562.869858208 220.377929688 l 1
 591.491210938 195.90234375 l 1
 621.426757812 180.529296875 l 1
 648.091796875 166.430664062 l 1
 657.104492188 173.638671875 l 1
 673.9921875 187.147460938 l 1
 684.306640625 168.75390625 l 1
 692.920898438 155.354492188 l 1
 682.083007812 119.725585938 l 1
 673.256835938 109.133789062 l 1
 663.580078125 98.3525390625 l 1
 621.83984375 98.3525390625 l 1
 589.833007812 133.370117188 l 1
 565.968028315 142.849609375 l 1
 539.577543158 153.956054688 l 1
 512.622662671 181.5859375 l 1
 488.056455325 210.809570312 l 1
 460.585213154 221.913085938 l 1
 430.885409992 232.677734375 l 1
 364.006564852 260.209960938 l 1
 299.245202898 291 l 1
 278.566718699 291 l 1
 257.778157397 305.112304688 l 1
 243.10287813 315.698242188 l 1
 243.10287813 275.4296875 l 1
 243.951472526 53.9775390625 l 1
 235.985893053 34.9755859375 l 1
 227.129689745 16 l 1
 181.800939321 16 l 1
 176.116957989 23.76171875 l 1
470.722313663 607.17578125 m 1
 457.389975056 607.17578125 l 1
 455.782849348 607.17578125 l 1
 454.463925511 608.966796875 l 1
 435.054330103 622.143554688 l 1
 416.799543577 633.654296875 l 1
 348.191487215 638.489257812 l 1
 278.495668932 642.538085938 l 1
 252.593525833 632.62890625 l 1
 229.94866429 623.381835938 l 1
 236.327132073 564.469726562 l 1
 243.077860606 497.764648438 l 1
 243.10287813 497.51953125 l 1
 243.10287813 497.764648438 l 1
 243.10287813 330.125976562 l 1
 276.623357476 350.48046875 l 1
 314.5979567 373.5390625 l 1
 315.253415815 373.9375 l 1
 316.000939417 374.12890625 l 1
 348.024370158 382.353515625 l 1
 379.748591319 391.084960938 l 1
 436.233155808 440.533203125 l 1
 491.084576365 485.571289062 l 1
 491.084576365 497.764648438 l 1
 491.084576365 508.469726562 l 1
 491.084576365 506.96875 l 1
 493.00792357 508.469726562 l 1
 505.665789744 518.352539062 l 1
 516.401309416 526.734375 l 1
 516.401309416 557.05859375 l 1
 516.401309416 579.810546875 l 1
 499.704614252 593.728515625 l 1
 481.634957401 606.477539062 l 1
 470.722313663 607.17578125 l 1
EndSplineSet
Validated: 524293
EndChar

StartChar: S
Encoding: 83 83 28
Width: 618
VWidth: 0
Flags: HW
LayerCount: 2
Fore
SplineSet
125.447265625 494.538085938 m 1
 136.24609375 488.778320312 l 1
 148.8125 482.9140625 l 1
 216.115964922 471.513671875 l 1
 285.192148331 460.88671875 l 1
 285.351588499 460.862304688 l 1
 285.50798204 460.828125 l 1
 338.909267392 449.317382812 l 1
 392.310552745 438.694335938 l 1
 393.175794931 438.522460938 l 1
 393.933389615 438.084960938 l 1
 426.182956359 419.4765625 l 1
 456.408203125 401.58203125 l 1
 467.428710938 401.58203125 l 1
 479.833007812 401.58203125 l 1
 481.8515625 401.58203125 l 1
 483.303710938 400.181640625 l 1
 508.147460938 376.225585938 l 1
 532.989257812 351.3828125 l 1
 533.615234375 350.756835938 l 1
 533.98828125 349.953125 l 1
 545.5390625 325.075195312 l 1
 556.201171875 300.197265625 l 1
 556.60546875 299.25390625 l 1
 556.60546875 298.227539062 l 1
 556.60546875 232.658203125 l 1
 556.60546875 167.088867188 l 1
 556.60546875 166.0625 l 1
 556.201171875 165.119140625 l 1
 545.5390625 140.240234375 l 1
 533.98828125 115.362304688 l 1
 533.629882812 114.590820312 l 1
 533.037109375 113.981445312 l 1
 501.138671875 81.197265625 l 1
 469.240234375 48.412109375 l 1
 468.170898438 47.3125 l 1
 466.669921875 47.001953125 l 1
 440.973632812 41.685546875 l 1
 414.95207216 36.4736328125 l 1
 394.163917756 27.783203125 l 1
 372.881194169 19.7734375 l 1
 371.967205944 19.4296875 l 1
 370.986191916 19.4296875 l 1
 325.835173607 19.4296875 l 1
 280.684155298 19.4296875 l 1
 280.129669108 19.4296875 l 1
 279.58838497 19.5419921875 l 1
 232.594157074 29.2890625 l 1
 185.600944721 39.0361328125 l 1
 184.305112526 39.3046875 l 1
 183.301756564 40.13671875 l 1
 157.360351562 62.26171875 l 1
 130.810546875 84.38671875 l 1
 129.010742188 85.8857421875 l 1
 129.010742188 88.2275390625 l 1
 129.010742188 107.721679688 l 1
 129.010742188 128.1015625 l 1
 129.010742188 130.079101562 l 1
 130.36328125 131.521484375 l 1
 156.97265625 159.903320312 l 1
 183.881631315 187.401367188 l 1
 185.414084906 188.923828125 l 1
 187.61781207 188.923828125 l 1
 196.832844462 188.923828125 l 1
 206.046861311 188.923828125 l 1
 211.246438768 188.923828125 l 1
 211.246438768 183.923828125 l 1
 211.246438768 140.506835938 l 1
 211.246438768 100.663085938 l 1
 242.765830475 90.29296875 l 1
 276.156866957 79.0107421875 l 1
 315.940743301 77.2724609375 l 1
 354.46940915 75.55078125 l 1
 405.942179348 94.6533203125 l 1
 455.037109375 113.478515625 l 1
 478.102539062 156.192382812 l 1
 501.416015625 198.500976562 l 1
 501.416015625 247.765625 l 1
 502.265625 296.193359375 l 1
 483.423828125 315.034179688 l 1
 462.44140625 335.142578125 l 1
 433.374012604 356.192382812 l 1
 404.705248617 376.006835938 l 1
 353.138032969 388.186523438 l 1
 301.80845426 400.526367188 l 1
 209.025447382 412.89453125 l 1
 117.381835938 425.299804688 l 1
 115.8828125 425.504882812 l 1
 114.749023438 426.5078125 l 1
 91.720703125 446.877929688 l 1
 69.568359375 466.372070312 l 1
 68.216796875 467.5625 l 1
 67.93359375 469.340820312 l 1
 61.72265625 508.383789062 l 1
 56.3984375 547.42578125 l 1
 56.076171875 549.791015625 l 1
 57.7119140625 551.528320312 l 1
 71.83984375 566.5390625 l 1
 84.958984375 581.297851562 l 1
 87.4130859375 599.298828125 l 1
 90.07421875 617.921875 l 1
 90.33984375 619.786132812 l 1
 91.76953125 621.010742188 l 1
 110.376953125 636.959960938 l 1
 129.061523438 652.9765625 l 1
 145.924804688 666.2890625 l 1
 161.822265625 679.537109375 l 1
 162.299804688 679.935546875 l 1
 162.860351562 680.204101562 l 1
 185.368385495 690.836914062 l 1
 208.404950932 701.469726562 l 1
 208.843665279 701.671875 l 1
 209.314876987 701.79296875 l 1
 222.983063118 705.298828125 l 1
 236.653280335 709.6796875 l 1
 237.415952732 709.924804688 l 1
 238.22026237 709.935546875 l 1
 299.957120333 710.821289062 l 1
 361.693978296 711.708007812 l 1
 369.159231009 711.815429688 l 1
 366.674198579 705.044921875 l 1
 361.129336682 689.935546875 l 1
 359.568447902 685.93359375 l 1
 366.423359589 688.362304688 l 1
 383.931311808 694.564453125 l 1
 384.278627333 694.6875 l 1
 384.639144911 694.76171875 l 1
 410.440016957 700.078125 l 1
 436.23987346 705.395507812 l 1
 438.846679688 705.951171875 l 1
 440.76171875 704.116210938 l 1
 461.990234375 683.771484375 l 1
 484.10546875 663.42578125 l 1
 485.719726562 661.940429688 l 1
 485.719726562 659.74609375 l 1
 485.719726562 642.911132812 l 1
 485.719726562 626.961914062 l 1
 485.719726562 621.961914062 l 1
 480.719726562 621.961914062 l 1
 472.744140625 621.961914062 l 1
 463.883789062 621.961914062 l 1
 462.48828125 621.961914062 l 1
 461.294921875 622.684570312 l 1
 427.310208503 643.038085938 l 1
 393.546467933 661.834960938 l 1
 347.088446463 661.834960938 l 1
 330.442689803 661.834960938 l 1
 266.953005532 661.834960938 l 1
 224.564262747 645.357421875 l 1
 183.603372678 629.765625 l 1
 183.603372678 626.961914062 l 1
 183.603372678 620.758789062 l 1
 183.603372678 617.727539062 l 1
 180.809615337 616.326171875 l 1
 160.248046875 605.693359375 l 1
 141.479492188 595.901367188 l 1
 131.514648438 571.819335938 l 1
 120.504882812 547.2578125 l 1
 123.040039062 520.212890625 l 1
 125.447265625 494.538085938 l 1
EndSplineSet
Validated: 524289
EndChar

StartChar: T
Encoding: 84 84 29
Width: 609
VWidth: 0
Flags: HW
LayerCount: 2
Fore
SplineSet
447.29296875 699.528320312 m 1
 483.693359375 706.80859375 l 1
 520.09375 714.08984375 l 1
 520.471679688 714.165039062 l 1
 520.857421875 714.181640625 l 1
 539.568359375 714.995117188 l 1
 557.475585938 715.80859375 l 1
 562.702148438 716.045898438 l 1
 562.702148438 710.813476562 l 1
 562.702148438 690.46484375 l 1
 562.702148438 670.9296875 l 1
 562.702148438 667.961914062 l 1
 560.096679688 666.540039062 l 1
 542.22265625 656.791015625 l 1
 523.53515625 646.228515625 l 1
 522.389648438 645.581054688 l 1
 521.07421875 645.581054688 l 1
 428.627730628 645.581054688 l 1
 337.944479669 644.799804688 l 1
 334.017041107 632.795898438 l 1
 329.244611255 618.213867188 l 1
 335.090736628 524.740234375 l 1
 341.835487469 430.34375 l 1
 341.843583194 430.232421875 l 1
 341.846619091 430.120117188 l 1
 344.3775451 328.35546875 l 1
 346.065503751 226.591796875 l 1
 346.067527682 226.44921875 l 1
 346.061455888 226.306640625 l 1
 341.842571228 126.984375 l 1
 336.781731175 26.849609375 l 1
 336.603625226 23.3193359375 l 1
 333.096152395 22.3037109375 l 1
 316.301571006 17.44140625 l 1
 298.661998325 11.7685546875 l 1
 295.255722057 10.6728515625 l 1
 292.997014798 13.3662109375 l 1
 278.659485928 30.4580078125 l 1
 264.319933127 47.55078125 l 1
 262.96592313 49.1650390625 l 1
 263.19462736 51.23046875 l 1
 265.725553369 74.0205078125 l 1
 268.255467413 96.810546875 l 1
 268.3323768 97.49609375 l 1
 268.596499827 98.1357421875 l 1
 275.362501946 114.456054688 l 1
 281.715622093 129.017578125 l 1
 280.877714562 263.138671875 l 1
 280.877714562 397.377929688 l 1
 277.505845124 525.951171875 l 1
 275.12367806 646.254882812 l 1
 268.793833122 643.58203125 l 1
 256.198909045 637.91015625 l 1
 255.178847703 637.451171875 l 1
 254.053541936 637.44140625 l 1
 157.055625524 636.627929688 l 1
 63.443359375 635.813476562 l 1
 61.3466796875 635.795898438 l 1
 59.8642578125 637.278320312 l 1
 49.283203125 647.860351562 l 1
 38.7021484375 658.44140625 l 1
 36.861328125 660.282226562 l 1
 37.3134765625 662.845703125 l 1
 39.7548828125 676.682617188 l 1
 42.1962890625 690.520507812 l 1
 42.916015625 694.599609375 l 1
 47.0576171875 694.651367188 l 1
 245.508504261 697.092773438 l 1
 447.29296875 699.528320312 l 1
EndSplineSet
Validated: 524289
EndChar

StartChar: U
Encoding: 85 85 30
Width: 672
VWidth: 0
Flags: HW
LayerCount: 2
Fore
SplineSet
445.874436368 286.186523438 m 1
 442.150477679 240.908203125 l 1
 435.545891856 200.635742188 l 1
 427.85414385 160.509765625 l 1
 401.849909599 120.903320312 l 1
 401.849909599 102.048828125 l 1
 361.309541148 64.2197265625 l 1
 345.925037572 64.2197265625 l 1
 342.404606929 51.634765625 l 1
 335.969291955 39.5849609375 l 1
 273.161746281 9.6748046875 l 1
 214.426776641 9.6748046875 l 1
 145.317382812 78.0625 l 1
 120.568359375 109.709960938 l 1
 96.19140625 142.452148438 l 1
 85.076171875 205.163085938 l 1
 75.048828125 268.127929688 l 1
 66.849609375 350.114257812 l 1
 59.5458984375 432.279296875 l 1
 68.6923828125 658.712890625 l 1
 77.4326171875 675.891601562 l 1
 88.0595703125 691.4921875 l 1
 122.282226562 691.4921875 l 1
 122.282226562 338.127929688 l 1
 129.860351562 322.971679688 l 1
 139.33203125 306.869140625 l 1
 153.123046875 225.873046875 l 1
 166.341796875 150.208007812 l 1
 178.78125 143.987304688 l 1
 195.500683566 134.065429688 l 1
 195.500683566 109.053710938 l 1
 216.383467056 89.7265625 l 1
 237.089926744 71.9853515625 l 1
 246.188234904 76.87109375 l 1
 258.336441048 82.3056640625 l 1
 294.665189553 101.983398438 l 1
 328.990899672 122.041992188 l 1
 361.918110155 182.107421875 l 1
 373.073865187 213.096679688 l 1
 385.033656754 242.56640625 l 1
 391.54856933 329.155273438 l 1
 399.140568442 417.461914062 l 1
 419.670704329 455.450195312 l 1
 419.670704329 525.44140625 l 1
 434.837573956 584.220703125 l 1
 449.923838416 641.19921875 l 1
 460.401502486 666.846679688 l 1
 473.06457413 691.4921875 l 1
 525.559570312 691.4921875 l 1
 518.620117188 629.552734375 l 1
 512.280273438 567.9765625 l 1
 510.463867188 350.541992188 l 1
 520.443359375 235.140625 l 1
 531.190429688 124.357421875 l 1
 543.546875 111.405273438 l 1
 559.5546875 96.3974609375 l 1
 559.5546875 74.6748046875 l 1
 585.022460938 72.359375 l 1
 618.009765625 69.265625 l 1
 624.544921875 25.025390625 l 1
 601.688476562 11.5185546875 l 1
 580.963867188 -0.7119140625 l 1
 551.659179688 5.1484375 l 1
 522.622070312 12.1142578125 l 1
 516.173828125 26.2080078125 l 1
 511.6875 41.8486328125 l 1
 476.120517502 114.883789062 l 1
 467.558233699 167.897460938 l 1
 459.925932004 222.790039062 l 1
 463.898759144 240.307617188 l 1
 466.911377238 250.12890625 l 1
 449.692098562 250.12890625 l 1
 455.368717407 283.143554688 l 1
 458.330957273 304.674804688 l 1
 448.335916637 304.674804688 l 1
 447.77772586 298.177734375 l 1
 445.874436368 286.186523438 l 1
EndSplineSet
Validated: 524289
EndChar

StartChar: V
Encoding: 86 86 31
Width: 588
VWidth: 0
Flags: HW
LayerCount: 2
Fore
SplineSet
210.14661589 208.55078125 m 1
 216.489617842 206.333007812 l 1
 228.675900857 202.827148438 l 1
 230.474692924 145.72265625 l 1
 235.999046427 142.772460938 l 1
 237.615013778 141.80078125 l 1
 246.263638538 166.748046875 l 1
 278.348360505 235.298828125 l 1
 334.866590074 354.169921875 l 1
 340.076078788 387.55859375 l 1
 344.613178823 422.456054688 l 1
 356.557726936 446.30859375 l 1
 368.440317784 468.340820312 l 1
 368.440317784 501.484375 l 1
 391.956654727 551.924804688 l 1
 414.186108808 602.366210938 l 1
 431.41015625 637.461914062 l 1
 447.135742188 670.56640625 l 1
 447.135742188 683.7578125 l 1
 461.607421875 705.465820312 l 1
 476.716796875 729.073242188 l 1
 536.883789062 729.073242188 l 1
 529.583984375 695.703125 l 1
 523.442382812 666.750976562 l 1
 514.580078125 651.684570312 l 1
 505.590820312 633.70703125 l 1
 491.282226562 633.70703125 l 1
 491.282226562 608.856445312 l 1
 448.598632812 552.515625 l 1
 448.598632812 525.603515625 l 1
 427.864257812 487.590820312 l 1
 422.025390625 458.391601562 l 1
 415.122577632 428.4921875 l 1
 407.133137542 391.787109375 l 1
 397.911662005 352.77734375 l 1
 378.841012739 334.44140625 l 1
 378.841012739 305.572265625 l 1
 353.518773879 250.79296875 l 1
 327.755724314 196.982421875 l 1
 316.387074057 167.513671875 l 1
 305.709094949 137.569335938 l 1
 287.017299122 93.0693359375 l 1
 267.078232456 44.6826171875 l 1
 254.539504016 44.6826171875 l 1
 254.539504016 19.0732421875 l 1
 238.484446871 19.0732421875 l 1
 225.233717732 20.052734375 l 1
 194.021475938 42.5615234375 l 1
 174.108817285 138.290039062 l 1
 164.444499658 180.524414062 l 1
 157.540835243 197.118164062 l 1
 149.772460938 214.362304688 l 1
 79.634765625 436.750976562 l 1
 70.2177734375 475.274414062 l 1
 60.064453125 513.348632812 l 1
 46.287109375 547.791015625 l 1
 41.9384765625 579.971679688 l 1
 37.3173828125 613.250976562 l 1
 55.455078125 630.434570312 l 1
 75.25390625 648.149414062 l 1
 86.1357421875 637.265625 l 1
 100.166992188 603.065429688 l 1
 114.208007812 569.716796875 l 1
 114.208007812 524.680664062 l 1
 126.4375 501.036132812 l 1
 139.818359375 476.059570312 l 1
 139.818359375 421.922851562 l 1
 184.908679537 303.38671875 l 1
 197.266614647 276.2265625 l 1
 210.14661589 248.80859375 l 1
 210.14661589 208.55078125 l 1
EndSplineSet
Validated: 524289
EndChar

StartChar: W
Encoding: 87 87 32
Width: 673
VWidth: 0
Flags: HW
LayerCount: 2
Fore
SplineSet
94.9130859375 385.697265625 m 1
 64.6943359375 685.04296875 l 1
 58.5556640625 694.252929688 l 1
 48.806640625 708.784179688 l 1
 74.68359375 712.3125 l 1
 96.076171875 716.060546875 l 1
 118.09375 700.9296875 l 1
 123.421875 661.72265625 l 1
 128.48828125 622.034179688 l 1
 153.821289062 386.223632812 l 1
 154.666992188 265.354492188 l 1
 154.666992188 155.728515625 l 1
 157.298828125 156.73046875 l 1
 165.111328125 159.334960938 l 1
 188.524897732 224.626953125 l 1
 212.652625163 294.08203125 l 1
 213.485379664 311.8359375 l 1
 213.485379664 331.653320312 l 1
 241.159614169 376.673828125 l 1
 267.888314846 420.993164062 l 1
 279.930528959 451.860351562 l 1
 293.957457848 480.58984375 l 1
 315.633241858 486.282226562 l 1
 337.429860863 491.315429688 l 1
 352.442601911 474.826171875 l 1
 366.213763397 456.12890625 l 1
 368.090733637 441.560546875 l 1
 370.604101513 429.375 l 1
 415.744027445 294.676757812 l 1
 450.355197566 188.153320312 l 1
 457.818772363 176.221679688 l 1
 462.497100548 169.662109375 l 1
 466.08589987 173.837890625 l 1
 493.557735761 285.530273438 l 1
 502.29296875 379.456054688 l 1
 516.0625 396.666992188 l 1
 530.12109375 450.422851562 l 1
 543.673828125 503.75 l 1
 555.60546875 535.986328125 l 1
 567.919921875 566.361328125 l 1
 567.919921875 643.168945312 l 1
 589.006835938 643.168945312 l 1
 620.088867188 631.831054688 l 1
 620.088867188 528.63671875 l 1
 577.663085938 401.225585938 l 1
 565.028320312 363.321289062 l 1
 553.354492188 325.799804688 l 1
 528.104492188 149.834960938 l 1
 518.826171875 91.6318359375 l 1
 510.233398438 35.1875 l 1
 504.549804688 26.6630859375 l 1
 500.543945312 19.072265625 l 1
 499.084929779 19.072265625 l 1
 471.657400053 19.072265625 l 1
 452.782973987 42.7666015625 l 1
 433.892436589 66.322265625 l 1
 427.565717693 90.8349609375 l 1
 420.764721447 116.516601562 l 1
 400.120062718 156.560546875 l 1
 378.71313657 198.908203125 l 1
 378.71313657 235.994140625 l 1
 362.700485945 266.54296875 l 1
 345.870185195 300.044921875 l 1
 339.668329127 334.416015625 l 1
 332.958966084 366.948242188 l 1
 325.058371392 376.91015625 l 1
 319.751701238 383.084960938 l 1
 312.340488271 377.002929688 l 1
 302.062465072 369.170898438 l 1
 302.062465072 349.4375 l 1
 251.408435579 241.024414062 l 1
 239.103405354 184.479492188 l 1
 231.465626774 175.220703125 l 1
 225.98273892 167.368164062 l 1
 214.927343926 127.071289062 l 1
 203.82562885 88.2802734375 l 1
 180.315166847 80.13671875 l 1
 180.315166847 52.806640625 l 1
 131.021484375 52.806640625 l 1
 119.698242188 79.8330078125 l 1
 108.447265625 108.392578125 l 1
 94.9130859375 385.697265625 l 1
EndSplineSet
Validated: 524289
EndChar

StartChar: X
Encoding: 88 88 33
Width: 555
VWidth: 0
Flags: HW
LayerCount: 2
Fore
SplineSet
183.961723719 465.364257812 m 1
 178.683163658 483.79296875 l 1
 161.116210938 533.23828125 l 1
 143.640625 583.166992188 l 1
 132.1484375 599.584960938 l 1
 120.635742188 618.182617188 l 1
 115.381835938 644.448242188 l 1
 111.009765625 670.6796875 l 1
 115.397460938 695.247070312 l 1
 121.350585938 722.036132812 l 1
 142.512695312 722.036132812 l 1
 156.73046875 708.766601562 l 1
 170.403371022 694.548828125 l 1
 170.403371022 653.084960938 l 1
 175.763959988 649.682617188 l 1
 185.958102203 644.827148438 l 1
 199.972740685 616.352539062 l 1
 214.679498057 589.213867188 l 1
 214.679498057 564.618164062 l 1
 226.62393204 539.427734375 l 1
 239.066691623 512.33984375 l 1
 249.567416872 487.336914062 l 1
 265.531267218 461.997070312 l 1
 275.410623508 437.192382812 l 1
 282.444602144 421.000976562 l 1
 320.547028688 470.353515625 l 1
 325.598983897 492.009765625 l 1
 330.560707311 517.5234375 l 1
 354.717194581 525.740234375 l 1
 354.717194581 543.651367188 l 1
 391.512695312 614.737304688 l 1
 428.467773438 686.067382812 l 1
 447.579101562 696.98828125 l 1
 468.594726562 707.49609375 l 1
 480.313476562 701.103515625 l 1
 492.047851562 693.634765625 l 1
 492.047851562 647.578125 l 1
 475.180664062 637.458007812 l 1
 475.180664062 614.391601562 l 1
 451.607421875 576.848632812 l 1
 427.736328125 541.041992188 l 1
 417.28125 529.715820312 l 1
 407.709960938 520.14453125 l 1
 407.709960938 479.14453125 l 1
 384.759765625 470.31640625 l 1
 373.725585938 438.001953125 l 1
 361.153387568 399.987304688 l 1
 346.888560924 399.987304688 l 1
 330.761678129 376.180664062 l 1
 315.722703691 352.811523438 l 1
 374.508789062 268.655273438 l 1
 379.786132812 244.0234375 l 1
 383.68359375 222.200195312 l 1
 407.709960938 203.3203125 l 1
 407.709960938 181.34375 l 1
 419.418945312 171.830078125 l 1
 432.8203125 160.216796875 l 1
 450.159179688 128.138671875 l 1
 466.747070312 94.9638671875 l 1
 466.747070312 40.212890625 l 1
 455.108398438 33.8642578125 l 1
 445.009765625 26.794921875 l 1
 401.337890625 38.1875 l 1
 385.3203125 87.12890625 l 1
 370.394969119 130.108398438 l 1
 354.717194581 130.108398438 l 1
 354.717194581 163.770507812 l 1
 344.877827382 167.518554688 l 1
 328.152133577 172.830078125 l 1
 328.152133577 200.43359375 l 1
 287.563205839 269.694335938 l 1
 278.435439394 271.032226562 l 1
 269.108752853 272.935546875 l 1
 227.75285485 222.294921875 l 1
 184.742023681 168.7890625 l 1
 118.674804688 25.1455078125 l 1
 80.5771484375 19.4306640625 l 1
 62.2724609375 29.498046875 l 1
 41.927734375 40.1552734375 l 1
 41.927734375 81.0712890625 l 1
 67.228515625 81.0712890625 l 1
 67.228515625 97.3486328125 l 1
 91.69140625 125.305664062 l 1
 162.588067063 260.287109375 l 1
 180.792331887 279.360351562 l 1
 198.981216292 297.5078125 l 1
 221.683741214 335.760742188 l 1
 227.792843941 347.412109375 l 1
 232.604864603 355.922851562 l 1
 219.073171301 377.1484375 l 1
 204.179798169 401.97265625 l 1
 204.179798169 442.15625 l 1
 189.257714921 442.15625 l 1
 183.961723719 465.364257812 l 1
EndSplineSet
Validated: 524289
EndChar

StartChar: Y
Encoding: 89 89 34
Width: 454
VWidth: 0
Flags: HW
LayerCount: 2
Fore
SplineSet
319.41796875 509.018554688 m 1
 310.352539062 484.609375 l 1
 304.09765625 463.763671875 l 1
 297.818359375 442.831054688 l 1
 275.470687324 362.3984375 l 1
 251.733068982 281.9921875 l 1
 245.606679964 257.520507812 l 1
 238.688823091 232.955078125 l 1
 238.581867975 232.575195312 l 1
 238.41073979 232.215820312 l 1
 226.169726817 206.368164062 l 1
 215.094524603 181.42578125 l 1
 215.094524603 161.400390625 l 1
 215.094524603 140.400390625 l 1
 215.094524603 139.45703125 l 1
 214.718042596 138.578125 l 1
 207.818368093 122.477539062 l 1
 201.070569853 106.734375 l 1
 191.205029996 66.5458984375 l 1
 182.015446469 25.9873046875 l 1
 181.528800693 23.8408203125 l 1
 179.469914719 22.712890625 l 1
 171.725294803 18.4697265625 l 1
 165.037109375 14.9287109375 l 1
 162.6875 13.623046875 l 1
 160.302734375 14.8642578125 l 1
 142.802734375 23.9638671875 l 1
 125.302734375 33.0634765625 l 1
 122.240234375 34.65625 l 1
 122.643554688 38.083984375 l 1
 126.849609375 73.8388671875 l 1
 131.756835938 108.893554688 l 1
 132.040039062 110.916992188 l 1
 133.66015625 112.163085938 l 1
 142.759765625 119.163085938 l 1
 150.291992188 124.95703125 l 1
 154.864257812 153.046875 l 1
 159.056640625 183.091796875 l 1
 159.177734375 183.962890625 l 1
 159.58984375 184.740234375 l 1
 165.889648438 196.639648438 l 1
 172.32424345 208.098632812 l 1
 184.442258041 245.4453125 l 1
 196.47577809 281.837890625 l 1
 196.47577809 300 l 1
 196.47577809 318.900390625 l 1
 196.47577809 320.819335938 l 1
 197.881168308 322.245117188 l 1
 204.758382237 329.22265625 l 1
 209.84302843 334.444335938 l 1
 214.171501956 358.155273438 l 1
 217.62829129 380.879882812 l 1
 178.806793003 417.663085938 l 1
 141.4453125 456.897460938 l 1
 140.98828125 457.389648438 l 1
 140.676757812 457.985351562 l 1
 107.76171875 521.014648438 l 1
 75.546875 584.744140625 l 1
 75.0087890625 585.807617188 l 1
 75.0087890625 587 l 1
 75.0087890625 601 l 1
 75.0087890625 612.098632812 l 1
 67.6572265625 616.298828125 l 1
 58.48828125 621.942382812 l 1
 56.3974609375 623.229492188 l 1
 56.1376953125 625.670898438 l 1
 52.642578125 658.525390625 l 1
 48.447265625 692.080078125 l 1
 48.1005859375 694.856445312 l 1
 50.2861328125 696.604492188 l 1
 60.78515625 705.00390625 l 1
 71.28515625 713.404296875 l 1
 75.12890625 716.479492188 l 1
 78.263671875 712.684570312 l 1
 91.5634765625 696.584960938 l 1
 104.86328125 680.484375 l 1
 106.008789062 679.09765625 l 1
 106.008789062 677.299804688 l 1
 106.008789062 664 l 1
 106.008789062 654.231445312 l 1
 110.581054688 651.487304688 l 1
 117.581054688 647.287109375 l 1
 120.008789062 645.831054688 l 1
 120.008789062 643 l 1
 120.008789062 631.799804688 l 1
 120.008789062 622.375976562 l 1
 129.376953125 601.630859375 l 1
 139.190429688 579.204101562 l 1
 139.244140625 579.081054688 l 1
 139.291015625 578.956054688 l 1
 147.690429688 556.555664062 l 1
 155.659179688 535.306640625 l 1
 168.04296875 524.2265625 l 1
 182.603699605 512.326171875 l 1
 184.428353876 510.834960938 l 1
 184.428353876 508.599609375 l 1
 184.428353876 499.5 l 1
 184.428353876 492.428710938 l 1
 209.001291671 469.33203125 l 1
 232.72714495 445.700195312 l 1
 237.98505843 445.700195312 l 1
 241.849346755 445.700195312 l 1
 257.377090429 483.724609375 l 1
 273.141204908 523.4765625 l 1
 273.141204908 533.799804688 l 1
 273.141204908 544.299804688 l 1
 273.141204908 545.48046875 l 1
 273.718762532 546.536132812 l 1
 286.422851562 570.30859375 l 1
 297.6015625 593.36328125 l 1
 306.000976562 610.864257812 l 1
 314.227539062 628.001953125 l 1
 323.228515625 658.466796875 l 1
 333.043945312 689.315429688 l 1
 333.359375 690.30859375 l 1
 334.045898438 691.092773438 l 1
 348.740234375 707.88671875 l 1
 362.735351562 723.981445312 l 1
 364.432617188 725.932617188 l 1
 367.005859375 725.67578125 l 1
 381.005859375 724.275390625 l 1
 381.12890625 724.262695312 l 1
 381.25 724.244140625 l 1
 395.25 722.14453125 l 1
 399.018554688 721.580078125 l 1
 399.47265625 717.795898438 l 1
 401.584960938 700.197265625 l 1
 402.993164062 682.598632812 l 1
 403.120117188 681.001953125 l 1
 402.295898438 679.627929688 l 1
 385.49609375 651.627929688 l 1
 368.806640625 623.811523438 l 1
 353.500976562 592.50390625 l 1
 338.23046875 561.26953125 l 1
 333.391601562 547.4453125 l 1
 327.797851562 533.459960938 l 1
 319.41796875 509.018554688 l 1
EndSplineSet
Validated: 524289
EndChar

StartChar: Z
Encoding: 90 90 35
Width: 698
VWidth: 0
Flags: HW
LayerCount: 2
Fore
SplineSet
125.1875 777.5390625 m 1
 179.629461043 771.935546875 l 1
 308.576336164 766.3515625 l 1
 436.90483303 761.712890625 l 1
 523.196616587 789.78515625 l 1
 576.284179688 785.581054688 l 1
 572.211914062 693.935546875 l 1
 538.325870955 674.103515625 l 1
 501.331241823 642.626953125 l 1
 466.514945149 613.119140625 l 1
 465.74847631 604.137695312 l 1
 465.74847631 592.3984375 l 1
 421.649501543 535.01171875 l 1
 379.787895345 479.30078125 l 1
 355.110800688 431.1328125 l 1
 330.439709704 380.086914062 l 1
 321.552273375 375.75 l 1
 316.212006804 372.02734375 l 1
 251.185230774 245.100585938 l 1
 244.616212591 239.756835938 l 1
 240.287564814 235.502929688 l 1
 184.871667633 173.958984375 l 1
 131.548050272 113.700195312 l 1
 131.548050272 99.1064453125 l 1
 361.220537935 100.936523438 l 1
 505.068527872 89.705078125 l 1
 653.416992188 78.2939453125 l 1
 665.408203125 59.1083984375 l 1
 646.5234375 8.748046875 l 1
 586.151367188 7.7578125 l 1
 527.950524491 5.86328125 l 1
 482.113486573 19.189453125 l 1
 436.861806711 32.990234375 l 1
 148.777589356 32.990234375 l 1
 123.216796875 19.546875 l 1
 95.001953125 4.953125 l 1
 43.345703125 4.953125 l 1
 9.345703125 17.703125 l 1
 9.345703125 63.986328125 l 1
 31.857421875 93.349609375 l 1
 52.5908203125 120.678710938 l 1
 132.865856357 204.599609375 l 1
 157.462902049 244.30078125 l 1
 182.883451467 285.981445312 l 1
 197.9186483 285.981445312 l 1
 216.655109149 323.42578125 l 1
 237.777029152 362.780273438 l 1
 277.048050723 432.889648438 l 1
 315.491566119 503.239257812 l 1
 348.251605008 548.377929688 l 1
 379.852935129 591.01171875 l 1
 379.852935129 602.342773438 l 1
 437.308079691 673.37109375 l 1
 437.308079691 686.719726562 l 1
 392.155460423 690.95703125 l 1
 341.509480938 695.620117188 l 1
 231.515198872 701.220703125 l 1
 121.166015625 705.911132812 l 1
 95.5224609375 711.610351562 l 1
 65.4208984375 718.060546875 l 1
 65.4208984375 784.751953125 l 1
 125.1875 777.5390625 l 1
EndSplineSet
EndChar

StartChar: w
Encoding: 119 119 36
Width: 618
VWidth: 0
Flags: HW
LayerCount: 2
Fore
SplineSet
91.44921875 109.5703125 m 1
 83.083984375 121.3984375 l 1
 72.046875 134.33203125 l 1
 67.94921875 263.6640625 l 1
 49.5107421875 295.75 l 1
 50.5625 338.986328125 l 1
 50.5625 383.350585938 l 1
 74.42578125 391.525390625 l 1
 98.970703125 398.733398438 l 1
 102.752929688 391.328125 l 1
 105.181640625 387.762695312 l 1
 150.358398438 156.609375 l 1
 150.358398438 76.1416015625 l 1
 164.526367188 76.1416015625 l 1
 186.067092303 99.416015625 l 1
 209.510510806 125.526367188 l 1
 252.059204734 164.623046875 l 1
 295.949811988 205.986328125 l 1
 356.70410098 205.986328125 l 1
 384.726050661 174.296875 l 1
 410.695065671 146.05859375 l 1
 424.961135902 146.05859375 l 1
 441.549804688 184.977539062 l 1
 459.655273438 227.309570312 l 1
 475.916992188 366.595703125 l 1
 490.609375 448.76953125 l 1
 503.563476562 457.012695312 l 1
 515.977539062 466.041015625 l 1
 530.899414062 466.041015625 l 1
 558.317382812 438.623046875 l 1
 558.317382812 395.764648438 l 1
 529.38671875 395.764648438 l 1
 524.633789062 333.442382812 l 1
 520.537109375 265.318359375 l 1
 494 115.532226562 l 1
 491.977539062 88.8291015625 l 1
 489.932617188 60.806640625 l 1
 487.884765625 40.7705078125 l 1
 486.64453125 16.3994140625 l 1
 417.676463567 16.3994140625 l 1
 398.31862849 57.158203125 l 1
 379.622114266 93.3603515625 l 1
 364.376234306 108.678710938 l 1
 348.309789055 122.866210938 l 1
 329.05034067 129.55078125 l 1
 311.970613929 136.32421875 l 1
 245.003763247 75.126953125 l 1
 245.003763247 43.88671875 l 1
 207.019400355 15.474609375 l 1
 168.541015625 -13.55078125 l 1
 124.610351562 -13.55078125 l 1
 95.541015625 21.4716796875 l 1
 91.44921875 109.5703125 l 1
EndSplineSet
Validated: 524289
EndChar

StartChar: a
Encoding: 97 97 37
Width: 585
VWidth: 0
Flags: HW
LayerCount: 2
Fore
SplineSet
290.613128867 165.951171875 m 1
 280.470138832 143.145507812 l 1
 271.991296444 121.086914062 l 1
 262.615516987 98.08984375 l 1
 261.322306027 94.91796875 l 1
 257.785232164 94.91796875 l 1
 251.829975425 94.91796875 l 1
 248.419587589 94.91796875 l 1
 237.858026923 71.6572265625 l 1
 225.935351587 46.220703125 l 1
 225.545158625 45.388671875 l 1
 224.875242916 44.7421875 l 1
 208.712132898 29.169921875 l 1
 193.400352978 14.416015625 l 1
 191.881134147 12.951171875 l 1
 189.731525648 12.951171875 l 1
 154.854355779 12.951171875 l 1
 121.1875 12.951171875 l 1
 119.442382812 12.951171875 l 1
 118.076171875 14.037109375 l 1
 86.109375 39.4462890625 l 1
 54.1416015625 64.8564453125 l 1
 52.2529296875 66.357421875 l 1
 52.2529296875 68.7705078125 l 1
 52.2529296875 83.5244140625 l 1
 52.2529296875 96.353515625 l 1
 45.6337890625 100.565429688 l 1
 35.880859375 106.255859375 l 1
 33.1962890625 107.821289062 l 1
 33.4130859375 110.921875 l 1
 38.3310546875 181.413085938 l 1
 43.2490234375 251.905273438 l 1
 43.2998046875 252.646484375 l 1
 43.5654296875 253.340820312 l 1
 60.79296875 298.459960938 l 1
 78.83984375 343.578125 l 1
 79.1572265625 344.37109375 l 1
 79.7197265625 345.014648438 l 1
 91.1953125 358.12890625 l 1
 101.43359375 369.830078125 l 1
 101.43359375 376.966796875 l 1
 101.43359375 386.803710938 l 1
 101.43359375 391.803710938 l 1
 106.43359375 391.803710938 l 1
 114.629882812 391.803710938 l 1
 119.006835938 391.803710938 l 1
 130.709960938 413.74609375 l 1
 143.82421875 438.3359375 l 1
 145.236328125 440.983398438 l 1
 148.236328125 440.983398438 l 1
 188.030892426 440.983398438 l 1
 228.011988935 440.983398438 l 1
 229.582895665 440.983398438 l 1
 230.89029546 440.143554688 l 1
 256.409928659 423.75 l 1
 280.323183041 408.388671875 l 1
 319.179307634 413.069335938 l 1
 359.100608338 418.797851562 l 1
 365.501799891 419.716796875 l 1
 365.040662754 413.49609375 l 1
 364.20352149 402.198242188 l 1
 364.20352149 390.901367188 l 1
 364.20352149 390.475585938 l 1
 364.128523362 390.056640625 l 1
 353.920670082 332.6796875 l 1
 343.880042358 276.245117188 l 1
 356.436147827 218.984375 l 1
 368.876715639 162.240234375 l 1
 383.050348296 148.583007812 l 1
 397.613160426 135.290039062 l 1
 434.411132812 136.065429688 l 1
 469.782226562 136.065429688 l 1
 485.494140625 155.518554688 l 1
 502.708007812 176.830078125 l 1
 504.208984375 178.688476562 l 1
 506.59765625 178.688476562 l 1
 524.629882812 178.688476562 l 1
 542.663085938 178.688476562 l 1
 547.663085938 178.688476562 l 1
 547.663085938 173.688476562 l 1
 547.663085938 165.4921875 l 1
 547.663085938 157.294921875 l 1
 547.663085938 155.422851562 l 1
 546.43359375 154.010742188 l 1
 524.2734375 128.567382812 l 1
 501.291992188 103.124023438 l 1
 500.685546875 102.453125 l 1
 499.8828125 102.037109375 l 1
 477.751953125 90.5615234375 l 1
 455.620117188 79.0859375 l 1
 454.538085938 78.5244140625 l 1
 453.318359375 78.5244140625 l 1
 413.457021658 78.5244140625 l 1
 371.77427844 78.5244140625 l 1
 370.173980552 78.5244140625 l 1
 368.851378434 79.3935546875 l 1
 350.07144185 91.7314453125 l 1
 331.293532242 104.890625 l 1
 329.840190145 105.909179688 l 1
 329.351688826 107.575195312 l 1
 318.30264033 145.24609375 l 1
 307.174539753 181.243164062 l 1
 302.079734507 182.879882812 l 1
 298.893327566 183.903320312 l 1
 290.613128867 165.951171875 l 1
234.998976675 360.631835938 m 1
 230.793000591 372.787109375 l 1
 227.051202109 381.803710938 l 1
 197.387415607 381.803710938 l 1
 168.303344363 381.803710938 l 1
 164.15412362 365.14453125 l 1
 159.05019698 344.65234375 l 1
 158.095491083 340.819335938 l 1
 154.004039168 340.819335938 l 1
 144.138671875 340.819335938 l 1
 137.391601562 340.819335938 l 1
 120.772460938 307.578125 l 1
 103.970703125 271.575195312 l 1
 98.302734375 199.521484375 l 1
 92.6787109375 128.821289062 l 1
 102.653320312 109.639648438 l 1
 112.767578125 90.966796875 l 1
 125.006835938 81.787109375 l 1
 136.868164062 72.8916015625 l 1
 158.349876625 72.130859375 l 1
 180.482432217 72.130859375 l 1
 195.088824341 89.16796875 l 1
 195.166862933 89.2587890625 l 1
 195.249968967 89.3466796875 l 1
 211.67658592 106.758789062 l 1
 224.117153733 134.729492188 l 1
 237.728300432 163.41796875 l 1
 250.438456109 191.995117188 l 1
 262.324645869 220.627929688 l 1
 262.404711438 220.8203125 l 1
 262.502006307 221.006835938 l 1
 275.246620583 245.567382812 l 1
 287.007137805 268.98828125 l 1
 281.890035819 281.666015625 l 1
 275.955048844 295.555664062 l 1
 275.016558759 297.751953125 l 1
 276.190178109 299.840820312 l 1
 287.249361488 319.51171875 l 1
 297.149114351 337.123046875 l 1
 292.927935945 347.291992188 l 1
 289.066545854 357.212890625 l 1
 266.291438735 357.212890625 l 1
 239.921488924 357.212890625 l 1
 236.181717419 357.212890625 l 1
 234.998976675 360.631835938 l 1
EndSplineSet
Validated: 524289
EndChar

StartChar: b
Encoding: 98 98 38
Width: 440
VWidth: 0
Flags: HW
LayerCount: 2
Fore
SplineSet
65.724609375 298.356445312 m 1
 60.03515625 369.474609375 l 1
 51.5 431.122070312 l 1
 42.943359375 492.912109375 l 1
 42.8984375 493.233398438 l 1
 42.896484375 493.557617188 l 1
 41.9462890625 612.384765625 l 1
 40.99609375 730.26171875 l 1
 40.9755859375 732.756835938 l 1
 42.9580078125 734.2734375 l 1
 59.171875 746.672851562 l 1
 76.3388671875 759.071289062 l 1
 77.6494140625 760.017578125 l 1
 79.265625 760.017578125 l 1
 91.6240234375 760.017578125 l 1
 103.982421875 760.017578125 l 1
 108.982421875 760.017578125 l 1
 108.982421875 755.017578125 l 1
 108.982421875 614.327148438 l 1
 108.982421875 475.302734375 l 1
 122.205078125 457.672851562 l 1
 132.47265625 444.666992188 l 1
 141.850585938 456.724609375 l 1
 154.1953125 472.870117188 l 1
 155.696289062 474.833007812 l 1
 158.166992188 474.833007812 l 1
 191.221489487 474.833007812 l 1
 223.504183033 474.833007812 l 1
 225.062798067 474.833007812 l 1
 226.387139462 474.083984375 l 1
 270.147101848 449.354492188 l 1
 309.635742188 424.623046875 l 1
 310.184570312 424.274414062 l 1
 310.625976562 423.797851562 l 1
 334.3984375 398.125 l 1
 357.212890625 373.409179688 l 1
 357.772460938 372.802734375 l 1
 358.107421875 372.047851562 l 1
 377.139648438 329.228515625 l 1
 395.217773438 286.40625 l 1
 395.779296875 285.078125 l 1
 395.545898438 283.654296875 l 1
 386.986328125 231.334960938 l 1
 377.473632812 178.063476562 l 1
 377.293945312 177.059570312 l 1
 376.736328125 176.206054688 l 1
 344.396484375 126.747070312 l 1
 311.10546875 77.287109375 l 1
 310.633789062 76.5859375 l 1
 309.95703125 76.0791015625 l 1
 287.142578125 58.9677734375 l 1
 263.235494618 41.857421875 l 1
 262.656763847 41.4609375 l 1
 261.983895723 41.21484375 l 1
 230.744201256 29.806640625 l 1
 199.504506789 18.400390625 l 1
 198.894753481 18.177734375 l 1
 198.245419695 18.0927734375 l 1
 135.1484375 9.5419921875 l 1
 75.2978515625 0.0419921875 l 1
 73.8720703125 -0.18359375 l 1
 72.544921875 0.384765625 l 1
 59.42578125 6.005859375 l 1
 45.3642578125 10.6943359375 l 1
 41.9453125 11.833984375 l 1
 41.9453125 15.4375 l 1
 41.9453125 26.845703125 l 1
 41.9453125 37.3017578125 l 1
 41.9453125 38.6201171875 l 1
 42.595703125 39.7666015625 l 1
 58.724609375 68.2294921875 l 1
 73.2802734375 95.521484375 l 1
 71.4150390625 160.774414062 l 1
 70.466796875 227.22265625 l 1
 65.724609375 298.356445312 l 1
261.872642488 388.495117188 m 1
 224.10965737 398.473632812 l 1
 186.330626113 407.794921875 l 1
 159.118164062 407.794921875 l 1
 137.500976562 407.794921875 l 1
 137.500976562 395.68359375 l 1
 137.500976562 378.573242188 l 1
 137.500976562 376.501953125 l 1
 136.037109375 375.038085938 l 1
 124.62890625 363.629882812 l 1
 115.092773438 354.09375 l 1
 126.0078125 296.791015625 l 1
 137.416015625 235.952148438 l 1
 137.500976562 235.495117188 l 1
 137.500976562 235.030273438 l 1
 137.500976562 162.783203125 l 1
 137.500976562 94.951171875 l 1
 149.466796875 90.46484375 l 1
 164.100304204 85.0791015625 l 1
 188.097840963 85.0791015625 l 1
 212.338209303 85.0791015625 l 1
 242.132681456 105.025390625 l 1
 272.289796366 125.213867188 l 1
 301.506835938 183.973632812 l 1
 329.234375 242.200195312 l 1
 318.267578125 285.150390625 l 1
 307.10546875 329.80078125 l 1
 284.895507812 359.412109375 l 1
 261.872642488 388.495117188 l 1
EndSplineSet
Validated: 524289
EndChar

StartChar: c
Encoding: 99 99 39
Width: 387
VWidth: 0
Flags: HW
LayerCount: 2
Fore
SplineSet
329.908203125 350.12890625 m 1
 325.068359375 345.594726562 l 1
 322.92578125 342.217773438 l 1
 320.036132812 343.125 l 1
 277.493164062 356.471679688 l 1
 235.721679688 370.166015625 l 1
 209.032226562 370.166015625 l 1
 184.08203125 370.166015625 l 1
 162.97265625 354.80078125 l 1
 142.206054688 338.084960938 l 1
 126.015625 306.549804688 l 1
 108.900390625 274.5546875 l 1
 105.666992188 246.265625 l 1
 102.341796875 217.162109375 l 1
 97.34765625 160.560546875 l 1
 92.66015625 112.008789062 l 1
 128.53125 96.0166015625 l 1
 165.95703125 80.2587890625 l 1
 195.823242188 89.689453125 l 1
 224.866210938 99.3466796875 l 1
 224.866210938 97.666015625 l 1
 224.866210938 104.333007812 l 1
 224.866210938 110.70703125 l 1
 226.78515625 112.208007812 l 1
 265.165039062 142.317382812 l 1
 304.379882812 167.509765625 l 1
 305.709960938 168.5 l 1
 307.366210938 168.5 l 1
 322.366210938 168.5 l 1
 338.19921875 168.5 l 1
 343.19921875 168.5 l 1
 343.19921875 163.5 l 1
 343.19921875 155.166015625 l 1
 343.19921875 146 l 1
 343.19921875 147.453125 l 1
 341.798828125 146 l 1
 296.798828125 99.3330078125 l 1
 251.798828125 52.666015625 l 1
 251.046875 53.064453125 l 1
 250.040039062 52.666015625 l 1
 209.982421875 36.8544921875 l 1
 169.090820312 21.8330078125 l 1
 168.255859375 21.8330078125 l 1
 157.366210938 21.8330078125 l 1
 154.032226562 21.8330078125 l 1
 111.532226562 21.8330078125 l 1
 120.1171875 21.8330078125 l 1
 118.912109375 21.8330078125 l 1
 86.3876953125 41.8486328125 l 1
 54.6962890625 61.8330078125 l 1
 52.771484375 63.048828125 l 1
 52.4248046875 61.8330078125 l 1
 47.4365234375 94.4052734375 l 1
 41.615234375 126 l 1
 41.5 126.626953125 l 1
 41.544921875 126.712890625 l 1
 47.3779296875 207.998046875 l 1
 52.3759765625 288.80859375 l 1
 52.666015625 288.5 l 1
 67.3662109375 288.5 l 1
 54.8662109375 288.5 l 1
 66.5322265625 288.5 l 1
 66.5322265625 306 l 1
 66.5322265625 322.666015625 l 1
 66.5322265625 321.21875 l 1
 67.9091796875 322.666015625 l 1
 116.2421875 373.499023438 l 1
 163.741210938 423.5 l 1
 165.37890625 423.682617188 l 1
 167.75 423.5 l 1
 221.91015625 419.333007812 l 1
 276.91015625 415.166015625 l 1
 277.8515625 415.094726562 l 1
 278.702148438 415.166015625 l 1
 301.1328125 404.301757812 l 1
 323.563476562 394.333007812 l 1
 325.622070312 393.41796875 l 1
 326.30078125 394.333007812 l 1
 331.311523438 378.465820312 l 1
 336.322265625 361.833007812 l 1
 337.270507812 356.265625 l 1
 334.733398438 354.151367188 l 1
 329.908203125 350.12890625 l 1
EndSplineSet
Validated: 524293
EndChar

StartChar: d
Encoding: 100 100 40
Width: 476
VWidth: 0
Flags: HW
LayerCount: 2
Fore
SplineSet
58.6875 268.720703125 m 1
 60.7119140625 286.552734375 l 1
 61.8173828125 304.970703125 l 1
 62.9326171875 327.884765625 l 1
 62.9384765625 328.01171875 l 1
 62.951171875 328.138671875 l 1
 65.1826171875 349.98828125 l 1
 65.3603515625 351.7265625 l 1
 66.623046875 352.961914062 l 1
 124.651367188 409.770507812 l 1
 184.721291473 466.578125 l 1
 186.281520193 468.04296875 l 1
 188.48915536 468.04296875 l 1
 231.307493642 468.04296875 l 1
 274.12687277 468.04296875 l 1
 276.334507937 468.04296875 l 1
 277.894736657 466.578125 l 1
 290.978175624 454.303710938 l 1
 294.975025714 450.5546875 l 1
 300.942197996 503.749023438 l 1
 308.012667439 565.671875 l 1
 300.951565614 619.783203125 l 1
 293.815522849 674.46484375 l 1
 293.083807845 680.072265625 l 1
 299.10510414 680.072265625 l 1
 313.376148823 680.072265625 l 1
 321.1953125 680.072265625 l 1
 319.580078125 694.606445312 l 1
 319.56640625 694.736328125 l 1
 319.55859375 694.865234375 l 1
 318.442382812 713.8359375 l 1
 318.42578125 714.122070312 l 1
 318.44140625 714.407226562 l 1
 319.557617188 734.494140625 l 1
 320.673828125 754.58203125 l 1
 320.97265625 759.958984375 l 1
 326.3125 759.262695312 l 1
 352.0078125 755.91015625 l 1
 376.559570312 752.5625 l 1
 380.865234375 751.975585938 l 1
 380.883789062 747.629882812 l 1
 382 485.36328125 l 1
 382 228.875976562 l 1
 390.849609375 180.104492188 l 1
 399.662109375 131.54296875 l 1
 416.133789062 97.1181640625 l 1
 432.883789062 61.0146484375 l 1
 433.594726562 59.482421875 l 1
 433.194335938 57.8447265625 l 1
 426.499023438 30.5126953125 l 1
 419.803710938 3.1796875 l 1
 418.883789062 -0.6533203125 l 1
 414.94140625 -0.6533203125 l 1
 393.73828125 -0.6533203125 l 1
 372.536132812 -0.6533203125 l 1
 370.1328125 -0.6533203125 l 1
 368.631835938 1.2236328125 l 1
 355.30078125 17.5361328125 l 1
 340.858398438 33.8505859375 l 1
 339.971679688 34.8515625 l 1
 339.72265625 36.154296875 l 1
 333.041015625 71.041015625 l 1
 325.8515625 103.209960938 l 1
 315.157226562 106.700195312 l 1
 305.859156284 109.578125 l 1
 296.956797217 87.775390625 l 1
 286.252733069 61.556640625 l 1
 285.744800037 60.3134765625 l 1
 284.623808488 59.4755859375 l 1
 265.668955106 45.3310546875 l 1
 246.71202003 30.0947265625 l 1
 245.586865096 29.1904296875 l 1
 244.115108318 28.955078125 l 1
 189.457142491 20.224609375 l 1
 135.84375 10.40234375 l 1
 133.987304688 10.046875 l 1
 132.35546875 10.9833984375 l 1
 99.9921875 29.5556640625 l 1
 67.6298828125 48.1279296875 l 1
 66.2900390625 48.896484375 l 1
 65.630859375 50.2734375 l 1
 48.8916015625 85.2314453125 l 1
 32.1533203125 120.190429688 l 1
 31.6806640625 121.177734375 l 1
 31.6806640625 122.267578125 l 1
 31.6806640625 181.260742188 l 1
 31.6806640625 240.25390625 l 1
 31.6806640625 242.28125 l 1
 33.14453125 243.71484375 l 1
 46.5361328125 256.825195312 l 1
 58.6875 268.720703125 l 1
341.826171875 582.24609375 m 1
 346.680664062 587.100585938 l 1
 356.536132812 596.956054688 l 1
 346.6796875 606.811523438 l 1
 341.826171875 611.666015625 l 1
 341.826171875 596.956054688 l 1
 341.826171875 582.24609375 l 1
294.00495689 372.454101562 m 1
 268.686368754 381.361328125 l 1
 241.046693197 391.086914062 l 1
 220.603429495 391.086914062 l 1
 202.71232111 391.086914062 l 1
 174.59073368 362.591796875 l 1
 145.830078125 331.963867188 l 1
 128.29296875 292.505859375 l 1
 110.71484375 252.954101562 l 1
 103 201.161132812 l 1
 95.1884765625 149.827148438 l 1
 94.833984375 147.501953125 l 1
 92.8173828125 146.291992188 l 1
 81.658203125 139.596679688 l 1
 77.1572265625 136.895507812 l 1
 103.112304688 118.99609375 l 1
 133.92578125 98.0869140625 l 1
 160.769334632 87.1357421875 l 1
 188.391315801 76.7685546875 l 1
 216.113218222 88.2138671875 l 1
 245.152832157 99.7412109375 l 1
 266.891949599 144.828125 l 1
 289.491846996 191.697265625 l 1
 290.083047739 192.922851562 l 1
 291.249836528 193.705078125 l 1
 299.574525856 199.28515625 l 1
 305.48965582 203.25 l 1
 299.732734506 287.524414062 l 1
 294.00495689 372.454101562 l 1
EndSplineSet
Validated: 524289
EndChar

StartChar: e
Encoding: 101 101 41
Width: 462
VWidth: 0
Flags: HW
LayerCount: 2
Fore
SplineSet
86.8330078125 375.80859375 m 1
 131.001953125 420.84375 l 1
 177.61498088 465.010742188 l 1
 179.174718717 466.44140625 l 1
 181.360232148 466.44140625 l 1
 206.355736145 466.44140625 l 1
 232.276844779 466.44140625 l 1
 233.566005187 466.44140625 l 1
 234.713086329 465.892578125 l 1
 274.588259449 446.822265625 l 1
 313.092773438 426.885742188 l 1
 314.905273438 425.893554688 l 1
 315.48828125 423.911132812 l 1
 319.815429688 409.19921875 l 1
 319.862304688 409.037109375 l 1
 319.899414062 408.872070312 l 1
 321.77734375 400.418945312 l 2
 322.609375 400.973632812 322.663085938 401.008789062 323.495117188 401.563476562 c 2
 323.663085938 401.67578125 l 1
 323.840820312 401.774414062 l 1
 331.62890625 406.100585938 l 1
 339.056640625 410.2265625 l 1
 339.056640625 401.729492188 l 1
 339.056640625 333.365234375 l 1
 339.056640625 265 l 1
 339.056640625 260.255859375 l 1
 334.319335938 260.006835938 l 1
 283.518359263 257.412109375 l 1
 229.867765442 253.953125 l 1
 229.683898155 253.94140625 l 1
 229.500030868 253.94140625 l 1
 187.840509306 253.94140625 l 1
 146.653320312 253.94140625 l 1
 146.321289062 253.94140625 l 1
 145.9921875 253.985351562 l 1
 119.94921875 257.458007812 l 1
 99.5078125 260.864257812 l 1
 97.1298828125 199.037109375 l 1
 94.6005859375 133.262695312 l 1
 111.759765625 109.56640625 l 1
 128.918945312 85.87109375 l 1
 164.256395676 75.9765625 l 1
 202.140369656 66.701171875 l 1
 245.664681598 70.939453125 l 1
 288.203840975 74.2529296875 l 1
 307.155273438 91.99609375 l 1
 307.236328125 92.0771484375 l 1
 307.3203125 92.1533203125 l 1
 327.224609375 110.326171875 l 1
 328.65625 111.633789062 l 1
 330.595703125 111.633789062 l 1
 337.518554688 111.633789062 l 1
 341.576171875 111.633789062 l 1
 358.342773438 127.602539062 l 1
 377.424804688 144.94921875 l 1
 378.854492188 146.25 l 1
 380.788085938 146.25 l 1
 395.499023438 146.25 l 1
 411.076171875 146.25 l 1
 413.751953125 146.25 l 1
 415.236328125 144.0234375 l 1
 420.428710938 136.234375 l 1
 420.541015625 136.06640625 l 1
 420.639648438 135.888671875 l 1
 424.966796875 128.099609375 l 1
 426.744140625 124.900390625 l 1
 424.23046875 122.23828125 l 1
 394.83203125 91.1123046875 l 1
 366.30078125 59.986328125 l 1
 364.814453125 58.365234375 l 1
 362.615234375 58.365234375 l 1
 351.365234375 58.365234375 l 1
 342.58203125 58.365234375 l 1
 319.640625 41.978515625 l 1
 295.529280832 25.5263671875 l 1
 294.749934264 25.013671875 l 1
 293.82955313 24.7841796875 l 1
 252.170031568 14.3984375 l 1
 210.510510006 4.0146484375 l 1
 209.341490154 3.72265625 l 1
 208.151576293 3.9306640625 l 1
 153.48031009 13.458984375 l 1
 103.235351562 23.853515625 l 1
 101.813476562 24.1484375 l 1
 100.76953125 25.1591796875 l 1
 73.0791015625 51.9833984375 l 1
 46.251953125 77.9453125 l 1
 44.9306640625 79.2236328125 l 1
 44.7529296875 81.0546875 l 1
 38.69140625 143.396484375 l 1
 33.4970703125 205.73828125 l 1
 33.4228515625 206.623046875 l 1
 33.658203125 207.479492188 l 1
 43.177734375 242.094726562 l 1
 52.62890625 276.4609375 l 1
 56.9296875 302.263671875 l 1
 62.1416015625 327.454101562 l 1
 62.4248046875 328.821289062 l 1
 63.3740234375 329.84375 l 1
 74.6240234375 341.959960938 l 1
 74.75 342.095703125 l 1
 74.8857421875 342.221679688 l 1
 85.4033203125 351.98828125 l 1
 85.4033203125 361.057617188 l 1
 85.4033203125 372.307617188 l 1
 85.4033203125 374.350585938 l 1
 86.8330078125 375.80859375 l 1
285.020638572 354.288085938 m 1
 266.188867484 375.09375 l 1
 246.529693606 395.865234375 l 1
 214.687222577 395.865234375 l 1
 183.108016073 395.865234375 l 1
 162.479360137 370.15234375 l 1
 140.533203125 341.96484375 l 1
 131.180664062 323.260742188 l 1
 121.365234375 305.262695312 l 2
 121.365234375 304.262695312 121.365234375 304.076171875 121.365234375 303.076171875 c 0
 121.365234375 301.978515625 137.168945312 299.080078125 140.077148438 298.409179688 c 2
 160.628150863 293.002929688 l 1
 169.603172799 299.994140625 l 1
 180.712517842 308.6484375 l 1
 182.072717884 309.708007812 l 1
 183.840351119 309.799804688 l 1
 233.837627316 312.395507812 l 1
 280.228597411 314.76171875 l 1
 282.509178587 333.938476562 l 1
 285.020638572 354.288085938 l 1
EndSplineSet
Validated: 524289
EndChar

StartChar: f
Encoding: 102 102 42
Width: 585
VWidth: 0
Flags: HW
LayerCount: 2
Fore
SplineSet
410.568359375 306.612304688 m 1
 306.002913121 314.067382812 l 1
 276.851234821 314.067382812 l 1
 253.150699951 314.823242188 l 1
 254.850738317 278.216796875 l 1
 256.766087665 236.052734375 l 1
 272.101127622 195.692382812 l 1
 287.713724863 153.674804688 l 1
 287.925974551 153.102539062 l 1
 287.989241285 152.497070312 l 1
 293.844475466 96.4560546875 l 1
 298.724177427 40.4150390625 l 1
 298.935406684 37.9912109375 l 1
 297.072099327 36.3359375 l 1
 283.418729975 24.203125 l 1
 283.27791047 24.078125 l 1
 283.127907085 23.962890625 l 1
 268.499005513 12.7626953125 l 1
 265.888742523 10.763671875 l 1
 262.89887913 12.1953125 l 1
 231.720624483 27.1142578125 l 1
 201.517902055 41.099609375 l 1
 198.568855909 42.4658203125 l 1
 198.568855909 45.6005859375 l 1
 198.568855909 63.333984375 l 1
 198.568855909 81.0673828125 l 1
 198.568855909 83.8984375 l 1
 201.105647853 85.3544921875 l 1
 210.857908758 90.9541015625 l 1
 218.073377718 95.0986328125 l 1
 218.073377718 120.267578125 l 1
 218.073377718 142.333984375 l 1
 214.521256738 142.333984375 l 1
 205.743507622 142.333984375 l 1
 201.251569514 142.333984375 l 1
 200.578084927 146.584960938 l 1
 195.716750727 177.298828125 l 1
 189.861516546 207.185546875 l 1
 183.01748454 253.02734375 l 1
 176.190799864 298.759765625 l 1
 175.06628469 306.29296875 l 1
 182.737886393 304.291015625 l 1
 204.110817714 298.711914062 l 1
 218.073377718 295.530273438 l 1
 218.073377718 298.802734375 l 1
 190.299281528 308.76953125 l 1
 161.73046875 318.517578125 l 1
 122.1015625 308.609375 l 1
 80.1015625 298.342773438 l 1
 77.2646484375 297.649414062 l 1
 75.2666015625 299.780273438 l 1
 61.322265625 314.655273438 l 1
 47.37890625 328.598632812 l 1
 44.7333984375 331.244140625 l 1
 46.525390625 334.528320312 l 1
 52.1259765625 344.794921875 l 1
 52.2060546875 344.942382812 l 1
 52.296875 345.084960938 l 1
 58.830078125 355.3515625 l 1
 59.5380859375 356.463867188 l 1
 60.7021484375 357.083007812 l 1
 90.623046875 372.978515625 l 1
 120.544921875 387.938476562 l 1
 121.538085938 388.435546875 l 1
 122.649414062 388.46484375 l 1
 158.116210938 389.3984375 l 1
 189.944171473 390.208007812 l 1
 193.694256104 508.666992188 l 1
 196.619832332 631.84765625 l 1
 196.666772167 633.852539062 l 1
 198.148438258 635.26953125 l 1
 236.1605206 671.646484375 l 1
 273.196050291 708.0234375 l 1
 273.969537135 708.783203125 l 1
 274.998131776 709.176757812 l 1
 289.627033348 714.776367188 l 1
 304.25593492 720.376953125 l 1
 305.552902965 720.873046875 l 1
 306.935587231 720.684570312 l 1
 341.069010611 716.017578125 l 1
 375.203454422 711.350585938 l 1
 375.575911807 711.298828125 l 1
 375.938164881 711.197265625 l 1
 392.480374938 706.541992188 l 1
 409.453125 701.884765625 l 1
 412.258789062 701.10546875 l 1
 412.965820312 698.280273438 l 1
 420.4140625 668.483398438 l 1
 428.793945312 638.6875 l 1
 429.416992188 636.474609375 l 1
 428.141601562 634.560546875 l 1
 426.275390625 631.760742188 l 1
 426 631.348632812 l 1
 425.650390625 630.999023438 l 1
 423.783203125 629.131835938 l 1
 421.563476562 626.912109375 l 1
 418.600585938 627.946289062 l 1
 377.619835485 641.946289062 l 1
 338.5005853 655.004882812 l 1
 328.028920405 646.524414062 l 1
 314.300039145 636.202148438 l 1
 305.846787149 629.846679688 l 1
 305.846787149 640.133789062 l 1
 305.846787149 650.400390625 l 1
 305.846787149 652.768554688 l 2
 304.950848562 652.254882812 304.903908727 652.2265625 304.00797014 651.712890625 c 2
 295.5598203 646.862304688 l 1
 277.747173408 612.768554688 l 1
 260.678420856 577.375 l 1
 258.75592849 505.607421875 l 1
 256.80486405 431.873046875 l 1
 256.791598445 431.376953125 l 1
 256.67628972 430.891601562 l 1
 251.775158704 410.25390625 l 1
 247.35567121 394.745117188 l 1
 265.34689356 391.158203125 l 1
 287.81372712 386.483398438 l 1
 336.555643448 376.221679688 l 1
 385.871042106 366.041992188 l 1
 445.678710938 363.262695312 l 1
 506.345703125 360.461914062 l 1
 510.612304688 360.264648438 l 1
 511.083984375 356.018554688 l 1
 513.883789062 330.8203125 l 1
 516.684570312 305.620117188 l 1
 517.34375 299.692382812 l 1
 511.391601562 300.078125 l 1
 410.568359375 306.612304688 l 1
237.578919957 561.765625 m 1
 237.578919957 577.600585938 l 1
 237.578919957 590.333984375 l 1
 233.051266757 590.333984375 l 1
 228.522593126 590.333984375 l 1
 228.522593126 571.067382812 l 1
 228.522593126 556.564453125 l 2
 229.419552144 557.079101562 229.46751241 557.106445312 230.363450997 557.62109375 c 2
 237.578919957 561.765625 l 1
83.5712890625 341.83984375 m 1
 81.115234375 346.752929688 l 1
 76.447265625 353.75390625 l 1
 76.447265625 342.734375 l 1
 76.447265625 337.565429688 l 2
 77.3056640625 338.080078125 77.3505859375 338.106445312 78.2080078125 338.62109375 c 2
 83.5712890625 341.83984375 l 1
EndSplineSet
Validated: 524289
EndChar

StartChar: g
Encoding: 103 103 43
Width: 520
VWidth: 0
Flags: HW
LayerCount: 2
Fore
SplineSet
176.217750683 -102.572265625 m 1
 154.239257812 -119.111328125 l 1
 121.829101562 -149.668945312 l 1
 91.0869140625 -178.65625 l 1
 96.3701171875 -222.689453125 l 1
 101.802734375 -267.95703125 l 1
 119.673828125 -292.978515625 l 1
 136.954101562 -317.16796875 l 1
 200.205011757 -322.549804688 l 1
 266.604065534 -328.067382812 l 1
 305.340909436 -319.860351562 l 1
 342.594726562 -311.838867188 l 1
 362.89453125 -288.890625 l 1
 382.1953125 -266.079101562 l 1
 383.083007812 -228.810546875 l 1
 383.083007812 -189.80859375 l 1
 382.15234375 -40.884765625 l 1
 381.225585938 104.3984375 l 1
 369.256835938 153.991210938 l 1
 358.065429688 200.354492188 l 1
 348.991210938 200.354492188 l 1
 339.59375 200.354492188 l 1
 328.363535346 167.276367188 l 1
 315.51106834 130.815429688 l 1
 315.135586696 129.75 l 1
 314.295420586 128.94140625 l 1
 291.480243098 106.991210938 l 1
 267.670350425 85.9541015625 l 1
 266.36653709 84.8017578125 l 1
 264.570033753 84.6220703125 l 1
 219.15231341 80.0703125 l 1
 173.731481341 74.607421875 l 1
 171.308483768 74.3154296875 l 1
 169.492272831 75.8232421875 l 1
 150.423828125 92.2314453125 l 1
 131.807617188 108.63671875 l 1
 131.103515625 109.2578125 l 1
 130.6796875 110.086914062 l 1
 116.719726562 137.432617188 l 1
 102.758789062 164.776367188 l 1
 102.322265625 165.629882812 l 1
 102.24609375 166.581054688 l 1
 96.66015625 235.85546875 l 1
 91.076171875 305.129882812 l 1
 90.9541015625 306.640625 l 1
 91.7255859375 307.955078125 l 1
 113.1328125 344.416015625 l 1
 134.541015625 380.875976562 l 1
 135.013671875 381.6796875 l 1
 135.752929688 382.258789062 l 1
 159.021484375 400.48828125 l 1
 183.56972277 418.71875 l 1
 184.065524499 419.083984375 l 1
 184.641193871 419.33203125 l 1
 199.527692658 425.737304688 l 1
 215.404757661 432.142578125 l 1
 216.422292172 432.561523438 l 1
 217.533178474 432.561523438 l 1
 242.141747573 432.561523438 l 1
 266.750316672 433.487304688 l 1
 268.42442544 433.549804688 l 1
 269.833000228 432.697265625 l 1
 283.750714882 424.275390625 l 1
 296.677863319 415.849609375 l 1
 299.952436666 413.71484375 l 1
 298.693224742 410.157226562 l 1
 291.810086089 390.712890625 l 1
 285.909215716 371.272460938 l 1
 284.808701836 367.646484375 l 1
 280.8028728 367.646484375 l 1
 242.247546268 367.646484375 l 1
 207.157645631 367.646484375 l 1
 183.045915504 341.180664062 l 1
 158.65234375 314.1953125 l 1
 156.901367188 287.661132812 l 1
 155.987304688 259.021484375 l 1
 157.79296875 245.768554688 l 1
 159.655273438 232.116210938 l 1
 159.688476562 231.873046875 l 1
 159.696289062 231.627929688 l 1
 160.62890625 203.337890625 l 1
 160.62890625 176.836914062 l 1
 181.06478307 154.528320312 l 1
 200.668658981 133.043945312 l 1
 225.604996587 127.942382812 l 1
 248.745868098 123.208984375 l 1
 264.521283374 144.994140625 l 1
 281.903386681 168.994140625 l 1
 303.43238395 231.15625 l 1
 325.911494994 294.139648438 l 1
 325.911494994 327.940429688 l 1
 325.911494994 359.755859375 l 1
 318.605161559 363.791015625 l 1
 308.718169751 369.290039062 l 1
 306.139585862 370.74609375 l 1
 306.139585862 373.577148438 l 1
 306.139585862 382.884765625 l 1
 306.139585862 391.26171875 l 1
 306.139585862 396.26171875 l 1
 311.450265473 396.26171875 l 1
 329.246228383 396.26171875 l 1
 344.127929688 396.26171875 l 1
 352.90234375 405.03515625 l 1
 363.140625 415.2734375 l 1
 365.786132812 417.918945312 l 1
 369.0703125 416.127929688 l 1
 379.309570312 410.541992188 l 1
 379.45703125 410.4609375 l 1
 379.599609375 410.37109375 l 1
 389.836914062 403.856445312 l 1
 392.15234375 402.3828125 l 1
 392.15234375 399.637695312 l 1
 392.15234375 351.649414062 l 1
 393.051757812 305.926757812 l 1
 405.126953125 289.903320312 l 1
 419.076171875 271.717773438 l 1
 420.076171875 270.4140625 l 1
 420.076171875 268.784179688 l 1
 420.076171875 220.549804688 l 1
 420.076171875 172.3828125 l 1
 433.662109375 140.500976562 l 1
 447.633789062 106.805664062 l 1
 447.985351562 105.958007812 l 1
 447.999023438 105.043945312 l 1
 450.791015625 -72.44921875 l 1
 452.654296875 -254.880859375 l 1
 452.666015625 -256.060546875 l 1
 452.149414062 -257.122070312 l 1
 434.485351562 -293.373046875 l 1
 417.75390625 -329.625976562 l 1
 417.2890625 -330.631835938 l 1
 416.443359375 -331.346679688 l 1
 392.286132812 -351.790039062 l 1
 368.126953125 -373.16015625 l 1
 367.330078125 -373.865234375 l 1
 366.315429688 -374.184570312 l 1
 315.021490064 -390.0078125 l 1
 261.637750303 -405.831054688 l 1
 260.392022527 -406.200195312 l 1
 259.105842309 -405.983398438 l 1
 192.857188638 -394.8125 l 1
 129.60546875 -383.641601562 l 1
 129.110351562 -383.551757812 l 1
 128.643554688 -383.365234375 l 1
 105.455078125 -374.08984375 l 1
 82.2666015625 -365.743164062 l 1
 80.8427734375 -365.231445312 l 1
 79.9423828125 -364.014648438 l 1
 61.328125 -338.884765625 l 1
 42.7109375 -313.75390625 l 1
 41.728515625 -312.427734375 l 1
 41.728515625 -310.77734375 l 1
 41.728515625 -237.21484375 l 1
 42.66015625 -164.58203125 l 1
 42.69140625 -162.151367188 l 1
 44.623046875 -160.674804688 l 1
 60.5224609375 -148.517578125 l 1
 74.306640625 -138.786132812 l 1
 74.306640625 -131.138671875 l 1
 74.306640625 -119.969726562 l 1
 74.306640625 -117.208984375 l 1
 76.642578125 -115.73828125 l 1
 101.752929688 -99.927734375 l 1
 127.150390625 -83.6025390625 l 1
 131.311523438 -78.607421875 l 1
 135.965820312 -73.0234375 l 1
 137.123046875 -71.634765625 l 1
 138.900390625 -71.3076171875 l 1
 175.023885012 -64.794921875 l 1
 211.602228079 -58.2802734375 l 1
 217.900362181 -57.1591796875 l 1
 217.900362181 -63.193359375 l 1
 217.900362181 -73.4306640625 l 1
 217.900362181 -82.740234375 l 1
 217.900362181 -87.740234375 l 1
 212.58968257 -87.740234375 l 1
 204.680711468 -87.740234375 l 1
 198.462445009 -87.740234375 l 1
 176.217750683 -102.572265625 l 1
92.921875 -310.431640625 m 1
 92.921875 -302.400390625 l 1
 92.921875 -291.7734375 l 1
 80.8359375 -282.104492188 l 1
 75 -277.434570312 l 1
 75 -284.740234375 l 1
 80.2646484375 -298.783203125 l 1
 84.6328125 -310.431640625 l 1
 89.5458984375 -310.431640625 l 1
 92.921875 -310.431640625 l 1
EndSplineSet
Validated: 524289
EndChar

StartChar: h
Encoding: 104 104 44
Width: 545
VWidth: 0
Flags: HW
LayerCount: 2
Fore
SplineSet
45.9111328125 719.772460938 m 1
 52.6484375 726.510742188 l 1
 59.38671875 733.249023438 l 1
 63.166015625 737.02734375 l 1
 66.685546875 733.004882812 l 1
 86.82421875 709.98828125 l 1
 97.3349609375 699 l 1
 107.921875 687.931640625 l 1
 109.287109375 686.504882812 l 1
 109.30859375 684.530273438 l 1
 111.234375 507.428710938 l 1
 113.137695312 334.650390625 l 1
 118.432617188 329.453125 l 1
 121.735351562 326.209960938 l 1
 169.636472433 370.178710938 l 1
 222.103891159 416.471679688 l 1
 223.617994538 417.807617188 l 1
 225.698223116 417.807617188 l 1
 265.049554961 417.807617188 l 1
 303.390460819 417.807617188 l 1
 305.340675111 417.807617188 l 1
 306.816900313 416.614257812 l 1
 329.01556 398.6640625 l 1
 351.213195953 380.712890625 l 1
 352.668946464 379.536132812 l 1
 352.96582948 377.756835938 l 1
 363.048590929 317.3359375 l 1
 374.138707162 257.858398438 l 1
 374.248246757 257.274414062 l 1
 374.205249907 256.681640625 l 1
 367.141481605 159.368164062 l 1
 360.463661224 68.2470703125 l 1
 370.993794666 68.2470703125 l 1
 381.696289062 68.2470703125 l 1
 381.696289062 71.8427734375 l 1
 381.696289062 80.3447265625 l 1
 381.696289062 83.8115234375 l 1
 385.024414062 84.9697265625 l 1
 414.885742188 95.37109375 l 1
 445.708984375 105.770507812 l 1
 446.499023438 106.037109375 l 1
 447.333984375 106.037109375 l 1
 469.471679688 106.037109375 l 1
 492.571289062 106.037109375 l 1
 497.571289062 106.037109375 l 1
 497.571289062 101.129882812 l 1
 497.571289062 94.5166015625 l 1
 497.571289062 86.9580078125 l 1
 497.571289062 83.8232421875 l 1
 494.673828125 82.5048828125 l 1
 455.279296875 64.5859375 l 1
 417.602539062 46.0947265625 l 1
 382.579101562 10.7880859375 l 1
 345.488472426 -25.11328125 l 1
 343.944680745 -26.625 l 1
 341.732390412 -26.625 l 1
 325.589120507 -26.625 l 1
 308.435424615 -26.625 l 1
 305.917037655 -26.625 l 1
 304.342533938 -24.748046875 l 1
 292.299320852 -10.3876953125 l 1
 279.249776716 3.9755859375 l 1
 277.588255563 5.765625 l 1
 278.061220919 8.0927734375 l 1
 289.163621967 62.755859375 l 1
 300.190266658 116.109375 l 1
 305.218850701 220.333984375 l 1
 310.154274901 323.5703125 l 1
 288.71522624 341.848632812 l 1
 267.994839223 360.317382812 l 1
 256.977408142 360.317382812 l 1
 246.935596074 360.317382812 l 1
 233.377255874 348.500976562 l 1
 219.315238281 335.370117188 l 1
 219.180105323 335.243164062 l 1
 219.034735018 335.126953125 l 1
 196.837099065 317.225585938 l 1
 196.740868019 317.1484375 l 1
 196.641565769 317.075195312 l 1
 174.153189207 300.640625 l 1
 157.60546875 275.887695312 l 1
 141.9296875 252.41796875 l 1
 136.248046875 174.569335938 l 1
 131.4375 96.39453125 l 1
 131.40625 95.8818359375 l 1
 131.266601562 95.38671875 l 1
 123.572265625 68.083984375 l 1
 115.87890625 39.8388671875 l 1
 115.159179688 37.197265625 l 1
 112.484375 36.412109375 l 1
 102.859375 33.5849609375 l 1
 93.234375 30.7587890625 l 1
 90.7880859375 30.0400390625 l 1
 88.759765625 31.55859375 l 1
 72.451171875 43.7666015625 l 1
 55.1826171875 55.9755859375 l 1
 53.1884765625 57.3857421875 l 1
 53.1123046875 59.7919921875 l 1
 49.26171875 181.334960938 l 1
 45.41015625 303.866210938 l 1
 43.4853515625 467.827148438 l 1
 40.59765625 636.264648438 l 1
 40.5498046875 639.065429688 l 1
 42.9130859375 640.569335938 l 1
 64.087890625 654.043945312 l 1
 82.9462890625 666.044921875 l 1
 82.9462890625 676.775390625 l 1
 82.9462890625 685.25 l 1
 68.6962890625 685.25 l 1
 49.4462890625 685.25 l 1
 44.4462890625 685.25 l 1
 44.4462890625 690.25 l 1
 44.4462890625 702.762695312 l 1
 44.4462890625 716.237304688 l 1
 44.4462890625 718.30859375 l 1
 45.9111328125 719.772460938 l 1
72.359375 545.106445312 m 1
 72.359375 558.455078125 l 1
 73.1845703125 589 l 1
 68.6962890625 589 l 1
 64.375 589 l 1
 65.0263671875 577.931640625 l 1
 65.0341796875 577.78515625 l 1
 65.0341796875 577.637695312 l 1
 65.0341796875 561.385742188 l 1
 72.359375 545.106445312 l 1
EndSplineSet
Validated: 524289
EndChar

StartChar: i
Encoding: 105 105 45
Width: 239
VWidth: 0
Flags: HW
LayerCount: 2
Fore
SplineSet
60.732421875 499.533203125 m 1
 72.1083984375 517.711914062 l 1
 73.5791015625 517.711914062 l 1
 86.33984375 517.711914062 l 1
 101.778320312 517.711914062 l 1
 97.2158203125 517.711914062 l 1
 107.7109375 517.711914062 l 1
 108.196289062 517.711914062 l 1
 128.303710938 513.684570312 l 1
 149.111328125 509.657226562 l 1
 151.64453125 509.166992188 l 1
 152.712890625 509.657226562 l 1
 162.755859375 487.451171875 l 1
 173.46875 465.35546875 l 1
 174.404296875 463.42578125 l 1
 173.651367188 461.844726562 l 1
 169.604492188 450.951171875 l 1
 165.557617188 440.833984375 l 1
 164.674804688 435.711914062 l 1
 162.40625 435.002929688 l 1
 151.625976562 431.609375 l 1
 140.174804688 428.241210938 l 1
 139.645507812 427.893554688 l 1
 139.095703125 427.857421875 l 1
 108.890625 425.84375 l 1
 78.685546875 423.831054688 l 1
 75.4462890625 423.615234375 l 1
 73.931640625 429.140625 l 1
 61.1923828125 453.2265625 l 1
 48.4521484375 476.693359375 l 1
 47.013671875 478.956054688 l 1
 48.6865234375 481.46484375 l 1
 60.732421875 499.533203125 l 1
101.669921875 49.96875 m 1
 91.6748046875 64.6298828125 l 1
 90.7265625 66.0205078125 l 1
 90.8115234375 65.1376953125 l 1
 96.8525390625 183.69140625 l 1
 102.893554688 302.24609375 l 1
 102.981445312 300.9453125 l 1
 104.109375 302.24609375 l 1
 112.834960938 312.314453125 l 1
 121.561523438 322.3828125 l 1
 122.974609375 322.29296875 l 1
 125.131835938 322.3828125 l 1
 131.353515625 323.0546875 l 1
 146.887695312 323.0546875 l 1
 164.102539062 323.0546875 l 1
 161.569335938 319.543945312 l 1
 157.541992188 308.802734375 l 1
 153.833007812 298.913085938 l 1
 153.833007812 168 l 1
 153.833007812 34.423828125 l 1
 153.833007812 34.423828125 l 1
 158.833007812 34.423828125 l 1
 142.051757812 34.423828125 l 1
 105.271484375 34.423828125 l 1
 112.461914062 34.423828125 l 1
 111 34.423828125 l 1
 101.669921875 49.96875 l 1
EndSplineSet
Validated: 524293
EndChar

StartChar: j
Encoding: 106 106 46
Width: 398
VWidth: 0
Flags: HW
LayerCount: 2
Fore
SplineSet
216.006835938 413.09765625 m 1
 211.733398438 414.65234375 l 1
 204.870117188 416.7109375 l 1
 199.93359375 418.19140625 l 1
 201.563476562 423.081054688 l 1
 205.763671875 435.680664062 l 1
 205.818359375 435.84375 l 1
 205.883789062 436.002929688 l 1
 210.783203125 447.903320312 l 1
 212.057617188 451 l 1
 215.40625 451 l 1
 236.40625 451 l 1
 257.40625 451 l 1
 261.310546875 451 l 1
 262.2578125 447.212890625 l 1
 265.7578125 433.212890625 l 1
 268.310546875 423 l 1
 270.706054688 423 l 1
 277.006835938 423 l 1
 282.006835938 423 l 1
 282.006835938 418 l 1
 282.006835938 393.5 l 1
 282.006835938 369 l 1
 282.006835938 364 l 1
 277.006835938 364 l 1
 269.306640625 364 l 1
 261.606445312 364 l 1
 259.986328125 364 l 1
 258.673828125 364.950195312 l 1
 238.420898438 379.6171875 l 1
 218.168945312 393.583984375 l 1
 216.006835938 395.075195312 l 1
 216.006835938 397.700195312 l 1
 216.006835938 407.5 l 1
 216.006835938 413.09765625 l 1
248.173828125 270.21484375 m 1
 248.346679688 270.473632812 l 1
 252.545898438 276.7734375 l 1
 255.928710938 281.848632812 l 1
 260.2421875 277.536132812 l 1
 269.271484375 268.506835938 l 1
 278.297851562 260.173828125 l 1
 279.802734375 258.784179688 l 1
 279.901367188 256.739257812 l 1
 287.599609375 95.7607421875 l 1
 296 -65.2392578125 l 1
 296.024414062 -65.7021484375 l 1
 295.962890625 -66.1611328125 l 1
 293.151367188 -87.2412109375 l 1
 289.649414062 -108.2578125 l 1
 284.758789062 -143.193359375 l 1
 279.858398438 -178.193359375 l 1
 279.70703125 -179.275390625 l 1
 279.118164062 -180.1953125 l 1
 267.91796875 -197.6953125 l 1
 256.71875 -215.1953125 l 1
 256.274414062 -215.889648438 l 1
 255.630859375 -216.404296875 l 1
 245.130859375 -224.8046875 l 1
 234.630859375 -233.204101562 l 1
 233.307617188 -234.262695312 l 1
 231.61328125 -234.298828125 l 1
 198.66015625 -235 l 1
 165.706054688 -235 l 1
 164.778320312 -235 l 1
 163.911132812 -234.666992188 l 1
 145.741210938 -227.677734375 l 1
 126.870117188 -220.688476562 l 1
 125.783203125 -220.286132812 l 1
 124.984375 -219.446289062 l 1
 97.6845703125 -190.74609375 l 1
 70.384765625 -162.045898438 l 1
 69.103515625 -160.69921875 l 1
 69.0126953125 -158.84375 l 1
 67.6123046875 -130.138671875 l 1
 66.2119140625 -100.73828125 l 1
 66.19921875 -100.467773438 l 1
 66.2158203125 -100.197265625 l 1
 67.6162109375 -77.09765625 l 1
 69.0166015625 -53.9970703125 l 1
 69.1259765625 -52.1962890625 l 1
 70.359375 -50.8798828125 l 1
 80.859375 -39.6796875 l 1
 80.9697265625 -39.5625 l 1
 81.0869140625 -39.4521484375 l 1
 92.2861328125 -28.9521484375 l 1
 95.51171875 -25.9287109375 l 1
 98.9072265625 -28.7587890625 l 1
 103.107421875 -32.2587890625 l 1
 103.45703125 -32.5498046875 l 1
 103.748046875 -32.8984375 l 1
 107.248046875 -37.0986328125 l 1
 109.05078125 -39.2626953125 l 1
 108.134765625 -41.9248046875 l 1
 100.434570312 -64.3251953125 l 1
 93.0068359375 -85.9345703125 l 1
 93.0068359375 -98.400390625 l 1
 93.0068359375 -108.962890625 l 1
 120.942382812 -137.563476562 l 1
 150.403320312 -166.338867188 l 1
 176.198242188 -178.557617188 l 1
 201.7734375 -190 l 1
 206.306640625 -190 l 1
 209.516601562 -190 l 1
 224.205078125 -160.62109375 l 1
 239.077148438 -128.8515625 l 1
 234.908203125 28.16796875 l 1
 230.708007812 187.068359375 l 1
 230.688476562 187.8046875 l 1
 230.8828125 188.515625 l 1
 235.0546875 203.8125 l 1
 238.53125 219.108398438 l 1
 239.415039062 223 l 1
 243.40625 223 l 1
 253.206054688 223 l 1
 258.006835938 223 l 1
 258.006835938 234.799804688 l 1
 258.006835938 249.46875 l 1
 253.434570312 252.212890625 l 1
 246.434570312 256.413085938 l 1
 242.46484375 258.794921875 l 1
 244.53515625 262.936523438 l 1
 248.03515625 269.936523438 l 1
 248.173828125 270.21484375 l 1
EndSplineSet
Validated: 524289
EndChar

StartChar: k
Encoding: 107 107 47
Width: 477
VWidth: 0
Flags: HW
LayerCount: 2
Fore
SplineSet
127.736328125 38.1220703125 m 1
 100.91015625 20.8212890625 l 1
 74.4560546875 1.8974609375 l 1
 55.259765625 19.6533203125 l 1
 36.0400390625 36.3837890625 l 1
 45.580078125 97.0439453125 l 1
 54.6328125 153.61328125 l 1
 48.5322265625 739.467773438 l 1
 92.25 772.256835938 l 1
 107.064453125 773.395507812 l 1
 126.624023438 773.395507812 l 1
 117.224609375 729.926757812 l 1
 110.251953125 692.075195312 l 1
 111.241210938 672.270507812 l 1
 111.241210938 651.99609375 l 1
 127.232421875 297.211914062 l 1
 139.509765625 297.211914062 l 1
 174.939412108 334.124023438 l 1
 213.335169591 371.633789062 l 1
 247.023518659 410.834960938 l 1
 282.371876395 451.669921875 l 1
 305.290039062 472.12109375 l 1
 326.666015625 493.495117188 l 1
 343.090820312 506.83984375 l 1
 359.672851562 520.106445312 l 1
 407.965820312 520.106445312 l 1
 407.965820312 484.952148438 l 1
 379.469726562 450.125 l 1
 350.923828125 416.03125 l 1
 282.407802745 351.05078125 l 1
 207.752848904 286.181640625 l 1
 174.693210949 260.13671875 l 1
 144.70703125 237.473632812 l 1
 150.428710938 223.810546875 l 1
 155.626953125 209.323242188 l 1
 182.283180567 203.930664062 l 1
 211.399373358 197.823242188 l 1
 311.953125 152.729492188 l 1
 407.965820312 105.8046875 l 1
 407.965820312 79.9697265625 l 1
 388.465820312 72.6572265625 l 1
 369.765625 66.0576171875 l 1
 262.58913782 92.88671875 l 1
 193.124484796 122.438476562 l 1
 126.47265625 150.369140625 l 1
 116.75 150.369140625 l 1
 121.352539062 97.8310546875 l 1
 127.736328125 38.1220703125 l 1
84.0185546875 550.5 m 1
 84.0185546875 558.671875 l 1
 84.0185546875 569.315429688 l 1
 74.7265625 583.25390625 l 1
 73.755859375 584.709960938 l 1
 73.755859375 573.869140625 l 1
 73.755859375 550.5 l 1
 78.88671875 550.5 l 1
 84.0185546875 550.5 l 1
134.676757812 200.895507812 m 1
 134.676757812 206.02734375 l 1
 134.676757812 211.158203125 l 1
 129.544921875 211.158203125 l 1
 124.412109375 211.158203125 l 1
 124.412109375 206.02734375 l 1
 124.412109375 200.895507812 l 1
 129.544921875 200.895507812 l 1
 134.676757812 200.895507812 l 1
249.187552875 140.383789062 m 1
 241.178090296 152.719726562 l 1
 228.580621581 170.6328125 l 1
 218.360631863 170.6328125 l 1
 209.519579964 170.6328125 l 2
 209.519579964 169.6328125 209.519579964 170.553710938 209.519579964 169.553710938 c 2
 209.519579964 165.018554688 l 1
 227.069601596 153.3046875 l 1
 244.60271671 140.913085938 l 1
 249.187552875 140.383789062 l 1
EndSplineSet
Validated: 524289
EndChar

StartChar: l
Encoding: 108 108 48
Width: 248
VWidth: 0
Flags: HW
LayerCount: 2
Fore
SplineSet
119.872070312 726.118164062 m 1
 122.75 687.741210938 l 1
 137.171875 572.364257812 l 1
 151.609375 456.864257812 l 1
 151.649414062 456.541992188 l 1
 151.647460938 456.217773438 l 1
 150.685546875 278.21484375 l 1
 148.79296875 103.21875 l 1
 162.51953125 96.1083984375 l 1
 177.974609375 87.603515625 l 1
 180.522460938 86.201171875 l 1
 180.522460938 83.33984375 l 1
 180.522460938 67.3310546875 l 1
 180.522460938 67.1875 l 1
 180.514648438 67.0439453125 l 1
 179.552734375 51.0361328125 l 1
 179.456054688 49.4404296875 l 1
 178.416015625 48.2080078125 l 1
 160.161132812 26.587890625 l 1
 141.90625 4.02734375 l 1
 139.9609375 1.5703125 l 1
 136.901367188 2.25 l 1
 119.68359375 5.9990234375 l 1
 103.4296875 8.8095703125 l 1
 100.39453125 9.333984375 l 1
 99.5087890625 12.2255859375 l 1
 90.8466796875 40.513671875 l 1
 82.18359375 68.802734375 l 1
 81.97265625 69.4912109375 l 1
 81.97265625 70.2099609375 l 1
 81.97265625 277.659179688 l 1
 81.97265625 484.5703125 l 1
 72.466796875 527.346679688 l 1
 62.841796875 570.659179688 l 1
 62.7421875 571.109375 l 1
 62.7255859375 571.569335938 l 1
 59.837890625 654.346679688 l 1
 56.951171875 738.083984375 l 1
 56.712890625 745.0078125 l 1
 63.359375 743.052734375 l 1
 79.685546875 738.250976562 l 1
 92.9189453125 734.575195312 l 1
 99.75390625 749.004882812 l 1
 107.4296875 766.274414062 l 1
 115.498046875 784.4296875 l 1
 116.984375 764.618164062 l 1
 119.872070312 726.118164062 l 1
EndSplineSet
Validated: 524289
EndChar

StartChar: m
Encoding: 109 109 49
Width: 574
VWidth: 0
Flags: HW
LayerCount: 2
Fore
SplineSet
82.38671875 16.142578125 m 1
 77.181640625 15.3994140625 l 1
 67.4482421875 12.9375 l 1
 38.1513671875 71.533203125 l 1
 37.3486328125 182.235351562 l 1
 37.3486328125 285.984375 l 1
 21.4755859375 285.984375 l 1
 21.4755859375 335.604492188 l 1
 37.7783203125 347.37890625 l 1
 52.205078125 358.411132812 l 1
 58.6025390625 359.4765625 l 1
 67.986328125 359.4765625 l 1
 81.908203125 323.803710938 l 1
 92.7412109375 297.678710938 l 1
 98.68359375 302.772460938 l 1
 108.77734375 310.848632812 l 1
 108.77734375 336.416015625 l 1
 161.591685343 400.223632812 l 1
 186.697478714 397.5390625 l 1
 210.967934791 394.844726562 l 1
 249.04023353 319.918945312 l 1
 249.04023353 260.860351562 l 1
 249.781176694 208.833984375 l 1
 268.935064977 212.086914062 l 1
 281.058113128 241.978515625 l 1
 293.56584273 274.069335938 l 1
 313.59363795 307.790039062 l 1
 335.749868534 343.603515625 l 1
 410.359375 343.603515625 l 1
 421.1875 319.244140625 l 1
 431.4140625 297.212890625 l 1
 449.364257812 264.578125 l 1
 454.173828125 136.31640625 l 1
 454.173828125 113.4453125 l 1
 525.602539062 113.4453125 l 1
 525.602539062 63.76171875 l 1
 507.249023438 63.76171875 l 1
 494.58984375 63.05859375 l 1
 480.729492188 52.8447265625 l 1
 463.540039062 39.953125 l 1
 423.29296875 39.953125 l 1
 386.064984319 76.44140625 l 1
 391.273916261 123.21484375 l 1
 395.412033082 168.599609375 l 1
 400.40781699 197.44140625 l 1
 405.776367188 223.303710938 l 1
 387.127679514 250.977539062 l 1
 369.566311538 277.421875 l 1
 359.002289003 278.057617188 l 1
 350.16476554 278.047851562 l 1
 334.290312 247.5 l 1
 317.078100802 213.58984375 l 1
 296.549915198 162.236328125 l 1
 276.819512234 110.827148438 l 1
 261.09832228 60.4052734375 l 1
 226.163359595 54.4736328125 l 1
 207.361673063 88.84375 l 1
 199.073259533 254.75390625 l 1
 186.509705446 330.293945312 l 1
 175.240264419 332.1015625 l 1
 162.857378666 334.610351562 l 1
 154.005645333 322.162109375 l 1
 143.357378576 308.989257812 l 1
 142.630645281 296.401367188 l 1
 142.630645281 280.6171875 l 1
 124.142578125 255.465820312 l 1
 106.91015625 232.239257812 l 1
 111.748046875 16.142578125 l 1
 82.38671875 16.142578125 l 1
EndSplineSet
Validated: 524289
EndChar

StartChar: n
Encoding: 110 110 50
Width: 504
VWidth: 0
Flags: HW
LayerCount: 2
Fore
SplineSet
161.682617188 420.705078125 m 1
 195.683134143 449.678710938 l 1
 228.774871319 478.651367188 l 1
 230.314943969 480 l 1
 232.423674879 480 l 1
 270.887928364 480 l 1
 308.283730362 480 l 1
 308.897255239 480 l 1
 309.494085561 479.870117188 l 1
 353.172851562 469.870117188 l 1
 396.172851562 459.870117188 l 1
 397.498046875 459.561523438 l 1
 398.484375 458.625 l 1
 418.435546875 439.671875 l 1
 438.384765625 422.120117188 l 1
 440.088867188 420.62109375 l 1
 440.0390625 418.380859375 l 1
 436.040039062 238.5390625 l 1
 433.040039062 58.6708984375 l 1
 432.94921875 53.224609375 l 1
 427.419921875 53.900390625 l 1
 403.522460938 56.8203125 l 1
 379.625 58.767578125 l 1
 377.272460938 58.958984375 l 1
 375.9296875 60.85546875 l 1
 366.904296875 73.599609375 l 1
 358.879882812 85.365234375 l 1
 357.938476562 86.74609375 l 1
 358.051757812 88.4013671875 l 1
 363.051757812 161.717773438 l 1
 368.055664062 235.09765625 l 1
 375.05859375 308.446289062 l 1
 380.905273438 379.88671875 l 1
 367.040039062 397.958007812 l 1
 353.619140625 415.451171875 l 1
 307.437525133 413.603515625 l 1
 257.343427645 411.693359375 l 1
 233.827060864 400.467773438 l 1
 212.123096651 390.107421875 l 1
 212.123096651 380.362304688 l 1
 212.123096651 367.654296875 l 1
 212.123096651 364.922851562 l 1
 209.581350734 363.491210938 l 1
 195.773910783 355.717773438 l 1
 184.252581384 348.690429688 l 1
 172.103119373 325.532226562 l 1
 160.803710938 301.583984375 l 1
 153.909179688 272.69921875 l 1
 147.015625 243.818359375 l 1
 144.037109375 175.880859375 l 1
 142.038085938 107.48828125 l 1
 142.029296875 107.184570312 l 1
 141.982421875 106.883789062 l 1
 133.990234375 56.103515625 l 1
 126.997070312 4.345703125 l 1
 126.712890625 2.193359375 l 1
 124.946289062 0.931640625 l 1
 117.946289062 -4.068359375 l 1
 117.626953125 -4.296875 l 1
 117.276367188 -4.4716796875 l 1
 109.276367188 -8.4716796875 l 1
 106.612304688 -9.8037109375 l 1
 104.172851562 -8.095703125 l 1
 84.1728515625 5.6044921875 l 1
 64.1728515625 19.3046875 l 1
 62.23828125 20.6298828125 l 1
 62.0556640625 22.93359375 l 1
 54.0556640625 123.728515625 l 1
 46.0556640625 224.5234375 l 1
 46.0419921875 224.69140625 l 1
 46.0400390625 224.859375 l 1
 45.0400390625 337.397460938 l 1
 44.0400390625 448.956054688 l 1
 44 453.57421875 l 1
 48.6005859375 453.98046875 l 1
 82.6005859375 456.98046875 l 1
 116.600585938 459.98046875 l 1
 122.904296875 460.537109375 l 1
 121.987304688 454.276367188 l 1
 115.99609375 413.334960938 l 1
 111.146484375 373.568359375 l 1
 115.749023438 360.681640625 l 1
 119.563476562 350 l 1
 126.040039062 350 l 1
 131.70703125 350 l 1
 145.424804688 382.922851562 l 1
 160.424804688 418.922851562 l 1
 160.854492188 419.954101562 l 1
 161.682617188 420.705078125 l 1
86.208984375 415 m 1
 84.7529296875 417.427734375 l 1
 80.208984375 425 l 2
 79.208984375 425 80.0400390625 425 79.0400390625 425 c 2
 79.0400390625 420 l 1
 79.0400390625 415 l 1
 85.0400390625 415 l 1
 86.208984375 415 l 1
74.4130859375 256.83203125 m 1
 77.390625 257.725585938 l 1
 84.2705078125 260.477539062 l 1
 87.052734375 300.34765625 l 1
 89.8935546875 341.075195312 l 1
 82.5048828125 348.46484375 l 1
 80.2470703125 350.721679688 l 1
 77.03125 305.688476562 l 1
 74.4130859375 256.83203125 l 1
EndSplineSet
Validated: 524289
EndChar

StartChar: o
Encoding: 111 111 51
Width: 405
VWidth: 0
Flags: HW
LayerCount: 2
Fore
SplineSet
262.09375 28.40625 m 1
 252.73046875 12.845703125 l 1
 243.000976562 -5.1220703125 l 1
 241.555664062 -7.8515625 l 1
 238.467773438 -7.78125 l 1
 190.58203125 -6.6923828125 l 1
 143.784179688 -4.515625 l 1
 141.786132812 -4.4228515625 l 1
 140.403320312 -2.9775390625 l 1
 92.55859375 45.970703125 l 1
 44.7138671875 95.982421875 l 1
 43.2607421875 97.5009765625 l 1
 43.3701171875 99.5791015625 l 1
 49.8916015625 222.963867188 l 1
 56.4140625 347.4140625 l 1
 56.4462890625 348.017578125 l 1
 56.626953125 348.595703125 l 1
 72.939453125 400.745117188 l 1
 90.3408203125 453.958984375 l 1
 90.9052734375 455.723632812 l 1
 92.482421875 456.694335938 l 1
 106.41796875 465.268554688 l 1
 119.27734375 474.913085938 l 1
 121 476.205078125 l 1
 123.122070312 475.840820312 l 1
 161.096679688 469.331054688 l 1
 198.71875 463.95703125 l 1
 228.798828125 463.95703125 l 1
 258.147460938 463.95703125 l 1
 263.147460938 463.95703125 l 1
 263.147460938 458.95703125 l 1
 263.147460938 443.739257812 l 1
 263.147460938 431.90625 l 1
 276.170898438 426.813476562 l 1
 292.336914062 421.545898438 l 1
 295.755859375 420.431640625 l 1
 295.755859375 416.908203125 l 1
 295.755859375 389.280273438 l 1
 295.755859375 365.173828125 l 1
 308.639648438 360.975585938 l 1
 308.779296875 360.930664062 l 1
 308.916015625 360.876953125 l 1
 325.220703125 354.5 l 1
 328.364257812 353.271484375 l 1
 328.364257812 349.961914062 l 1
 328.364257812 314.895507812 l 1
 328.364257812 281.533203125 l 1
 336.806640625 276.581054688 l 1
 347.67578125 270.205078125 l 1
 350.103515625 268.78125 l 1
 350.103515625 266.013671875 l 1
 350.103515625 202.254882812 l 1
 350.103515625 138.497070312 l 1
 350.103515625 137.307617188 l 1
 349.543945312 136.250976562 l 1
 333.224609375 105.407226562 l 1
 315.819335938 73.5009765625 l 1
 314.408203125 70.912109375 l 1
 311.408203125 70.912109375 l 1
 301.625 70.912109375 l 1
 295.755859375 70.912109375 l 1
 295.755859375 54.5478515625 l 1
 295.755859375 33.294921875 l 1
 295.755859375 28.40625 l 1
 290.755859375 28.40625 l 1
 274.451171875 28.40625 l 1
 262.09375 28.40625 l 1
272.958007812 306.686523438 m 1
 265.32421875 311.629882812 l 1
 255.71875 316.813476562 l 1
 253.147460938 318.201171875 l 1
 253.147460938 321.05859375 l 1
 253.147460938 346.397460938 l 1
 253.147460938 369.168945312 l 1
 231.354492188 383.602539062 l 1
 208.6953125 399.609375 l 1
 179.885742188 399.609375 l 1
 153.390625 399.609375 l 1
 140.779296875 378.877929688 l 1
 128.318359375 355.6796875 l 1
 124.012695312 242.749023438 l 1
 119.73046875 131.486328125 l 1
 146.916015625 95.9404296875 l 1
 174.734375 60.9130859375 l 1
 198.364257812 60.9130859375 l 1
 221.823242188 60.9130859375 l 1
 254.04296875 106.33984375 l 1
 287.78125 153.44921875 l 1
 280.342773438 230.859375 l 1
 272.958007812 306.686523438 l 1
EndSplineSet
Validated: 524289
EndChar

StartChar: p
Encoding: 112 112 52
Width: 504
VWidth: 0
Flags: HW
LayerCount: 2
Fore
SplineSet
278.054246272 123.9609375 m 1
 295.696797237 123.9609375 l 1
 310.584645026 124.770507812 l 1
 334.793945312 143.798828125 l 1
 357.485351562 163.4140625 l 1
 372.921875 187.5 l 1
 387.9765625 210.986328125 l 1
 387.9765625 259.859375 l 1
 387.9765625 307.482421875 l 1
 372.352539062 326.240234375 l 1
 356.4375 345.348632812 l 1
 320.613632184 358.608398438 l 1
 281.77906149 372.973632812 l 1
 231.120536974 376.576171875 l 1
 184.405751355 380.650390625 l 1
 182.497691415 231.45703125 l 1
 180.518040319 77.896484375 l 1
 182.497691415 -125.041015625 l 1
 184.474229852 -331.669921875 l 1
 184.482530276 -332.599609375 l 1
 184.135987579 -333.469726562 l 1
 175.236895622 -355.810546875 l 1
 166.337803666 -378.147460938 l 1
 165.397780661 -380.506835938 l 1
 162.828125 -381.19921875 l 1
 143.174804688 -386.815429688 l 1
 123.518554688 -391.49609375 l 1
 117.360351562 -392.961914062 l 1
 117.360351562 -386.631835938 l 1
 117.360351562 -269.374023438 l 1
 116.430664062 -151.166015625 l 1
 116.430664062 88.6015625 l 1
 116.430664062 321.192382812 l 1
 111.125 319.185546875 l 1
 99.0263671875 314.610351562 l 1
 94.421875 312.868164062 l 1
 92.5888671875 317.372070312 l 1
 86.9833984375 331.149414062 l 1
 82.595703125 342.650390625 l 1
 66.513671875 342.650390625 l 1
 47.900390625 342.650390625 l 1
 42.900390625 342.650390625 l 1
 42.900390625 347.565429688 l 1
 42.900390625 356.716796875 l 1
 42.900390625 364.952148438 l 1
 42.900390625 367.931640625 l 1
 45.5869140625 369.309570312 l 1
 67.03125 380.310546875 l 1
 86.9169921875 390.0859375 l 1
 109.66796875 410.663085938 l 1
 132.936523438 431.709960938 l 1
 133.967773438 432.658203125 l 1
 135.341796875 432.93359375 l 1
 158.611328125 437.586914062 l 1
 183.065232898 442.2421875 l 1
 183.815383706 442.3828125 l 1
 184.576947598 442.319335938 l 1
 229.135698112 438.590820312 l 1
 273.569942269 433.943359375 l 1
 305.166543336 432.084960938 l 1
 336.666015625 429.333984375 l 1
 338.5390625 429.162109375 l 1
 339.831054688 427.819335938 l 1
 372.409179688 393.989257812 l 1
 404.986328125 360.158203125 l 1
 405.801757812 359.310546875 l 1
 406.142578125 358.193359375 l 1
 411.7265625 339.907226562 l 1
 416.2421875 325.120117188 l 1
 420.899414062 325.120117188 l 1
 429.276367188 325.120117188 l 1
 433.104492188 325.120117188 l 1
 434.103515625 321.489257812 l 1
 443.4140625 287.641601562 l 1
 452.725585938 252.879882812 l 1
 453.017578125 251.791992188 l 1
 452.797851562 250.689453125 l 1
 445.348632812 213.178710938 l 1
 437.903320312 176.60546875 l 1
 437.703125 175.622070312 l 1
 437.126953125 174.794921875 l 1
 412.943359375 140.072265625 l 1
 388.758789062 104.4375 l 1
 388.1796875 103.584960938 l 1
 387.302734375 103.030273438 l 1
 361.29296875 86.6064453125 l 1
 335.284179688 69.265625 l 1
 334.012695312 68.41796875 l 1
 332.442773771 68.41796875 l 1
 316.621128295 68.41796875 l 1
 302.362037616 68.41796875 l 1
 292.09026306 56.5478515625 l 1
 280.222732012 42.83203125 l 1
 278.628013073 40.98828125 l 1
 276.074595176 40.98828125 l 1
 247.39766821 40.98828125 l 1
 219.708491686 40.98828125 l 1
 217.407199164 40.98828125 l 1
 215.833231285 42.541015625 l 1
 201.058476772 57.11328125 l 1
 185.295971817 71.6875 l 1
 182.112759257 74.6298828125 l 1
 184.729467887 78.015625 l 1
 189.578990541 84.2919921875 l 1
 194.435776066 91.478515625 l 1
 195.691215178 93.3359375 l 1
 198.024671843 93.7138671875 l 1
 237.645707699 100.125 l 1
 272.741974986 104.9921875 l 1
 272.741974986 109.905273438 l 1
 272.741974986 119.049804688 l 1
 272.741974986 123.9609375 l 1
 278.054246272 123.9609375 l 1
145.24609375 307.186523438 m 2
 145.4296875 306.87109375 148.540039062 317.385742188 149.16015625 319.779296875 c 2
 154.985351562 343.073242188 l 1
 148.609375 349.448242188 l 1
 146.838867188 351.21875 l 1
 144.017578125 337.110351562 l 1
 139.7578125 315.811523438 l 1
 145.24609375 307.186523438 l 2
EndSplineSet
Validated: 524289
EndChar

StartChar: q
Encoding: 113 113 53
Width: 630
VWidth: 0
Flags: HW
LayerCount: 2
Fore
SplineSet
406.862329696 -282.815429688 m 1
 400.700544362 -305.614257812 l 1
 395.310752824 -330.588867188 l 1
 394.363719807 -334.977539062 l 1
 389.740863126 -334.545898438 l 1
 356.153568228 -331.41015625 l 1
 322.568296906 -328.271484375 l 1
 318.803435949 -327.919921875 l 1
 318.004123895 -324.3515625 l 1
 309.322987908 -285.598632812 l 1
 301.727499813 -246.845703125 l 1
 301.618226772 -246.2890625 l 1
 301.641497883 -245.723632812 l 1
 304.891359047 -164.16015625 l 1
 308.145267361 -82.5 l 1
 316.820332624 23.3154296875 l 1
 325.050211425 122.713867188 l 1
 313.318536394 122.713867188 l 1
 298.518110145 122.713867188 l 1
 277.303963497 96.8779296875 l 1
 253.47131103 68.138671875 l 1
 251.916193779 66.2626953125 l 1
 249.397854913 66.2626953125 l 1
 182.227312268 66.2626953125 l 1
 115.930664062 66.2626953125 l 1
 113.66796875 66.2626953125 l 1
 112.174804688 67.9306640625 l 1
 81.8759765625 101.774414062 l 1
 51.5751953125 134.588867188 l 1
 50.2001953125 136.078125 l 1
 50.2841796875 138.086914062 l 1
 53.4228515625 213.013671875 l 1
 56.55859375 286.912109375 l 1
 56.5830078125 287.483398438 l 1
 56.740234375 288.034179688 l 1
 73.4609375 346.499023438 l 1
 89.134765625 404.962890625 l 1
 89.42578125 406.046875 l 1
 90.16796875 406.899414062 l 1
 126.787109375 449.004882812 l 1
 163.40625 490.854492188 l 1
 164.900390625 492.561523438 l 1
 167.168945312 492.561523438 l 1
 198.477629877 492.561523438 l 1
 228.812028248 492.561523438 l 1
 229.986713432 492.561523438 l 1
 231.047066639 492.072265625 l 1
 280.903903106 469.059570312 l 1
 329.677115256 446.044921875 l 1
 332.581956913 444.673828125 l 1
 332.581956913 441.552734375 l 1
 332.581956913 423.092773438 l 1
 332.581956913 409.537109375 l 1
 381.571691569 409.537109375 l 1
 436.824390299 409.537109375 l 1
 443.066106838 409.537109375 l 1
 441.915704552 403.73046875 l 1
 435.433182609 370.997070312 l 1
 430.023155322 337.198242188 l 1
 418.10429962 270.532226562 l 1
 407.308527944 204.115234375 l 1
 397.57513305 67.9453125 l 1
 388.910185661 -67.4072265625 l 1
 388.885902764 -67.796875 l 1
 388.798889046 -68.1787109375 l 1
 376.874974407 -120.483398438 l 1
 365.297091062 -170.266601562 l 1
 371.23425959 -185.55078125 l 1
 376.411575773 -198.04296875 l 1
 382.654304099 -198.04296875 l 1
 388.741217164 -198.04296875 l 1
 433.788016279 -140.41015625 l 1
 479.587890625 -81.8369140625 l 1
 479.759765625 -81.6123046875 l 1
 479.956054688 -81.4091796875 l 1
 509.295898438 -51.01953125 l 1
 539.68359375 -21.6806640625 l 1
 541.135742188 -20.27734375 l 1
 543.15625 -20.27734375 l 1
 557.795898438 -20.27734375 l 1
 572.436523438 -20.27734375 l 1
 577.436523438 -20.27734375 l 1
 577.436523438 -25.27734375 l 1
 577.436523438 -39.91796875 l 1
 577.436523438 -54.5556640625 l 1
 577.436523438 -56.0927734375 l 1
 576.572265625 -57.365234375 l 1
 538.9453125 -112.759765625 l 1
 502.364257812 -168.153320312 l 1
 501.83984375 -168.948242188 l 1
 501.059570312 -169.494140625 l 1
 480.124023438 -184.149414062 l 1
 462.41015625 -196.26953125 l 1
 462.41015625 -206.1796875 l 1
 462.41015625 -218.727539062 l 1
 462.41015625 -220.584960938 l 1
 461.197265625 -221.9921875 l 1
 434.239273464 -252.327148438 l 1
 406.862329696 -282.815429688 l 1
299.918423922 190.706054688 m 1
 306.287625675 183.53125 l 1
 307.986416738 181.892578125 l 1
 330.119266355 240.40625 l 1
 354.723912617 305.451171875 l 1
 354.723912617 332.80078125 l 1
 354.723912617 359.083007812 l 1
 348.553021197 374.96484375 l 1
 343.313985982 388.450195312 l 1
 331.73509085 388.450195312 l 1
 316.567385771 388.450195312 l 1
 315.081070064 388.450195312 l 1
 313.821394737 389.209960938 l 1
 279.18285272 410.106445312 l 1
 244.700125963 430.278320312 l 1
 219.165647071 430.278320312 l 1
 193.483447216 429.286132812 l 1
 176.130281329 419.434570312 l 1
 159.62109375 410.375976562 l 1
 159.62109375 394.49609375 l 1
 159.62109375 375.67578125 l 1
 159.62109375 374.495117188 l 1
 159.092773438 373.439453125 l 1
 143.422851562 342.096679688 l 1
 128.220703125 310.684570312 l 1
 126.15625 226.021484375 l 1
 124.12890625 142.876953125 l 1
 141.90234375 129.784179688 l 1
 160.447265625 116.1171875 l 1
 181.142676163 116.1171875 l 1
 204.137568654 116.1171875 l 1
 235.769078486 126.294921875 l 1
 266.1803727 137.056640625 l 1
 278.279326562 162.360351562 l 1
 291.280794794 189.548828125 l 1
 294.664211896 196.624023438 l 1
 299.918423922 190.706054688 l 1
EndSplineSet
Validated: 524289
EndChar

